STARTFONT 2.1
FONTBOUNDINGBOX 15 14 0 -2
CHARS 11760
STARTCHAR 1100
ENCODING 4352
SWIDTH 520 0
DWIDTH 15 0
BBX 15 14 0 -2
BITMAP
0000
0000
0000
0000
0000
3ff0
0020
0020
0020
0020
0020
0020
0000
0000
ENDCHAR
STARTCHAR 1101
ENCODING 4353
SWIDTH 520 0
DWIDTH 15 0
BBX 15 14 0 -2
BITMAP
0000
0000
0000
0000
0000
3ef8
0410
0410
0410
0410
0410
0410
0000
0000
ENDCHAR
STARTCHAR 1102
ENCODING 4354
SWIDTH 520 0
DWIDTH 15 0
BBX 15 14 0 -2
BITMAP
0000
0000
0000
0000
0000
3000
1000
1000
1000
1000
1000
0ff0
0000
0000
ENDCHAR
STARTCHAR 1103
ENCODING 4355
SWIDTH 520 0
DWIDTH 15 0
BBX 15 14 0 -2
BITMAP
0000
0000
0000
0000
0000
3ff0
1000
1000
1000
1000
1000
0ff0
0000
0000
ENDCHAR
STARTCHAR 1104
ENCODING 4356
SWIDTH 520 0
DWIDTH 15 0
BBX 15 14 0 -2
BITMAP
0000
0000
0000
0000
0000
7df8
2080
2080
2080
2080
2680
3878
0000
0000
ENDCHAR
STARTCHAR 1105
ENCODING 4357
SWIDTH 520 0
DWIDTH 15 0
BBX 15 14 0 -2
BITMAP
0000
0000
0000
0000
3fe0
0020
0020
3fe0
1000
1000
1000
0ff0
0000
0000
ENDCHAR
STARTCHAR 1106
ENCODING 4358
SWIDTH 520 0
DWIDTH 15 0
BBX 15 14 0 -2
BITMAP
0000
0000
0000
0000
0000
3fe0
1020
1020
1020
1020
1fe0
1000
0000
0000
ENDCHAR
STARTCHAR 1107
ENCODING 4359
SWIDTH 520 0
DWIDTH 15 0
BBX 15 14 0 -2
BITMAP
0000
0000
0000
0000
0060
3020
1020
1fe0
1020
1020
1fe0
1020
0000
0000
ENDCHAR
STARTCHAR 1108
ENCODING 4360
SWIDTH 520 0
DWIDTH 15 0
BBX 15 14 0 -2
BITMAP
0000
0000
0000
0018
0d88
c488
4488
7cf8
4488
4488
7cf8
4488
0000
0000
ENDCHAR
STARTCHAR 1109
ENCODING 4361
SWIDTH 520 0
DWIDTH 15 0
BBX 15 14 0 -2
BITMAP
0000
0000
0000
0000
0300
0100
0100
0280
0440
0820
1010
6008
0000
0000
ENDCHAR
STARTCHAR 110A
ENCODING 4362
SWIDTH 520 0
DWIDTH 15 0
BBX 15 14 0 -2
BITMAP
0000
0000
0000
0000
06c0
0240
0240
0540
08a0
1110
6208
0c00
0000
0000
ENDCHAR
STARTCHAR 110B
ENCODING 4363
SWIDTH 520 0
DWIDTH 15 0
BBX 15 14 0 -2
BITMAP
0000
0000
0000
0000
0000
0380
0440
0820
0820
0820
0440
0380
0000
0000
ENDCHAR
STARTCHAR 110C
ENCODING 4364
SWIDTH 520 0
DWIDTH 15 0
BBX 15 14 0 -2
BITMAP
0000
0000
0000
0000
0000
1ff0
0100
0100
0280
0440
0820
3010
0000
0000
ENDCHAR
STARTCHAR 110D
ENCODING 4365
SWIDTH 520 0
DWIDTH 15 0
BBX 15 14 0 -2
BITMAP
0000
0000
0000
0000
0000
3ff8
0840
0420
0840
14a0
2310
4208
0000
0000
ENDCHAR
STARTCHAR 110E
ENCODING 4366
SWIDTH 520 0
DWIDTH 15 0
BBX 15 14 0 -2
BITMAP
0000
0000
0000
0000
07c0
0000
1ff0
0100
0280
0440
0820
3010
0000
0000
ENDCHAR
STARTCHAR 110F
ENCODING 4367
SWIDTH 520 0
DWIDTH 15 0
BBX 15 14 0 -2
BITMAP
0000
0000
0000
0000
0000
3ff0
0020
0020
01e0
3e20
0020
0020
0000
0000
ENDCHAR
STARTCHAR 1110
ENCODING 4368
SWIDTH 520 0
DWIDTH 15 0
BBX 15 14 0 -2
BITMAP
0000
0000
0000
0000
0000
3ff0
1000
1000
1ff0
1000
1000
0ff0
0000
0000
ENDCHAR
STARTCHAR 1111
ENCODING 4369
SWIDTH 520 0
DWIDTH 15 0
BBX 15 14 0 -2
BITMAP
0000
0000
0000
0000
0000
3ff0
0000
08c0
0440
0440
0480
3ff0
0000
0000
ENDCHAR
STARTCHAR 1112
ENCODING 4370
SWIDTH 520 0
DWIDTH 15 0
BBX 15 14 0 -2
BITMAP
0000
0000
0000
0000
0780
0000
1fe0
0300
0480
0840
0840
0480
0300
0000
ENDCHAR
STARTCHAR 1113
ENCODING 4371
SWIDTH 520 0
DWIDTH 15 0
BBX 15 14 0 -2
BITMAP
0000
0000
0000
0000
0000
33f0
1020
1020
1020
1020
1320
1c20
0000
0000
ENDCHAR
STARTCHAR 1114
ENCODING 4372
SWIDTH 520 0
DWIDTH 15 0
BBX 15 14 0 -2
BITMAP
0000
0000
0000
0000
0000
3180
1080
1080
1080
1080
1380
1c78
0000
0000
ENDCHAR
STARTCHAR 1115
ENCODING 4373
SWIDTH 520 0
DWIDTH 15 0
BBX 15 14 0 -2
BITMAP
0000
0000
0000
0000
0000
63f0
2100
2100
2100
2100
2700
38f0
0000
0000
ENDCHAR
STARTCHAR 1116
ENCODING 4374
SWIDTH 520 0
DWIDTH 15 0
BBX 15 14 0 -2
BITMAP
0000
0000
0000
0000
0018
6188
2088
20f8
2088
2088
26f8
3888
0000
0000
ENDCHAR
STARTCHAR 1117
ENCODING 4375
SWIDTH 520 0
DWIDTH 15 0
BBX 15 14 0 -2
BITMAP
0000
0000
0000
0000
0000
7df8
2010
2010
2010
2010
2610
3810
0000
0000
ENDCHAR
STARTCHAR 1118
ENCODING 4376
SWIDTH 520 0
DWIDTH 15 0
BBX 15 14 0 -2
BITMAP
0000
0000
0000
0000
0000
7d80
0480
0480
7c80
2080
2680
3878
0000
0000
ENDCHAR
STARTCHAR 1119
ENCODING 4377
SWIDTH 520 0
DWIDTH 15 0
BBX 15 14 0 -2
BITMAP
0000
0000
0000
0000
0000
7df0
0410
0410
7df0
2080
2680
38f8
0000
0000
ENDCHAR
STARTCHAR 111A
ENCODING 4378
SWIDTH 520 0
DWIDTH 15 0
BBX 15 14 0 -2
BITMAP
0000
0000
0000
0000
0000
7cf0
0400
05f8
7c60
2090
2690
3860
0000
0000
ENDCHAR
STARTCHAR 111B
ENCODING 4379
SWIDTH 520 0
DWIDTH 15 0
BBX 15 14 0 -2
BITMAP
0000
0000
1fc0
0040
1fc0
0800
0fe0
0000
0780
0840
0840
0840
0780
0000
ENDCHAR
STARTCHAR 111C
ENCODING 4380
SWIDTH 520 0
DWIDTH 15 0
BBX 15 14 0 -2
BITMAP
0000
0000
0000
0000
0018
7f88
2288
22f8
2288
2288
3ef8
2088
0000
0000
ENDCHAR
STARTCHAR 111D
ENCODING 4381
SWIDTH 520 0
DWIDTH 15 0
BBX 15 14 0 -2
BITMAP
0000
0000
0000
1fc0
0840
0840
0fc0
0800
0780
0840
0840
0840
0780
0000
ENDCHAR
STARTCHAR 111E
ENCODING 4382
SWIDTH 520 0
DWIDTH 15 0
BBX 15 14 0 -2
BITMAP
0000
0000
0000
0000
0600
62fc
2208
3e08
2208
2208
3e08
2208
0000
0000
ENDCHAR
STARTCHAR 111F
ENCODING 4383
SWIDTH 520 0
DWIDTH 15 0
BBX 15 14 0 -2
BITMAP
0000
0000
0000
0000
0600
62c0
2240
3e40
2240
2240
3e40
223c
0000
0000
ENDCHAR
STARTCHAR 1120
ENCODING 4384
SWIDTH 520 0
DWIDTH 15 0
BBX 15 14 0 -2
BITMAP
0000
0000
0000
0000
0600
62f8
2240
3e40
2240
2240
3e40
2238
0000
0000
ENDCHAR
STARTCHAR 1121
ENCODING 4385
SWIDTH 520 0
DWIDTH 15 0
BBX 15 14 0 -2
BITMAP
0000
0000
0000
0000
0660
6220
2220
3e50
2250
2288
3f08
2200
0000
0000
ENDCHAR
STARTCHAR 1122
ENCODING 4386
SWIDTH 520 0
DWIDTH 15 0
BBX 15 14 0 -2
BITMAP
0000
0000
0000
0000
0000
49bc
4884
7884
4944
4944
7a24
4c14
0000
0000
ENDCHAR
STARTCHAR 1123
ENCODING 4387
SWIDTH 520 0
DWIDTH 15 0
BBX 15 14 0 -2
BITMAP
0000
0000
0000
0000
0000
4b7c
4920
7920
4aa0
4aa0
7c60
485c
0000
0000
ENDCHAR
STARTCHAR 1124
ENCODING 4388
SWIDTH 520 0
DWIDTH 15 0
BBX 15 14 0 -2
BITMAP
0000
0000
0000
0000
180c
cb64
4924
793c
4aa4
4aa4
7c7c
4824
0000
0000
ENDCHAR
STARTCHAR 1125
ENCODING 4389
SWIDTH 520 0
DWIDTH 15 0
BBX 15 14 0 -2
BITMAP
0000
0000
0000
0000
1800
cb30
4910
7910
4aa8
4aa8
7c44
4884
0000
0000
ENDCHAR
STARTCHAR 1126
ENCODING 4390
SWIDTH 520 0
DWIDTH 15 0
BBX 15 14 0 -2
BITMAP
0000
0000
0000
0000
1800
cb7c
4910
7910
4aa8
4aa8
7c44
4884
0000
0000
ENDCHAR
STARTCHAR 1127
ENCODING 4391
SWIDTH 520 0
DWIDTH 15 0
BBX 15 14 0 -2
BITMAP
0000
0000
0000
0000
0600
62f8
2220
3e20
2250
2250
3e88
2308
0000
0000
ENDCHAR
STARTCHAR 1128
ENCODING 4392
SWIDTH 520 0
DWIDTH 15 0
BBX 15 14 0 -2
BITMAP
0000
0000
0000
0000
0670
6200
22f8
3e20
2220
2250
3e88
2308
0000
0000
ENDCHAR
STARTCHAR 1129
ENCODING 4393
SWIDTH 520 0
DWIDTH 15 0
BBX 15 14 0 -2
BITMAP
0000
0000
0000
0000
0600
63f8
2280
3e80
22f8
2280
3e80
2278
0000
0000
ENDCHAR
STARTCHAR 112A
ENCODING 4394
SWIDTH 520 0
DWIDTH 15 0
BBX 15 14 0 -2
BITMAP
0000
0000
0000
0000
0c00
65f8
2400
3d30
2490
2490
3ca0
25f8
0000
0000
ENDCHAR
STARTCHAR 112B
ENCODING 4395
SWIDTH 520 0
DWIDTH 15 0
BBX 15 14 0 -2
BITMAP
0000
0000
00c0
1840
0fc0
0840
0fc0
0840
0000
0780
0840
0840
0780
0000
ENDCHAR
STARTCHAR 112C
ENCODING 4396
SWIDTH 520 0
DWIDTH 15 0
BBX 15 14 0 -2
BITMAP
0000
0000
0630
3390
1290
1ef0
1290
1ef0
1000
03c0
0420
0420
03c0
0000
ENDCHAR
STARTCHAR 112D
ENCODING 4397
SWIDTH 520 0
DWIDTH 15 0
BBX 15 14 0 -2
BITMAP
0000
0000
0000
0000
19f8
0810
0810
1410
1210
2110
4110
0000
0000
0000
ENDCHAR
STARTCHAR 112E
ENCODING 4398
SWIDTH 520 0
DWIDTH 15 0
BBX 15 14 0 -2
BITMAP
0000
0000
0000
0000
18c0
0840
0840
1440
1240
2140
413c
0000
0000
0000
ENDCHAR
STARTCHAR 112F
ENCODING 4399
SWIDTH 520 0
DWIDTH 15 0
BBX 15 14 0 -2
BITMAP
0000
0000
0000
0000
19f8
0880
0880
1480
1280
2180
4178
0000
0000
0000
ENDCHAR
STARTCHAR 1130
ENCODING 4400
SWIDTH 520 0
DWIDTH 15 0
BBX 15 14 0 -2
BITMAP
0000
0000
0000
0000
18f8
0808
0808
14f8
1240
2140
417c
0000
0000
0000
ENDCHAR
STARTCHAR 1131
ENCODING 4401
SWIDTH 520 0
DWIDTH 15 0
BBX 15 14 0 -2
BITMAP
0000
0000
0000
0000
1800
09f8
0888
1488
1488
2288
22f8
4080
0000
0000
ENDCHAR
STARTCHAR 1132
ENCODING 4402
SWIDTH 520 0
DWIDTH 15 0
BBX 15 14 0 -2
BITMAP
0000
0000
0000
0000
1818
0988
0888
14f8
1288
2188
41f8
0088
0000
0000
ENDCHAR
STARTCHAR 1133
ENCODING 4403
SWIDTH 520 0
DWIDTH 15 0
BBX 15 14 0 -2
BITMAP
0000
0000
0000
0000
00c0
365c
1244
13c4
2a44
2a44
47c4
4244
0000
0000
ENDCHAR
STARTCHAR 1134
ENCODING 4404
SWIDTH 520 0
DWIDTH 15 0
BBX 15 14 0 -2
BITMAP
0000
0000
0000
0000
0000
3330
1110
1110
2aa8
2aa8
2444
4880
0000
0000
ENDCHAR
STARTCHAR 1135
ENCODING 4405
SWIDTH 520 0
DWIDTH 15 0
BBX 15 14 0 -2
BITMAP
0000
0000
0000
0000
1800
0870
0888
1488
1488
2288
2288
4070
0000
0000
ENDCHAR
STARTCHAR 1136
ENCODING 4406
SWIDTH 520 0
DWIDTH 15 0
BBX 15 14 0 -2
BITMAP
0000
0000
0000
0000
18f8
0820
0820
1420
1450
2250
2288
4108
0000
0000
ENDCHAR
STARTCHAR 1137
ENCODING 4407
SWIDTH 520 0
DWIDTH 15 0
BBX 15 14 0 -2
BITMAP
0000
0000
0000
0000
1870
0800
08f8
1420
1420
2250
2288
4108
0000
0000
ENDCHAR
STARTCHAR 1138
ENCODING 4408
SWIDTH 520 0
DWIDTH 15 0
BBX 15 14 0 -2
BITMAP
0000
0000
0000
0000
1800
08fc
0808
1418
12e8
2108
2108
4008
0000
0000
ENDCHAR
STARTCHAR 1139
ENCODING 4409
SWIDTH 520 0
DWIDTH 15 0
BBX 15 14 0 -2
BITMAP
0000
0000
0000
0000
19f8
0880
0880
14f8
1280
2180
2178
4000
0000
0000
ENDCHAR
STARTCHAR 113A
ENCODING 4410
SWIDTH 520 0
DWIDTH 15 0
BBX 15 14 0 -2
BITMAP
0000
0000
0000
1800
09fc
0800
1498
1448
2248
2250
41fc
0000
0000
0000
ENDCHAR
STARTCHAR 113B
ENCODING 4411
SWIDTH 520 0
DWIDTH 15 0
BBX 15 14 0 -2
BITMAP
0000
0000
0000
0000
1870
0800
09fc
1400
1470
2288
2288
4070
0000
0000
ENDCHAR
STARTCHAR 113C
ENCODING 4412
SWIDTH 520 0
DWIDTH 15 0
BBX 15 14 0 -2
BITMAP
0000
0000
0000
0000
0000
0080
0140
0220
0410
0800
1000
2000
0000
0000
ENDCHAR
STARTCHAR 113D
ENCODING 4413
SWIDTH 520 0
DWIDTH 15 0
BBX 15 14 0 -2
BITMAP
0000
0000
0000
0000
0000
0110
02a8
0444
0880
1100
2200
4400
0000
0000
ENDCHAR
STARTCHAR 113E
ENCODING 4414
SWIDTH 520 0
DWIDTH 15 0
BBX 15 14 0 -2
BITMAP
0000
0000
0000
0000
0000
0400
0a00
1100
2080
0040
0020
0010
0000
0000
ENDCHAR
STARTCHAR 113F
ENCODING 4415
SWIDTH 520 0
DWIDTH 15 0
BBX 15 14 0 -2
BITMAP
0000
0000
0000
0000
0000
1100
2a80
4440
0220
0110
0088
0044
0000
0000
ENDCHAR
STARTCHAR 1140
ENCODING 4416
SWIDTH 520 0
DWIDTH 15 0
BBX 15 14 0 -2
BITMAP
0000
0000
0000
0000
0300
0100
0280
0280
0440
0440
0820
0fe0
0000
0000
ENDCHAR
STARTCHAR 1141
ENCODING 4417
SWIDTH 520 0
DWIDTH 15 0
BBX 15 14 0 -2
BITMAP
0000
0000
0000
0000
0000
1df8
2210
2210
2210
2210
2210
1c10
0000
0000
ENDCHAR
STARTCHAR 1142
ENCODING 4418
SWIDTH 520 0
DWIDTH 15 0
BBX 15 14 0 -2
BITMAP
0000
0000
0000
0000
0000
1df8
2280
2280
2280
2280
2280
1c78
0000
0000
ENDCHAR
STARTCHAR 1143
ENCODING 4419
SWIDTH 520 0
DWIDTH 15 0
BBX 15 14 0 -2
BITMAP
0000
0000
0000
0000
0000
1df8
2288
2288
2288
2288
22f8
1c80
0000
0000
ENDCHAR
STARTCHAR 1144
ENCODING 4420
SWIDTH 520 0
DWIDTH 15 0
BBX 15 14 0 -2
BITMAP
0000
0000
0000
0000
0018
1d88
2288
22f8
2288
2288
22f8
1c88
0000
0000
ENDCHAR
STARTCHAR 1145
ENCODING 4421
SWIDTH 520 0
DWIDTH 15 0
BBX 15 14 0 -2
BITMAP
0000
0000
0000
0000
0060
1c20
2220
2250
2250
2288
2288
1d04
0000
0000
ENDCHAR
STARTCHAR 1146
ENCODING 4422
SWIDTH 520 0
DWIDTH 15 0
BBX 15 14 0 -2
BITMAP
0000
0000
0000
0000
0060
1c20
2250
2250
2288
2288
2304
1dfc
0000
0000
ENDCHAR
STARTCHAR 1147
ENCODING 4423
SWIDTH 520 0
DWIDTH 15 0
BBX 15 14 0 -2
BITMAP
0000
0000
0000
0000
0000
1c70
2288
2288
2288
2288
2288
1c70
0000
0000
ENDCHAR
STARTCHAR 1148
ENCODING 4424
SWIDTH 520 0
DWIDTH 15 0
BBX 15 14 0 -2
BITMAP
0000
0000
0000
0000
0000
1cf8
2220
2220
2250
2250
2288
1d08
0000
0000
ENDCHAR
STARTCHAR 1149
ENCODING 4425
SWIDTH 520 0
DWIDTH 15 0
BBX 15 14 0 -2
BITMAP
0000
0000
0000
0000
00e0
3800
45f0
4440
4440
44a0
4510
3a10
0000
0000
ENDCHAR
STARTCHAR 114A
ENCODING 4426
SWIDTH 520 0
DWIDTH 15 0
BBX 15 14 0 -2
BITMAP
0000
0000
0000
0000
0000
1df8
2280
2280
22f8
2280
2280
1c78
0000
0000
ENDCHAR
STARTCHAR 114B
ENCODING 4427
SWIDTH 520 0
DWIDTH 15 0
BBX 15 14 0 -2
BITMAP
0000
0000
0000
0000
0000
3bf8
4400
4530
4490
4490
44a0
3bf8
0000
0000
ENDCHAR
STARTCHAR 114C
ENCODING 4428
SWIDTH 520 0
DWIDTH 15 0
BBX 15 14 0 -2
BITMAP
0000
0000
0000
0300
0100
0100
0380
0440
0820
0820
0820
0440
0380
0000
ENDCHAR
STARTCHAR 114D
ENCODING 4429
SWIDTH 520 0
DWIDTH 15 0
BBX 15 14 0 -2
BITMAP
0000
0000
0000
0000
0000
7e70
0888
0888
1488
1488
2288
4270
0000
0000
ENDCHAR
STARTCHAR 114E
ENCODING 4430
SWIDTH 520 0
DWIDTH 15 0
BBX 15 14 0 -2
BITMAP
0000
0000
0000
0000
0000
1fe0
0100
0280
0440
0820
1000
2000
0000
0000
ENDCHAR
STARTCHAR 114F
ENCODING 4431
SWIDTH 520 0
DWIDTH 15 0
BBX 15 14 0 -2
BITMAP
0000
0000
0000
0000
0000
3ff8
0440
0aa0
1110
2200
4400
0800
0000
0000
ENDCHAR
STARTCHAR 1150
ENCODING 4432
SWIDTH 520 0
DWIDTH 15 0
BBX 15 14 0 -2
BITMAP
0000
0000
0000
0000
0000
1fe0
0200
0500
0880
1040
0020
0010
0000
0000
ENDCHAR
STARTCHAR 1151
ENCODING 4433
SWIDTH 520 0
DWIDTH 15 0
BBX 15 14 0 -2
BITMAP
0000
0000
0000
0000
0000
7ff0
0880
1540
2220
0110
0088
0040
0000
0000
ENDCHAR
STARTCHAR 1152
ENCODING 4434
SWIDTH 520 0
DWIDTH 15 0
BBX 15 14 0 -2
BITMAP
0000
0000
0000
0000
1c00
00fc
3e08
0818
08e8
1408
2208
4208
0000
0000
ENDCHAR
STARTCHAR 1153
ENCODING 4435
SWIDTH 520 0
DWIDTH 15 0
BBX 15 14 0 -2
BITMAP
0000
0000
0000
0000
1c70
0000
3ffc
0800
0870
1488
2288
4270
0000
0000
ENDCHAR
STARTCHAR 1154
ENCODING 4436
SWIDTH 520 0
DWIDTH 15 0
BBX 15 14 0 -2
BITMAP
0000
0000
0000
0100
0100
3ff0
0100
0280
0440
0800
1000
2000
0000
0000
ENDCHAR
STARTCHAR 1155
ENCODING 4437
SWIDTH 520 0
DWIDTH 15 0
BBX 15 14 0 -2
BITMAP
0000
0000
0000
0200
0200
3ff0
0200
0500
0880
0040
0020
0010
0000
0000
ENDCHAR
STARTCHAR 1156
ENCODING 4438
SWIDTH 520 0
DWIDTH 15 0
BBX 15 14 0 -2
BITMAP
0000
0000
0000
0000
000c
7ec4
0044
267c
1244
1244
147c
7f44
0000
0000
ENDCHAR
STARTCHAR 1157
ENCODING 4439
SWIDTH 520 0
DWIDTH 15 0
BBX 15 14 0 -2
BITMAP
0000
0000
1fe0
0080
0840
0440
0480
1fe0
0000
0780
0840
0840
0840
0780
ENDCHAR
STARTCHAR 1158
ENCODING 4440
SWIDTH 520 0
DWIDTH 15 0
BBX 15 14 0 -2
BITMAP
0000
0000
0000
0000
1c70
0000
7ffc
0000
1c70
2288
2288
1c70
0000
0000
ENDCHAR
STARTCHAR 1159
ENCODING 4441
SWIDTH 520 0
DWIDTH 15 0
BBX 15 14 0 -2
BITMAP
0000
0000
0000
0000
3ff0
0000
0000
0780
0840
1020
1020
0840
0780
0000
ENDCHAR
STARTCHAR 115A
ENCODING 4442
SWIDTH 520 0
DWIDTH 15 0
BBX 15 14 0 -2
BITMAP
0000
0000
0000
0000
0000
0000
0000
0000
0000
0000
0000
0000
0000
0000
ENDCHAR
STARTCHAR 115B
ENCODING 4443
SWIDTH 520 0
DWIDTH 15 0
BBX 15 14 0 -2
BITMAP
0000
0000
0000
0000
0000
0000
0000
0000
0000
0000
0000
0000
0000
0000
ENDCHAR
STARTCHAR 115C
ENCODING 4444
SWIDTH 520 0
DWIDTH 15 0
BBX 15 14 0 -2
BITMAP
0000
0000
0000
0000
0000
0000
0000
0000
0000
0000
0000
0000
0000
0000
ENDCHAR
STARTCHAR 115D
ENCODING 4445
SWIDTH 520 0
DWIDTH 15 0
BBX 15 14 0 -2
BITMAP
0000
0000
0000
0000
0000
0000
0000
0000
0000
0000
0000
0000
0000
0000
ENDCHAR
STARTCHAR 115E
ENCODING 4446
SWIDTH 520 0
DWIDTH 15 0
BBX 15 14 0 -2
BITMAP
0000
0000
0000
0000
0000
0000
0000
0000
0000
0000
0000
0000
0000
0000
ENDCHAR
STARTCHAR 115F
ENCODING 4447
SWIDTH 520 0
DWIDTH 15 0
BBX 15 14 0 -2
BITMAP
0000
0000
0000
0000
0000
0000
0000
0000
0000
0000
0000
0000
0000
0000
ENDCHAR
STARTCHAR 1160
ENCODING 4448
SWIDTH 520 0
DWIDTH 15 0
BBX 15 14 0 -2
BITMAP
0000
0000
0000
0000
0000
0000
0000
0000
0000
0000
0000
0000
0000
0000
ENDCHAR
STARTCHAR 1161
ENCODING 4449
SWIDTH 520 0
DWIDTH 15 0
BBX 15 14 0 -2
BITMAP
0000
0000
0600
0200
0200
0200
0200
03c0
0200
0200
0200
0200
0200
0200
ENDCHAR
STARTCHAR 1162
ENCODING 4450
SWIDTH 520 0
DWIDTH 15 0
BBX 15 14 0 -2
BITMAP
0000
0000
0180
0c80
0480
0480
0480
0780
0480
0480
0480
0480
0480
0080
ENDCHAR
STARTCHAR 1163
ENCODING 4451
SWIDTH 520 0
DWIDTH 15 0
BBX 15 14 0 -2
BITMAP
0000
0000
0600
0200
0200
0200
03c0
0200
0200
03c0
0200
0200
0200
0200
ENDCHAR
STARTCHAR 1164
ENCODING 4452
SWIDTH 520 0
DWIDTH 15 0
BBX 15 14 0 -2
BITMAP
0000
0000
0180
0c80
0480
0480
0780
0480
0480
0780
0480
0480
0480
0080
ENDCHAR
STARTCHAR 1165
ENCODING 4453
SWIDTH 520 0
DWIDTH 15 0
BBX 15 14 0 -2
BITMAP
0000
0000
0180
0080
0080
0080
0080
0f80
0080
0080
0080
0080
0080
0080
ENDCHAR
STARTCHAR 1166
ENCODING 4454
SWIDTH 520 0
DWIDTH 15 0
BBX 15 14 0 -2
BITMAP
0000
0000
00c0
0640
0240
0240
0240
1e40
0240
0240
0240
0240
0240
0040
ENDCHAR
STARTCHAR 1167
ENCODING 4455
SWIDTH 520 0
DWIDTH 15 0
BBX 15 14 0 -2
BITMAP
0000
0000
0180
0080
0080
0080
0f80
0080
0080
0f80
0080
0080
0080
0080
ENDCHAR
STARTCHAR 1168
ENCODING 4456
SWIDTH 520 0
DWIDTH 15 0
BBX 15 14 0 -2
BITMAP
0000
0000
00c0
0640
0240
0240
1e40
0240
0240
1e40
0240
0240
0240
0040
ENDCHAR
STARTCHAR 1169
ENCODING 4457
SWIDTH 520 0
DWIDTH 15 0
BBX 15 14 0 -2
BITMAP
0000
0000
0000
0000
0300
0100
0100
0100
0100
0100
3ff8
0000
0000
0000
ENDCHAR
STARTCHAR 116A
ENCODING 4458
SWIDTH 520 0
DWIDTH 15 0
BBX 15 14 0 -2
BITMAP
0000
0000
00c0
0040
1840
0840
0840
0878
0840
09c0
7e40
0040
0040
0040
ENDCHAR
STARTCHAR 116B
ENCODING 4459
SWIDTH 520 0
DWIDTH 15 0
BBX 15 14 0 -2
BITMAP
0000
0000
0030
0190
1890
0890
0890
0890
08f0
0b90
7c90
0090
0090
0010
ENDCHAR
STARTCHAR 116C
ENCODING 4460
SWIDTH 520 0
DWIDTH 15 0
BBX 15 14 0 -2
BITMAP
0000
0000
0060
0020
0c20
0420
0420
0420
0420
04e0
7f20
0020
0020
0020
ENDCHAR
STARTCHAR 116D
ENCODING 4461
SWIDTH 520 0
DWIDTH 15 0
BBX 15 14 0 -2
BITMAP
0000
0000
0000
0000
0000
00c0
0c40
0440
0440
0440
0440
7ffc
0000
0000
ENDCHAR
STARTCHAR 116E
ENCODING 4462
SWIDTH 520 0
DWIDTH 15 0
BBX 15 14 0 -2
BITMAP
0000
0000
0000
0000
0000
0000
3ff8
0100
0100
0100
0100
0100
0100
0000
ENDCHAR
STARTCHAR 116F
ENCODING 4463
SWIDTH 520 0
DWIDTH 15 0
BBX 15 14 0 -2
BITMAP
0000
0000
0060
0020
0020
01a0
7e20
0820
09e0
0820
0820
0820
0020
0020
ENDCHAR
STARTCHAR 1170
ENCODING 4464
SWIDTH 520 0
DWIDTH 15 0
BBX 15 14 0 -2
BITMAP
0000
0000
0030
00d0
0050
0050
0350
7c50
0850
0bd0
0850
0850
0050
0010
ENDCHAR
STARTCHAR 1171
ENCODING 4465
SWIDTH 520 0
DWIDTH 15 0
BBX 15 14 0 -2
BITMAP
0000
0000
0060
0020
0020
0020
00e0
3f20
0420
0420
0420
0420
0420
0020
ENDCHAR
STARTCHAR 1172
ENCODING 4466
SWIDTH 520 0
DWIDTH 15 0
BBX 15 14 0 -2
BITMAP
0000
0000
0000
0000
0000
0000
7ff8
0480
0480
0480
0480
0480
0480
0000
ENDCHAR
STARTCHAR 1173
ENCODING 4467
SWIDTH 520 0
DWIDTH 15 0
BBX 15 14 0 -2
BITMAP
0000
0000
0000
0000
0000
0000
0000
0000
0000
0000
3ff8
0000
0000
0000
ENDCHAR
STARTCHAR 1174
ENCODING 4468
SWIDTH 520 0
DWIDTH 15 0
BBX 15 14 0 -2
BITMAP
0000
0000
0060
0020
0020
0020
0020
0020
01e0
3e20
0020
0020
0020
0020
ENDCHAR
STARTCHAR 1175
ENCODING 4469
SWIDTH 520 0
DWIDTH 15 0
BBX 15 14 0 -2
BITMAP
0000
0000
0300
0100
0100
0100
0100
0100
0100
0100
0100
0100
0100
0100
ENDCHAR
STARTCHAR 1176
ENCODING 4470
SWIDTH 520 0
DWIDTH 15 0
BBX 15 14 0 -2
BITMAP
0000
0000
0060
0020
0020
0020
0038
0620
0220
0220
0200
7ff8
0000
0000
ENDCHAR
STARTCHAR 1177
ENCODING 4471
SWIDTH 520 0
DWIDTH 15 0
BBX 15 14 0 -2
BITMAP
0000
0000
0060
0020
0020
0038
0020
0020
0020
0000
3ff0
0100
0100
0100
ENDCHAR
STARTCHAR 1178
ENCODING 4472
SWIDTH 520 0
DWIDTH 15 0
BBX 15 14 0 -2
BITMAP
0000
0000
0060
0020
0020
0038
0020
0020
0338
0120
0120
0100
3ff8
0000
ENDCHAR
STARTCHAR 1179
ENCODING 4473
SWIDTH 520 0
DWIDTH 15 0
BBX 15 14 0 -2
BITMAP
0000
0000
0060
0020
0020
0038
0020
0320
1938
0920
0920
0900
7ff0
0000
ENDCHAR
STARTCHAR 117A
ENCODING 4474
SWIDTH 520 0
DWIDTH 15 0
BBX 15 14 0 -2
BITMAP
0000
0000
0070
0010
0010
0010
00f0
0010
0610
0210
0210
0200
7ff8
0000
ENDCHAR
STARTCHAR 117B
ENCODING 4475
SWIDTH 520 0
DWIDTH 15 0
BBX 15 14 0 -2
BITMAP
0000
0000
0030
0010
0010
00f0
0010
0010
0010
0000
3ff8
0100
0100
0100
ENDCHAR
STARTCHAR 117C
ENCODING 4476
SWIDTH 520 0
DWIDTH 15 0
BBX 15 14 0 -2
BITMAP
0000
0000
0030
0010
0010
0010
00f0
0010
0010
0010
0010
0000
3ff8
0000
ENDCHAR
STARTCHAR 117D
ENCODING 4477
SWIDTH 520 0
DWIDTH 15 0
BBX 15 14 0 -2
BITMAP
0000
0000
0030
0010
0010
00f0
0010
0010
06f0
0210
0210
0200
7ff8
0000
ENDCHAR
STARTCHAR 117E
ENCODING 4478
SWIDTH 520 0
DWIDTH 15 0
BBX 15 14 0 -2
BITMAP
0000
0000
0030
0010
00f0
0010
00f0
0010
0010
0000
3ff8
0100
0100
0100
ENDCHAR
STARTCHAR 117F
ENCODING 4479
SWIDTH 520 0
DWIDTH 15 0
BBX 15 14 0 -2
BITMAP
0000
0000
0060
0020
1820
0820
0820
09e0
0820
0820
09a0
7e20
0020
0020
ENDCHAR
STARTCHAR 1180
ENCODING 4480
SWIDTH 520 0
DWIDTH 15 0
BBX 15 14 0 -2
BITMAP
0000
0000
0030
00d0
1850
0850
0bd0
0850
0850
0b50
7c50
0050
0050
0010
ENDCHAR
STARTCHAR 1181
ENCODING 4481
SWIDTH 520 0
DWIDTH 15 0
BBX 15 14 0 -2
BITMAP
0000
0000
0030
00d0
0050
1850
0bd0
0850
0bd0
0850
0b50
7c50
0050
0010
ENDCHAR
STARTCHAR 1182
ENCODING 4482
SWIDTH 520 0
DWIDTH 15 0
BBX 15 14 0 -2
BITMAP
0000
0000
0000
0300
0100
0100
3ff8
0000
0300
0100
0100
3ff8
0000
0000
ENDCHAR
STARTCHAR 1183
ENCODING 4483
SWIDTH 520 0
DWIDTH 15 0
BBX 15 14 0 -2
BITMAP
0000
0000
0300
0100
0100
0100
3ff8
0000
3ff8
0100
0100
0100
0100
0000
ENDCHAR
STARTCHAR 1184
ENCODING 4484
SWIDTH 520 0
DWIDTH 15 0
BBX 15 14 0 -2
BITMAP
0000
0000
0060
0020
0620
3220
1238
1220
1220
12e0
7f38
0020
0020
0020
ENDCHAR
STARTCHAR 1185
ENCODING 4485
SWIDTH 520 0
DWIDTH 15 0
BBX 15 14 0 -2
BITMAP
0000
0000
0030
0190
0c90
0490
34f0
1490
1490
17f0
7c90
0090
0090
0010
ENDCHAR
STARTCHAR 1186
ENCODING 4486
SWIDTH 520 0
DWIDTH 15 0
BBX 15 14 0 -2
BITMAP
0000
0000
0060
0020
0620
32e0
1220
12e0
1220
13a0
7c20
0020
0020
0020
ENDCHAR
STARTCHAR 1187
ENCODING 4487
SWIDTH 520 0
DWIDTH 15 0
BBX 15 14 0 -2
BITMAP
0000
0000
00c0
0c40
0440
0440
3ff8
0000
0300
0100
0100
3ff8
0000
0000
ENDCHAR
STARTCHAR 1188
ENCODING 4488
SWIDTH 520 0
DWIDTH 15 0
BBX 15 14 0 -2
BITMAP
0000
0000
0060
0020
0320
1920
0920
0920
0920
09e0
7e20
0020
0020
0020
ENDCHAR
STARTCHAR 1189
ENCODING 4489
SWIDTH 520 0
DWIDTH 15 0
BBX 15 14 0 -2
BITMAP
0000
0000
00c0
0040
0040
0040
01c0
7e40
0478
0440
0440
0440
0440
0040
ENDCHAR
STARTCHAR 118A
ENCODING 4490
SWIDTH 520 0
DWIDTH 15 0
BBX 15 14 0 -2
BITMAP
0000
0000
0030
0190
0090
0090
0390
7cf0
0890
0890
0890
0890
0090
0010
ENDCHAR
STARTCHAR 118B
ENCODING 4491
SWIDTH 520 0
DWIDTH 15 0
BBX 15 14 0 -2
BITMAP
0000
0000
0060
0020
0020
01a0
3e20
0420
05e0
0420
0420
0020
3fa0
0020
ENDCHAR
STARTCHAR 118C
ENCODING 4492
SWIDTH 520 0
DWIDTH 15 0
BBX 15 14 0 -2
BITMAP
0000
0000
0030
00d0
0050
0050
0350
7c50
09d0
0850
09d0
0850
0050
0010
ENDCHAR
STARTCHAR 118D
ENCODING 4493
SWIDTH 520 0
DWIDTH 15 0
BBX 15 14 0 -2
BITMAP
0000
0000
0000
0000
3ff8
0100
0100
0100
0000
3ff8
0100
0100
0100
0000
ENDCHAR
STARTCHAR 118E
ENCODING 4494
SWIDTH 520 0
DWIDTH 15 0
BBX 15 14 0 -2
BITMAP
0000
0000
00c0
0040
0040
0040
01c0
3e78
0a40
0a40
0a40
0a40
0a40
0040
ENDCHAR
STARTCHAR 118F
ENCODING 4495
SWIDTH 520 0
DWIDTH 15 0
BBX 15 14 0 -2
BITMAP
0000
0000
0060
0020
0020
01a0
3e20
0a20
0ae0
0a20
0a20
0a20
0020
0020
ENDCHAR
STARTCHAR 1190
ENCODING 4496
SWIDTH 520 0
DWIDTH 15 0
BBX 15 14 0 -2
BITMAP
0000
0000
0030
00d0
0050
0350
7c50
1450
15d0
1450
1450
1450
0050
0010
ENDCHAR
STARTCHAR 1191
ENCODING 4497
SWIDTH 520 0
DWIDTH 15 0
BBX 15 14 0 -2
BITMAP
0000
0000
0060
0020
0020
01a0
3e20
0ae0
0a20
0ae0
0a20
0a20
0020
0020
ENDCHAR
STARTCHAR 1192
ENCODING 4498
SWIDTH 520 0
DWIDTH 15 0
BBX 15 14 0 -2
BITMAP
0000
0000
0030
00d0
0050
0350
7c50
15d0
1450
15d0
1450
1450
0050
0010
ENDCHAR
STARTCHAR 1193
ENCODING 4499
SWIDTH 520 0
DWIDTH 15 0
BBX 15 14 0 -2
BITMAP
0000
0000
0000
3ff8
0440
0440
0440
0440
0000
3ff8
0100
0100
0100
0000
ENDCHAR
STARTCHAR 1194
ENCODING 4500
SWIDTH 520 0
DWIDTH 15 0
BBX 15 14 0 -2
BITMAP
0000
0000
0060
0020
0020
00e0
3f20
0920
0920
0920
0920
0920
0020
0020
ENDCHAR
STARTCHAR 1195
ENCODING 4501
SWIDTH 520 0
DWIDTH 15 0
BBX 15 14 0 -2
BITMAP
0000
0000
0000
0000
0000
3ff8
0000
3ff8
0100
0100
0100
0100
0000
0000
ENDCHAR
STARTCHAR 1196
ENCODING 4502
SWIDTH 520 0
DWIDTH 15 0
BBX 15 14 0 -2
BITMAP
0000
0000
0000
0000
0000
0000
3ff8
0000
3ff8
0000
0000
0000
0000
0000
ENDCHAR
STARTCHAR 1197
ENCODING 4503
SWIDTH 520 0
DWIDTH 15 0
BBX 15 14 0 -2
BITMAP
0000
0000
0060
0020
0020
00e0
3f20
0020
0020
0000
3ff0
0100
0100
0100
ENDCHAR
STARTCHAR 1198
ENCODING 4504
SWIDTH 520 0
DWIDTH 15 0
BBX 15 14 0 -2
BITMAP
0000
0000
0180
0c80
0480
0480
0480
04f0
0480
0480
0480
0480
0480
0080
ENDCHAR
STARTCHAR 1199
ENCODING 4505
SWIDTH 520 0
DWIDTH 15 0
BBX 15 14 0 -2
BITMAP
0000
0000
0180
0c80
0480
04f0
0480
0480
0480
04f0
0480
0480
0480
0080
ENDCHAR
STARTCHAR 119A
ENCODING 4506
SWIDTH 520 0
DWIDTH 15 0
BBX 15 14 0 -2
BITMAP
0000
0000
0060
0020
0020
0020
0020
0320
0120
0120
0100
3ff8
0000
0000
ENDCHAR
STARTCHAR 119B
ENCODING 4507
SWIDTH 520 0
DWIDTH 15 0
BBX 15 14 0 -2
BITMAP
0000
0000
0060
0020
0020
0020
0020
0020
0000
3ff8
0100
0100
0100
0000
ENDCHAR
STARTCHAR 119C
ENCODING 4508
SWIDTH 520 0
DWIDTH 15 0
BBX 15 14 0 -2
BITMAP
0000
0000
0060
0020
0020
0020
0020
0020
0020
0020
0020
0000
3ff8
0000
ENDCHAR
STARTCHAR 119D
ENCODING 4509
SWIDTH 520 0
DWIDTH 15 0
BBX 15 14 0 -2
BITMAP
0000
0000
0300
0100
0100
0100
0100
0100
0100
0100
0000
0200
0180
0080
ENDCHAR
STARTCHAR 119E
ENCODING 4510
SWIDTH 520 0
DWIDTH 15 0
BBX 15 14 0 -2
BITMAP
0000
0000
0000
0000
0000
0000
0000
0200
0180
0080
0000
0000
0000
0000
ENDCHAR
STARTCHAR 119F
ENCODING 4511
SWIDTH 520 0
DWIDTH 15 0
BBX 15 14 0 -2
BITMAP
0000
0000
0060
0020
0020
0020
0020
01e0
0820
0620
0220
0020
0020
0020
ENDCHAR
STARTCHAR 11A0
ENCODING 4512
SWIDTH 520 0
DWIDTH 15 0
BBX 15 14 0 -2
BITMAP
0000
0000
0200
0180
0080
0000
0000
0000
3ff8
0100
0100
0100
0100
0100
ENDCHAR
STARTCHAR 11A1
ENCODING 4513
SWIDTH 520 0
DWIDTH 15 0
BBX 15 14 0 -2
BITMAP
0000
0000
0060
0020
0020
0020
0820
0620
0220
0020
0020
0020
0020
0020
ENDCHAR
STARTCHAR 11A2
ENCODING 4514
SWIDTH 520 0
DWIDTH 15 0
BBX 15 14 0 -2
BITMAP
0000
0000
0000
0000
0000
0000
0000
0880
0660
0220
0000
0000
0000
0000
ENDCHAR
STARTCHAR 11A3
ENCODING 4515
SWIDTH 520 0
DWIDTH 15 0
BBX 15 14 0 -2
BITMAP
0000
0000
0000
0000
0000
0000
0000
0000
0000
0000
0000
0000
0000
0000
ENDCHAR
STARTCHAR 11A4
ENCODING 4516
SWIDTH 520 0
DWIDTH 15 0
BBX 15 14 0 -2
BITMAP
0000
0000
0000
0000
0000
0000
0000
0000
0000
0000
0000
0000
0000
0000
ENDCHAR
STARTCHAR 11A5
ENCODING 4517
SWIDTH 520 0
DWIDTH 15 0
BBX 15 14 0 -2
BITMAP
0000
0000
0000
0000
0000
0000
0000
0000
0000
0000
0000
0000
0000
0000
ENDCHAR
STARTCHAR 11A6
ENCODING 4518
SWIDTH 520 0
DWIDTH 15 0
BBX 15 14 0 -2
BITMAP
0000
0000
0000
0000
0000
0000
0000
0000
0000
0000
0000
0000
0000
0000
ENDCHAR
STARTCHAR 11A7
ENCODING 4519
SWIDTH 520 0
DWIDTH 15 0
BBX 15 14 0 -2
BITMAP
0000
0000
0000
0000
0000
0000
0000
0000
0000
0000
0000
0000
0000
0000
ENDCHAR
STARTCHAR 11A8
ENCODING 4520
SWIDTH 520 0
DWIDTH 15 0
BBX 15 14 0 -2
BITMAP
0000
0000
0000
0000
0000
3ff0
0020
0020
0020
0020
0020
0040
0000
0000
ENDCHAR
STARTCHAR 11A9
ENCODING 4521
SWIDTH 520 0
DWIDTH 15 0
BBX 15 14 0 -2
BITMAP
0000
0000
0000
0000
0000
3ef8
0410
0410
0410
0410
0410
0410
0000
0000
ENDCHAR
STARTCHAR 11AA
ENCODING 4522
SWIDTH 520 0
DWIDTH 15 0
BBX 15 14 0 -2
BITMAP
0000
0000
0000
0000
0000
7e60
0420
0420
0450
0448
0484
0504
0200
0000
ENDCHAR
STARTCHAR 11AB
ENCODING 4523
SWIDTH 520 0
DWIDTH 15 0
BBX 15 14 0 -2
BITMAP
0000
0000
0000
0000
0000
3000
1000
1000
1000
1000
1000
0ff0
0000
0000
ENDCHAR
STARTCHAR 11AC
ENCODING 4524
SWIDTH 520 0
DWIDTH 15 0
BBX 15 14 0 -2
BITMAP
0000
0000
0000
0000
0000
63f0
2040
2040
20a0
20a0
2510
3a10
0000
0000
ENDCHAR
STARTCHAR 11AD
ENCODING 4525
SWIDTH 520 0
DWIDTH 15 0
BBX 15 14 0 -2
BITMAP
0000
0000
0000
0000
00e0
6000
23f8
2000
20e0
2110
2710
38e0
0000
0000
ENDCHAR
STARTCHAR 11AE
ENCODING 4526
SWIDTH 520 0
DWIDTH 15 0
BBX 15 14 0 -2
BITMAP
0000
0000
0000
0000
0000
3ff0
1000
1000
1000
1000
1000
0ff0
0000
0000
ENDCHAR
STARTCHAR 11AF
ENCODING 4527
SWIDTH 520 0
DWIDTH 15 0
BBX 15 14 0 -2
BITMAP
0000
0000
0000
0000
0000
3fe0
0020
0020
3fe0
1000
1000
1000
0ff0
0000
ENDCHAR
STARTCHAR 11B0
ENCODING 4528
SWIDTH 520 0
DWIDTH 15 0
BBX 15 14 0 -2
BITMAP
0000
0000
0000
0000
0000
7df8
0410
0410
7c10
2010
2610
3810
0000
0000
ENDCHAR
STARTCHAR 11B1
ENCODING 4529
SWIDTH 520 0
DWIDTH 15 0
BBX 15 14 0 -2
BITMAP
0000
0000
0000
0000
0000
7df8
0488
0488
7c88
2088
26f8
3880
0000
0000
ENDCHAR
STARTCHAR 11B2
ENCODING 4530
SWIDTH 520 0
DWIDTH 15 0
BBX 15 14 0 -2
BITMAP
0000
0000
0000
0000
0018
7d88
0488
04f8
7c88
2088
26f8
3888
0000
0000
ENDCHAR
STARTCHAR 11B3
ENCODING 4531
SWIDTH 520 0
DWIDTH 15 0
BBX 15 14 0 -2
BITMAP
0000
0000
0000
0000
0060
7c20
0420
0450
7c50
2088
2688
3900
0000
0000
ENDCHAR
STARTCHAR 11B4
ENCODING 4532
SWIDTH 520 0
DWIDTH 15 0
BBX 15 14 0 -2
BITMAP
0000
0000
0000
0000
0000
7df8
0480
0480
7cf8
2080
2680
3878
0000
0000
ENDCHAR
STARTCHAR 11B5
ENCODING 4533
SWIDTH 520 0
DWIDTH 15 0
BBX 15 14 0 -2
BITMAP
0000
0000
0000
0000
0000
7df8
0400
0530
7c90
2090
26a0
39f8
0000
0000
ENDCHAR
STARTCHAR 11B6
ENCODING 4534
SWIDTH 520 0
DWIDTH 15 0
BBX 15 14 0 -2
BITMAP
0000
0000
0000
0000
0070
7c00
05fc
0400
7c70
2088
2688
3870
0000
0000
ENDCHAR
STARTCHAR 11B7
ENCODING 4535
SWIDTH 520 0
DWIDTH 15 0
BBX 15 14 0 -2
BITMAP
0000
0000
0000
0000
0000
3fe0
1020
1020
1020
1020
1fe0
1000
0000
0000
ENDCHAR
STARTCHAR 11B8
ENCODING 4536
SWIDTH 520 0
DWIDTH 15 0
BBX 15 14 0 -2
BITMAP
0000
0000
0000
0000
0060
3020
1020
1fe0
1020
1020
1fe0
1020
0000
0000
ENDCHAR
STARTCHAR 11B9
ENCODING 4537
SWIDTH 520 0
DWIDTH 15 0
BBX 15 14 0 -2
BITMAP
0000
0000
0000
0000
0660
6220
2220
3e50
2250
2288
3f08
2200
0000
0000
ENDCHAR
STARTCHAR 11BA
ENCODING 4538
SWIDTH 520 0
DWIDTH 15 0
BBX 15 14 0 -2
BITMAP
0000
0000
0000
0000
0300
0100
0100
0280
0440
0820
1010
6008
0000
0000
ENDCHAR
STARTCHAR 11BB
ENCODING 4539
SWIDTH 520 0
DWIDTH 15 0
BBX 15 14 0 -2
BITMAP
0000
0000
0000
0000
0cc0
0440
0440
0440
0aa0
1110
6208
0c00
0000
0000
ENDCHAR
STARTCHAR 11BC
ENCODING 4540
SWIDTH 520 0
DWIDTH 15 0
BBX 15 14 0 -2
BITMAP
0000
0000
0000
0000
0000
0380
0440
0820
0820
0820
0440
0380
0000
0000
ENDCHAR
STARTCHAR 11BD
ENCODING 4541
SWIDTH 520 0
DWIDTH 15 0
BBX 15 14 0 -2
BITMAP
0000
0000
0000
0000
0000
1ff0
0100
0100
0280
0440
0820
3010
0000
0000
ENDCHAR
STARTCHAR 11BE
ENCODING 4542
SWIDTH 520 0
DWIDTH 15 0
BBX 15 14 0 -2
BITMAP
0000
0000
0000
0000
07c0
0000
1ff0
0100
0280
0440
0820
3010
0000
0000
ENDCHAR
STARTCHAR 11BF
ENCODING 4543
SWIDTH 520 0
DWIDTH 15 0
BBX 15 14 0 -2
BITMAP
0000
0000
0000
0000
0000
3ff0
0020
0020
01e0
3e20
0020
0020
0000
0000
ENDCHAR
STARTCHAR 11C0
ENCODING 4544
SWIDTH 520 0
DWIDTH 15 0
BBX 15 14 0 -2
BITMAP
0000
0000
0000
0000
0000
3ff0
1000
1000
1ff0
1000
1000
0ff0
0000
0000
ENDCHAR
STARTCHAR 11C1
ENCODING 4545
SWIDTH 520 0
DWIDTH 15 0
BBX 15 14 0 -2
BITMAP
0000
0000
0000
0000
0000
3ff0
0000
08c0
0440
0440
0480
3ff0
0000
0000
ENDCHAR
STARTCHAR 11C2
ENCODING 4546
SWIDTH 520 0
DWIDTH 15 0
BBX 15 14 0 -2
BITMAP
0000
0000
0000
0000
0780
0000
1fe0
0300
0480
0840
0840
0480
0300
0000
ENDCHAR
STARTCHAR 11C3
ENCODING 4547
SWIDTH 520 0
DWIDTH 15 0
BBX 15 14 0 -2
BITMAP
0000
0000
0000
0000
0000
7df0
0810
0810
09f0
0880
0880
08f8
0000
0000
ENDCHAR
STARTCHAR 11C4
ENCODING 4548
SWIDTH 520 0
DWIDTH 15 0
BBX 15 14 0 -2
BITMAP
0000
0000
0000
0000
0000
79bc
0884
0884
0944
0944
0a24
0c24
0000
0000
ENDCHAR
STARTCHAR 11C5
ENCODING 4549
SWIDTH 520 0
DWIDTH 15 0
BBX 15 14 0 -2
BITMAP
0000
0000
0000
0000
0000
33f0
1020
1020
1020
1020
1320
1c20
0000
0000
ENDCHAR
STARTCHAR 11C6
ENCODING 4550
SWIDTH 520 0
DWIDTH 15 0
BBX 15 14 0 -2
BITMAP
0000
0000
0000
0000
0000
61f0
2080
2080
2080
2080
2680
3870
0000
0000
ENDCHAR
STARTCHAR 11C7
ENCODING 4551
SWIDTH 520 0
DWIDTH 15 0
BBX 15 14 0 -2
BITMAP
0000
0000
0000
0000
0060
6020
2020
2050
2050
2088
2688
3908
0000
0000
ENDCHAR
STARTCHAR 11C8
ENCODING 4552
SWIDTH 520 0
DWIDTH 15 0
BBX 15 14 0 -2
BITMAP
0000
0000
0000
0000
00c0
6040
20a0
20a0
2110
2110
2608
3bf8
0000
0000
ENDCHAR
STARTCHAR 11C9
ENCODING 4553
SWIDTH 520 0
DWIDTH 15 0
BBX 15 14 0 -2
BITMAP
0000
0000
0000
0000
0000
61f8
2080
2080
20f8
2080
2680
3878
0000
0000
ENDCHAR
STARTCHAR 11CA
ENCODING 4554
SWIDTH 520 0
DWIDTH 15 0
BBX 15 14 0 -2
BITMAP
0000
0000
0000
0000
0000
7df8
2010
2010
2010
2010
2610
3810
0000
0000
ENDCHAR
STARTCHAR 11CB
ENCODING 4555
SWIDTH 520 0
DWIDTH 15 0
BBX 15 14 0 -2
BITMAP
0000
0000
0000
0000
0000
7df0
2010
2010
21f0
2080
2680
38f8
0000
0000
ENDCHAR
STARTCHAR 11CC
ENCODING 4556
SWIDTH 520 0
DWIDTH 15 0
BBX 15 14 0 -2
BITMAP
0000
0000
0000
0000
0000
7fb0
0910
0910
7928
2128
2544
3984
0000
0000
ENDCHAR
STARTCHAR 11CD
ENCODING 4557
SWIDTH 520 0
DWIDTH 15 0
BBX 15 14 0 -2
BITMAP
0000
0000
0000
0000
0000
7d80
0480
0480
7c80
2080
2680
3878
0000
0000
ENDCHAR
STARTCHAR 11CE
ENCODING 4558
SWIDTH 520 0
DWIDTH 15 0
BBX 15 14 0 -2
BITMAP
0000
0000
0000
0000
0000
7df0
0480
0480
7c80
2080
2680
3878
0000
0000
ENDCHAR
STARTCHAR 11CF
ENCODING 4559
SWIDTH 520 0
DWIDTH 15 0
BBX 15 14 0 -2
BITMAP
0000
0000
0000
0000
0018
7bc0
093c
0900
7918
2124
2524
38d8
0000
0000
ENDCHAR
STARTCHAR 11D0
ENCODING 4560
SWIDTH 520 0
DWIDTH 15 0
BBX 15 14 0 -2
BITMAP
0000
0000
0000
0000
0000
7df0
0410
0410
7df0
2080
2680
38f8
0000
0000
ENDCHAR
STARTCHAR 11D1
ENCODING 4561
SWIDTH 520 0
DWIDTH 15 0
BBX 15 14 0 -2
BITMAP
0000
0000
0000
0000
0000
7ffc
0a48
0a48
7a48
2248
27c8
3a08
0000
0000
ENDCHAR
STARTCHAR 11D2
ENCODING 4562
SWIDTH 520 0
DWIDTH 15 0
BBX 15 14 0 -2
BITMAP
0000
0000
0000
0000
0000
7fb0
0a90
0a90
7aa8
22a8
27c4
3a44
0000
0000
ENDCHAR
STARTCHAR 11D3
ENCODING 4563
SWIDTH 520 0
DWIDTH 15 0
BBX 15 14 0 -2
BITMAP
0000
0000
0000
0000
0000
71b0
1c90
1490
77a8
24a8
2fc4
3484
0000
0000
ENDCHAR
STARTCHAR 11D4
ENCODING 4564
SWIDTH 520 0
DWIDTH 15 0
BBX 15 14 0 -2
BITMAP
0000
0000
0000
0000
0018
7180
1cbc
1480
7798
24a4
2fa4
3498
0000
0000
ENDCHAR
STARTCHAR 11D5
ENCODING 4565
SWIDTH 520 0
DWIDTH 15 0
BBX 15 14 0 -2
BITMAP
0000
0000
0000
0000
0018
7d88
04f8
0488
7cf8
2070
2688
3888
0070
0000
ENDCHAR
STARTCHAR 11D6
ENCODING 4566
SWIDTH 520 0
DWIDTH 15 0
BBX 15 14 0 -2
BITMAP
0000
0000
0000
0000
0000
7b30
0910
0910
7aa8
22a8
26a4
3c44
0000
0000
ENDCHAR
STARTCHAR 11D7
ENCODING 4567
SWIDTH 520 0
DWIDTH 15 0
BBX 15 14 0 -2
BITMAP
0000
0000
0000
0000
0060
7c20
0450
0450
7c88
2088
2704
39fc
0000
0000
ENDCHAR
STARTCHAR 11D8
ENCODING 4568
SWIDTH 520 0
DWIDTH 15 0
BBX 15 14 0 -2
BITMAP
0000
0000
0000
0000
0000
7df8
0410
0430
7dd0
2010
2610
3810
0000
0000
ENDCHAR
STARTCHAR 11D9
ENCODING 4569
SWIDTH 520 0
DWIDTH 15 0
BBX 15 14 0 -2
BITMAP
0000
0000
0000
0000
0000
7dfc
0400
0470
7c88
2088
2688
3870
0000
0000
ENDCHAR
STARTCHAR 11DA
ENCODING 4570
SWIDTH 520 0
DWIDTH 15 0
BBX 15 14 0 -2
BITMAP
0000
0000
0000
0000
0000
7ef8
2210
2210
2210
2210
3e10
2010
0000
0000
ENDCHAR
STARTCHAR 11DB
ENCODING 4571
SWIDTH 520 0
DWIDTH 15 0
BBX 15 14 0 -2
BITMAP
0000
0000
0000
0000
0000
7ef8
2208
2208
22f8
2240
3e40
207c
0000
0000
ENDCHAR
STARTCHAR 11DC
ENCODING 4572
SWIDTH 520 0
DWIDTH 15 0
BBX 15 14 0 -2
BITMAP
0000
0000
0000
0000
000c
7ec4
2244
227c
2244
2244
3e7c
2044
0000
0000
ENDCHAR
STARTCHAR 11DD
ENCODING 4573
SWIDTH 520 0
DWIDTH 15 0
BBX 15 14 0 -2
BITMAP
0000
0000
0000
0000
0060
7e20
2220
2250
2250
2288
3e88
2100
0000
0000
ENDCHAR
STARTCHAR 11DE
ENCODING 4574
SWIDTH 520 0
DWIDTH 15 0
BBX 15 14 0 -2
BITMAP
0000
0000
0000
0000
0000
7b30
4910
4910
4aa8
4aa4
7c44
0880
0000
0000
ENDCHAR
STARTCHAR 11DF
ENCODING 4575
SWIDTH 520 0
DWIDTH 15 0
BBX 15 14 0 -2
BITMAP
0000
0000
0000
0000
0060
7e20
2250
2250
2288
2288
3f04
21fc
0000
0000
ENDCHAR
STARTCHAR 11E0
ENCODING 4576
SWIDTH 520 0
DWIDTH 15 0
BBX 15 14 0 -2
BITMAP
0000
0000
0000
0000
0070
7e00
22f8
2220
2220
2250
3e88
2308
0000
0000
ENDCHAR
STARTCHAR 11E1
ENCODING 4577
SWIDTH 520 0
DWIDTH 15 0
BBX 15 14 0 -2
BITMAP
0000
0000
0000
0000
0070
7e00
23fc
2200
2270
2288
3e88
2070
0000
0000
ENDCHAR
STARTCHAR 11E2
ENCODING 4578
SWIDTH 520 0
DWIDTH 15 0
BBX 15 14 0 -2
BITMAP
0000
0000
0000
1fc0
0840
0840
0fc0
0000
0780
0840
0840
0840
0780
0000
ENDCHAR
STARTCHAR 11E3
ENCODING 4579
SWIDTH 520 0
DWIDTH 15 0
BBX 15 14 0 -2
BITMAP
0000
0000
0000
0000
0600
62f8
2208
3e08
22f8
2240
3e40
227c
0000
0000
ENDCHAR
STARTCHAR 11E4
ENCODING 4580
SWIDTH 520 0
DWIDTH 15 0
BBX 15 14 0 -2
BITMAP
0000
0000
0000
0000
0600
62fc
2200
3e98
2248
2248
3e50
22fc
0000
0000
ENDCHAR
STARTCHAR 11E5
ENCODING 4581
SWIDTH 520 0
DWIDTH 15 0
BBX 15 14 0 -2
BITMAP
0000
0000
0000
0000
0670
6200
23fc
3e00
2270
2288
3e88
2270
0000
0000
ENDCHAR
STARTCHAR 11E6
ENCODING 4582
SWIDTH 520 0
DWIDTH 15 0
BBX 15 14 0 -2
BITMAP
0000
0000
00c0
1840
0fc0
0840
0fc0
0840
0000
0780
0840
0840
0780
0000
ENDCHAR
STARTCHAR 11E7
ENCODING 4583
SWIDTH 520 0
DWIDTH 15 0
BBX 15 14 0 -2
BITMAP
0000
0000
0000
0000
1800
09f8
0810
1410
1210
2110
4110
0010
0000
0000
ENDCHAR
STARTCHAR 11E8
ENCODING 4584
SWIDTH 520 0
DWIDTH 15 0
BBX 15 14 0 -2
BITMAP
0000
0000
0000
0000
1800
09f8
0880
1480
1480
2280
2280
4078
0000
0000
ENDCHAR
STARTCHAR 11E9
ENCODING 4585
SWIDTH 520 0
DWIDTH 15 0
BBX 15 14 0 -2
BITMAP
0000
0000
0000
0000
1800
09f0
0810
1410
15f0
2280
2280
40f8
0000
0000
ENDCHAR
STARTCHAR 11EA
ENCODING 4586
SWIDTH 520 0
DWIDTH 15 0
BBX 15 14 0 -2
BITMAP
0000
0000
0000
0000
1818
0988
0888
14f8
1488
2288
22f8
4088
0000
0000
ENDCHAR
STARTCHAR 11EB
ENCODING 4587
SWIDTH 520 0
DWIDTH 15 0
BBX 15 14 0 -2
BITMAP
0000
0000
0000
0000
0300
0100
0280
0280
0440
0440
0820
0fe0
0000
0000
ENDCHAR
STARTCHAR 11EC
ENCODING 4588
SWIDTH 520 0
DWIDTH 15 0
BBX 15 14 0 -2
BITMAP
0000
0000
0000
0000
0000
1df8
2210
2210
2210
2210
2210
1c10
0000
0000
ENDCHAR
STARTCHAR 11ED
ENCODING 4589
SWIDTH 520 0
DWIDTH 15 0
BBX 15 14 0 -2
BITMAP
0000
0000
0000
0000
0000
3bfc
4488
4488
4488
4488
4488
3888
0000
0000
ENDCHAR
STARTCHAR 11EE
ENCODING 4590
SWIDTH 520 0
DWIDTH 15 0
BBX 15 14 0 -2
BITMAP
0000
0000
0000
0000
0000
1c70
2288
2288
2288
2288
2288
1c70
0000
0000
ENDCHAR
STARTCHAR 11EF
ENCODING 4591
SWIDTH 520 0
DWIDTH 15 0
BBX 15 14 0 -2
BITMAP
0000
0000
0000
0000
0000
39f8
4410
4430
45d0
4410
4410
3810
0000
0000
ENDCHAR
STARTCHAR 11F0
ENCODING 4592
SWIDTH 520 0
DWIDTH 15 0
BBX 15 14 0 -2
BITMAP
0000
0000
0000
0300
0100
0100
0380
0440
0820
0820
0820
0440
0380
0000
ENDCHAR
STARTCHAR 11F1
ENCODING 4593
SWIDTH 520 0
DWIDTH 15 0
BBX 15 14 0 -2
BITMAP
0000
0000
0000
0000
1860
0820
1c20
2250
2250
2288
2288
1d00
0000
0000
ENDCHAR
STARTCHAR 11F2
ENCODING 4594
SWIDTH 520 0
DWIDTH 15 0
BBX 15 14 0 -2
BITMAP
0000
0000
0000
0000
1860
0820
1c50
2250
2288
2288
2304
1dfc
0000
0000
ENDCHAR
STARTCHAR 11F3
ENCODING 4595
SWIDTH 520 0
DWIDTH 15 0
BBX 15 14 0 -2
BITMAP
0000
0000
0000
0000
000c
3ec4
0044
267c
1244
1444
147c
7f44
0000
0000
ENDCHAR
STARTCHAR 11F4
ENCODING 4596
SWIDTH 520 0
DWIDTH 15 0
BBX 15 14 0 -2
BITMAP
0000
0000
1fe0
0080
0840
0440
0480
1fe0
0000
0780
0840
0840
0840
0780
ENDCHAR
STARTCHAR 11F5
ENCODING 4597
SWIDTH 520 0
DWIDTH 15 0
BBX 15 14 0 -2
BITMAP
0000
0000
0000
0000
1c00
00c0
7f40
0040
1c40
2240
2240
1c38
0000
0000
ENDCHAR
STARTCHAR 11F6
ENCODING 4598
SWIDTH 520 0
DWIDTH 15 0
BBX 15 14 0 -2
BITMAP
0000
0000
0000
0000
1c00
00f8
7f08
0008
1cf8
2240
2240
1c7c
0000
0000
ENDCHAR
STARTCHAR 11F7
ENCODING 4599
SWIDTH 520 0
DWIDTH 15 0
BBX 15 14 0 -2
BITMAP
0000
0000
0000
0000
1c00
01f8
7f88
0088
1c88
2288
22f8
1c80
0000
0000
ENDCHAR
STARTCHAR 11F8
ENCODING 4600
SWIDTH 520 0
DWIDTH 15 0
BBX 15 14 0 -2
BITMAP
0000
0000
0000
0000
1c18
0188
7f88
00f8
1c88
2288
22f8
1c88
0000
0000
ENDCHAR
STARTCHAR 11F9
ENCODING 4601
SWIDTH 520 0
DWIDTH 15 0
BBX 15 14 0 -2
BITMAP
0000
0000
0000
0000
3ff0
0000
0000
0780
0840
1020
1020
0840
0780
0000
ENDCHAR
STARTCHAR 11FA
ENCODING 4602
SWIDTH 520 0
DWIDTH 8 0
BBX 8 14 0 -2
BITMAP
00
00
00
00
00
00
00
1e
10
10
10
10
10
10
ENDCHAR
STARTCHAR 11FB
ENCODING 4603
SWIDTH 520 0
DWIDTH 8 0
BBX 8 14 0 -2
BITMAP
00
00
00
00
00
00
00
1e
10
10
10
10
10
10
ENDCHAR
STARTCHAR 11FC
ENCODING 4604
SWIDTH 520 0
DWIDTH 8 0
BBX 8 14 0 -2
BITMAP
00
00
00
00
00
00
00
1e
10
10
10
10
10
10
ENDCHAR
STARTCHAR 11FD
ENCODING 4605
SWIDTH 520 0
DWIDTH 8 0
BBX 8 14 0 -2
BITMAP
00
00
00
00
00
00
00
1e
10
10
10
10
10
10
ENDCHAR
STARTCHAR 11FE
ENCODING 4606
SWIDTH 520 0
DWIDTH 8 0
BBX 8 14 0 -2
BITMAP
00
00
00
00
00
00
00
1e
10
10
10
10
10
10
ENDCHAR
STARTCHAR 11FF
ENCODING 4607
SWIDTH 520 0
DWIDTH 8 0
BBX 8 14 0 -2
BITMAP
00
00
00
00
00
00
00
1e
10
10
10
10
10
10
ENDCHAR
STARTCHAR 3130
ENCODING 12592
SWIDTH 520 0
DWIDTH 8 0
BBX 8 14 0 -2
BITMAP
00
00
00
00
00
00
00
1e
10
10
10
10
10
10
ENDCHAR
STARTCHAR 3131
ENCODING 12593
SWIDTH 520 0
DWIDTH 15 0
BBX 15 14 0 -2
BITMAP
0000
0000
0000
0000
0000
1fc0
0040
0040
0040
0040
0040
0040
0000
0000
ENDCHAR
STARTCHAR 3132
ENCODING 12594
SWIDTH 520 0
DWIDTH 15 0
BBX 15 14 0 -2
BITMAP
0000
0000
0000
0000
0000
3de0
0420
0420
0420
0420
0420
0420
0000
0000
ENDCHAR
STARTCHAR 3133
ENCODING 12595
SWIDTH 520 0
DWIDTH 15 0
BBX 15 14 0 -2
BITMAP
0000
0000
0000
0000
0000
3cc0
0440
0440
04a0
04a0
0510
0608
0000
0000
ENDCHAR
STARTCHAR 3134
ENCODING 12596
SWIDTH 520 0
DWIDTH 15 0
BBX 15 14 0 -2
BITMAP
0000
0000
0000
0000
0000
1800
0800
0800
0800
0800
0800
0fe0
0000
0000
ENDCHAR
STARTCHAR 3135
ENCODING 12597
SWIDTH 520 0
DWIDTH 15 0
BBX 15 14 0 -2
BITMAP
0000
0000
0000
0000
0000
31f0
1020
1020
1040
1060
1090
1f08
0000
0000
ENDCHAR
STARTCHAR 3136
ENCODING 12598
SWIDTH 520 0
DWIDTH 15 0
BBX 15 14 0 -2
BITMAP
0000
0000
0000
0000
0080
3060
1000
11f8
1060
1090
1090
1e90
0060
0000
ENDCHAR
STARTCHAR 3137
ENCODING 12599
SWIDTH 520 0
DWIDTH 15 0
BBX 15 14 0 -2
BITMAP
0000
0000
0000
0000
0000
3fe0
0800
0800
0800
0800
0800
0fe0
0000
0000
ENDCHAR
STARTCHAR 3138
ENCODING 12600
SWIDTH 520 0
DWIDTH 15 0
BBX 15 14 0 -2
BITMAP
0000
0000
0000
0000
0000
3ff0
0880
0880
0880
0880
0880
0ff0
0000
0000
ENDCHAR
STARTCHAR 3139
ENCODING 12601
SWIDTH 520 0
DWIDTH 15 0
BBX 15 14 0 -2
BITMAP
0000
0000
0000
0000
0000
1fe0
0020
0020
1fe0
0800
0800
0fe0
0000
0000
ENDCHAR
STARTCHAR 313A
ENCODING 12602
SWIDTH 520 0
DWIDTH 15 0
BBX 15 14 0 -2
BITMAP
0000
0000
0000
0000
0000
3ff0
0210
0210
3e10
1010
1010
1f10
0000
0000
ENDCHAR
STARTCHAR 313B
ENCODING 12603
SWIDTH 520 0
DWIDTH 15 0
BBX 15 14 0 -2
BITMAP
0000
0000
0000
0000
0000
3ef0
0290
0290
3e90
1090
1090
1ff0
0000
0000
ENDCHAR
STARTCHAR 313C
ENCODING 12604
SWIDTH 520 0
DWIDTH 15 0
BBX 15 14 0 -2
BITMAP
0000
0000
0000
0000
0000
3e30
0390
0290
3ef0
1090
1090
1ff0
0000
0000
ENDCHAR
STARTCHAR 313D
ENCODING 12605
SWIDTH 520 0
DWIDTH 15 0
BBX 15 14 0 -2
BITMAP
0000
0000
0000
0000
0000
3e60
0220
0220
3e50
1050
1088
1f08
0000
0000
ENDCHAR
STARTCHAR 313E
ENCODING 12606
SWIDTH 520 0
DWIDTH 15 0
BBX 15 14 0 -2
BITMAP
0000
0000
0000
0000
0000
3ff0
0280
0280
3ef0
1080
1080
1ff0
0000
0000
ENDCHAR
STARTCHAR 313F
ENCODING 12607
SWIDTH 520 0
DWIDTH 15 0
BBX 15 14 0 -2
BITMAP
0000
0000
0000
0000
0000
3ff8
0210
02d0
3e50
1050
1050
1ff8
0000
0000
ENDCHAR
STARTCHAR 3140
ENCODING 12608
SWIDTH 520 0
DWIDTH 15 0
BBX 15 14 0 -2
BITMAP
0000
0000
0000
0000
0080
3e60
0200
03f8
3e60
1090
1190
1e60
0000
0000
ENDCHAR
STARTCHAR 3141
ENCODING 12609
SWIDTH 520 0
DWIDTH 15 0
BBX 15 14 0 -2
BITMAP
0000
0000
0000
0000
0000
1fe0
0820
0820
0820
0820
0820
0fe0
0000
0000
ENDCHAR
STARTCHAR 3142
ENCODING 12610
SWIDTH 520 0
DWIDTH 15 0
BBX 15 14 0 -2
BITMAP
0000
0000
0000
0000
0060
1820
0820
0fe0
0820
0820
0820
0fe0
0000
0000
ENDCHAR
STARTCHAR 3143
ENCODING 12611
SWIDTH 520 0
DWIDTH 15 0
BBX 15 14 0 -2
BITMAP
0000
0000
0000
0000
0030
0790
3290
1ef0
1290
1290
1290
1ef0
0000
0000
ENDCHAR
STARTCHAR 3144
ENCODING 12612
SWIDTH 520 0
DWIDTH 15 0
BBX 15 14 0 -2
BITMAP
0000
0000
0000
0000
0000
0660
3220
1220
1e50
1250
1288
1f08
0000
0000
ENDCHAR
STARTCHAR 3145
ENCODING 12613
SWIDTH 520 0
DWIDTH 15 0
BBX 15 14 0 -2
BITMAP
0000
0000
0000
0000
0000
0300
0100
0100
0100
0280
0440
1820
0000
0000
ENDCHAR
STARTCHAR 3146
ENCODING 12614
SWIDTH 520 0
DWIDTH 15 0
BBX 15 14 0 -2
BITMAP
0000
0000
0000
0000
0000
0cc0
0440
0440
0a40
11a0
2110
0200
0000
0000
ENDCHAR
STARTCHAR 3147
ENCODING 12615
SWIDTH 520 0
DWIDTH 15 0
BBX 15 14 0 -2
BITMAP
0000
0000
0000
0000
0000
0780
0840
1020
1020
1020
0840
0780
0000
0000
ENDCHAR
STARTCHAR 3148
ENCODING 12616
SWIDTH 520 0
DWIDTH 15 0
BBX 15 14 0 -2
BITMAP
0000
0000
0000
0000
0000
0fe0
0040
0080
0100
0280
0440
1820
0000
0000
ENDCHAR
STARTCHAR 3149
ENCODING 12617
SWIDTH 520 0
DWIDTH 15 0
BBX 15 14 0 -2
BITMAP
0000
0000
0000
0000
0000
1ff0
0220
0420
0640
0960
3090
0308
0000
0000
ENDCHAR
STARTCHAR 314A
ENCODING 12618
SWIDTH 520 0
DWIDTH 15 0
BBX 15 14 0 -2
BITMAP
0000
0000
0000
0400
0380
0000
0fe0
0080
0100
0280
0440
1820
0000
0000
ENDCHAR
STARTCHAR 314B
ENCODING 12619
SWIDTH 520 0
DWIDTH 15 0
BBX 15 14 0 -2
BITMAP
0000
0000
0000
0000
0000
0fe0
0020
0020
1fe0
0020
0040
0040
0080
0000
ENDCHAR
STARTCHAR 314C
ENCODING 12620
SWIDTH 520 0
DWIDTH 15 0
BBX 15 14 0 -2
BITMAP
0000
0000
0000
0000
0000
1fe0
0800
0800
0fe0
0800
0800
0fe0
0000
0000
ENDCHAR
STARTCHAR 314D
ENCODING 12621
SWIDTH 520 0
DWIDTH 15 0
BBX 15 14 0 -2
BITMAP
0000
0000
0000
0000
0000
1fe0
0000
0cc0
0440
0440
0480
1fe0
0000
0000
ENDCHAR
STARTCHAR 314E
ENCODING 12622
SWIDTH 520 0
DWIDTH 15 0
BBX 15 14 0 -2
BITMAP
0000
0000
0000
0400
0380
0000
1ff0
0000
0380
0440
0440
0380
0000
0000
ENDCHAR
STARTCHAR 314F
ENCODING 12623
SWIDTH 520 0
DWIDTH 15 0
BBX 15 14 0 -2
BITMAP
0000
0000
0700
0100
0100
0100
0100
01e0
0100
0100
0100
0100
0100
0100
ENDCHAR
STARTCHAR 3150
ENCODING 12624
SWIDTH 520 0
DWIDTH 15 0
BBX 15 14 0 -2
BITMAP
0000
0000
00c0
0c40
0440
0440
0440
07c0
0440
0440
0440
0440
0440
0040
ENDCHAR
STARTCHAR 3151
ENCODING 12625
SWIDTH 520 0
DWIDTH 15 0
BBX 15 14 0 -2
BITMAP
0000
0000
0700
0100
0100
01e0
0100
0100
0100
01e0
0100
0100
0100
0100
ENDCHAR
STARTCHAR 3152
ENCODING 12626
SWIDTH 520 0
DWIDTH 15 0
BBX 15 14 0 -2
BITMAP
0000
0000
00c0
0c40
0440
0440
07c0
0440
0440
07c0
0440
0440
0440
0040
ENDCHAR
STARTCHAR 3153
ENCODING 12627
SWIDTH 520 0
DWIDTH 15 0
BBX 15 14 0 -2
BITMAP
0000
0000
0380
0080
0080
0080
0080
0f80
0080
0080
0080
0080
0080
0080
ENDCHAR
STARTCHAR 3154
ENCODING 12628
SWIDTH 520 0
DWIDTH 15 0
BBX 15 14 0 -2
BITMAP
0000
0000
00c0
0640
0240
0240
0240
1e40
0240
0240
0240
0240
0240
0040
ENDCHAR
STARTCHAR 3155
ENCODING 12629
SWIDTH 520 0
DWIDTH 15 0
BBX 15 14 0 -2
BITMAP
0000
0000
0380
0080
0080
0080
0f80
0080
0080
0f80
0080
0080
0080
0080
ENDCHAR
STARTCHAR 3156
ENCODING 12630
SWIDTH 520 0
DWIDTH 15 0
BBX 15 14 0 -2
BITMAP
0000
0000
00c0
0640
0240
0240
1e40
0240
0240
1e40
0240
0240
0240
0040
ENDCHAR
STARTCHAR 3157
ENCODING 12631
SWIDTH 520 0
DWIDTH 15 0
BBX 15 14 0 -2
BITMAP
0000
0000
0000
0000
0000
0000
0600
0200
0200
0200
0200
7ff8
0000
0000
ENDCHAR
STARTCHAR 3158
ENCODING 12632
SWIDTH 520 0
DWIDTH 15 0
BBX 15 14 0 -2
BITMAP
0000
0000
00c0
0040
0040
0040
1840
0878
0840
09c0
7e40
0040
0040
0040
ENDCHAR
STARTCHAR 3159
ENCODING 12633
SWIDTH 520 0
DWIDTH 15 0
BBX 15 14 0 -2
BITMAP
0000
0000
0030
0190
0090
0090
1890
08f0
0890
0b90
7c90
0090
0090
0010
ENDCHAR
STARTCHAR 315A
ENCODING 12634
SWIDTH 520 0
DWIDTH 15 0
BBX 15 14 0 -2
BITMAP
0000
0000
00c0
0040
0040
0040
1840
0840
0840
09c0
7e40
0040
0040
0040
ENDCHAR
STARTCHAR 315B
ENCODING 12635
SWIDTH 520 0
DWIDTH 15 0
BBX 15 14 0 -2
BITMAP
0000
0000
0000
0000
0000
0000
00c0
0c40
0440
0440
0440
7ff8
0000
0000
ENDCHAR
STARTCHAR 315C
ENCODING 12636
SWIDTH 520 0
DWIDTH 15 0
BBX 15 14 0 -2
BITMAP
0000
0000
0000
0000
0000
0000
7ff8
0200
0200
0200
0200
0200
0200
0200
ENDCHAR
STARTCHAR 315D
ENCODING 12637
SWIDTH 520 0
DWIDTH 15 0
BBX 15 14 0 -2
BITMAP
0000
0000
0060
0020
0020
0020
01a0
7e20
0820
09e0
0820
0820
0820
0020
ENDCHAR
STARTCHAR 315E
ENCODING 12638
SWIDTH 520 0
DWIDTH 15 0
BBX 15 14 0 -2
BITMAP
0000
0000
0030
0190
0090
0090
0290
7c90
1090
1390
1090
1090
0090
0010
ENDCHAR
STARTCHAR 315F
ENCODING 12639
SWIDTH 520 0
DWIDTH 15 0
BBX 15 14 0 -2
BITMAP
0000
0000
0060
0020
0020
0020
00e0
7f20
0820
0820
0820
0820
0820
0020
ENDCHAR
STARTCHAR 3160
ENCODING 12640
SWIDTH 520 0
DWIDTH 15 0
BBX 15 14 0 -2
BITMAP
0000
0000
0000
0000
0000
0000
7ff8
0840
0840
0840
0840
0840
0840
0840
ENDCHAR
STARTCHAR 3161
ENCODING 12641
SWIDTH 520 0
DWIDTH 15 0
BBX 15 14 0 -2
BITMAP
0000
0000
0000
0000
0000
0000
0000
0000
7ff8
0000
0000
0000
0000
0000
ENDCHAR
STARTCHAR 3162
ENCODING 12642
SWIDTH 520 0
DWIDTH 15 0
BBX 15 14 0 -2
BITMAP
0000
0000
00c0
0040
0040
0040
0040
0040
0040
01c0
7e40
0040
0040
0040
ENDCHAR
STARTCHAR 3163
ENCODING 12643
SWIDTH 520 0
DWIDTH 15 0
BBX 15 14 0 -2
BITMAP
0000
0000
0700
0100
0100
0100
0100
0100
0100
0100
0100
0100
0100
0100
ENDCHAR
STARTCHAR 3164
ENCODING 12644
SWIDTH 520 0
DWIDTH 15 0
BBX 15 14 0 -2
BITMAP
0000
0000
0000
0000
0000
0000
0000
0000
0000
0000
0000
0000
0000
0000
ENDCHAR
STARTCHAR 3165
ENCODING 12645
SWIDTH 520 0
DWIDTH 15 0
BBX 15 14 0 -2
BITMAP
0000
0000
0000
0000
0000
3180
1080
1080
1080
1080
1280
1cf0
0000
0000
ENDCHAR
STARTCHAR 3166
ENCODING 12646
SWIDTH 520 0
DWIDTH 15 0
BBX 15 14 0 -2
BITMAP
0000
0000
0000
0000
0000
31f0
1080
1080
1080
1080
1280
1cf0
0000
0000
ENDCHAR
STARTCHAR 3167
ENCODING 12647
SWIDTH 520 0
DWIDTH 15 0
BBX 15 14 0 -2
BITMAP
0000
0000
0000
0000
0000
30c0
1040
1040
1040
10a0
1110
1e08
0000
0000
ENDCHAR
STARTCHAR 3168
ENCODING 12648
SWIDTH 520 0
DWIDTH 15 0
BBX 15 14 0 -2
BITMAP
0000
0000
0000
0000
0000
30c0
1040
10a0
10a0
1110
1310
1df8
0000
0000
ENDCHAR
STARTCHAR 3169
ENCODING 12649
SWIDTH 520 0
DWIDTH 15 0
BBX 15 14 0 -2
BITMAP
0000
0000
0000
0000
0000
7f30
0910
0910
7928
2128
2144
3d84
0000
0000
ENDCHAR
STARTCHAR 316A
ENCODING 12650
SWIDTH 520 0
DWIDTH 15 0
BBX 15 14 0 -2
BITMAP
0000
0000
0000
0000
0000
3ff0
0280
0280
3e80
1080
1080
1ef0
0000
0000
ENDCHAR
STARTCHAR 316B
ENCODING 12651
SWIDTH 520 0
DWIDTH 15 0
BBX 15 14 0 -2
BITMAP
0000
0000
0000
0000
0000
79b0
0e90
0a90
7ba8
22a8
22c4
3fc4
0000
0000
ENDCHAR
STARTCHAR 316C
ENCODING 12652
SWIDTH 520 0
DWIDTH 15 0
BBX 15 14 0 -2
BITMAP
0000
0000
0000
0000
0000
3cc0
0440
04a0
3ca0
1110
1110
1ff8
0000
0000
ENDCHAR
STARTCHAR 316D
ENCODING 12653
SWIDTH 520 0
DWIDTH 15 0
BBX 15 14 0 -2
BITMAP
0000
0000
0000
0000
0000
3df8
0400
0460
3c90
1090
1090
1e60
0000
0000
ENDCHAR
STARTCHAR 316E
ENCODING 12654
SWIDTH 520 0
DWIDTH 15 0
BBX 15 14 0 -2
BITMAP
0000
0000
0000
0000
0030
7d90
2490
24f0
2490
2490
2490
3cf0
0000
0000
ENDCHAR
STARTCHAR 316F
ENCODING 12655
SWIDTH 520 0
DWIDTH 15 0
BBX 15 14 0 -2
BITMAP
0000
0000
0000
0000
0000
7cc0
2440
2440
24a0
24a0
2510
3e08
0000
0000
ENDCHAR
STARTCHAR 3170
ENCODING 12656
SWIDTH 520 0
DWIDTH 15 0
BBX 15 14 0 -2
BITMAP
0000
0000
0000
0000
0000
7cc0
2440
24a0
24a0
2510
2510
3ff8
0000
0000
ENDCHAR
STARTCHAR 3171
ENCODING 12657
SWIDTH 520 0
DWIDTH 15 0
BBX 15 14 0 -2
BITMAP
0000
0000
0000
0000
1fc0
0840
0840
0fc0
0200
0780
0840
0840
0780
0000
ENDCHAR
STARTCHAR 3172
ENCODING 12658
SWIDTH 520 0
DWIDTH 15 0
BBX 15 14 0 -2
BITMAP
0000
0000
0000
0000
0000
06f0
3210
1210
1e10
1210
1210
1e10
0000
0000
ENDCHAR
STARTCHAR 3173
ENCODING 12659
SWIDTH 520 0
DWIDTH 15 0
BBX 15 14 0 -2
BITMAP
0000
0000
0000
0000
0000
06f8
3240
1240
1e40
1240
1240
1e78
0000
0000
ENDCHAR
STARTCHAR 3174
ENCODING 12660
SWIDTH 520 0
DWIDTH 15 0
BBX 15 14 0 -2
BITMAP
0000
0000
0000
0000
0000
0dbc
6484
2484
3c84
2544
2524
3e24
0000
0000
ENDCHAR
STARTCHAR 3175
ENCODING 12661
SWIDTH 520 0
DWIDTH 15 0
BBX 15 14 0 -2
BITMAP
0000
0000
0000
0000
0000
0dbc
6490
2490
3c90
2550
2550
3e3c
0000
0000
ENDCHAR
STARTCHAR 3176
ENCODING 12662
SWIDTH 520 0
DWIDTH 15 0
BBX 15 14 0 -2
BITMAP
0000
0000
0000
0000
0000
0df0
6440
2440
3c40
24a0
2510
3e08
0000
0000
ENDCHAR
STARTCHAR 3177
ENCODING 12663
SWIDTH 520 0
DWIDTH 15 0
BBX 15 14 0 -2
BITMAP
0000
0000
0000
0000
0000
06f8
3240
1240
1e78
1240
1240
1e78
0000
0000
ENDCHAR
STARTCHAR 3178
ENCODING 12664
SWIDTH 520 0
DWIDTH 15 0
BBX 15 14 0 -2
BITMAP
0000
0000
00c0
1840
0fc0
0840
0840
0fc0
0200
0780
0840
0840
0780
0000
ENDCHAR
STARTCHAR 3179
ENCODING 12665
SWIDTH 520 0
DWIDTH 15 0
BBX 15 14 0 -2
BITMAP
0000
0000
06c0
3240
1fc0
1240
1240
1fc0
0400
0f80
1040
1040
0f80
0000
ENDCHAR
STARTCHAR 317A
ENCODING 12666
SWIDTH 520 0
DWIDTH 15 0
BBX 15 14 0 -2
BITMAP
0000
0000
0000
0000
0000
19f0
0810
0810
0810
1410
2210
4110
0000
0000
ENDCHAR
STARTCHAR 317B
ENCODING 12667
SWIDTH 520 0
DWIDTH 15 0
BBX 15 14 0 -2
BITMAP
0000
0000
0000
0000
0000
1980
0880
0880
0880
1480
2280
41f0
0000
0000
ENDCHAR
STARTCHAR 317C
ENCODING 12668
SWIDTH 520 0
DWIDTH 15 0
BBX 15 14 0 -2
BITMAP
0000
0000
0000
0000
0000
19f0
0880
0880
0880
1480
2280
41f0
0000
0000
ENDCHAR
STARTCHAR 317D
ENCODING 12669
SWIDTH 520 0
DWIDTH 15 0
BBX 15 14 0 -2
BITMAP
0000
0000
0000
0000
0030
1990
0890
08f0
0890
1490
2290
41f0
0000
0000
ENDCHAR
STARTCHAR 317E
ENCODING 12670
SWIDTH 520 0
DWIDTH 15 0
BBX 15 14 0 -2
BITMAP
0000
0000
0000
0000
0000
18f8
0810
0810
0820
1450
2288
4104
0000
0000
ENDCHAR
STARTCHAR 317F
ENCODING 12671
SWIDTH 520 0
DWIDTH 15 0
BBX 15 14 0 -2
BITMAP
0000
0000
0000
0000
0100
0100
0280
0280
0440
0440
0820
0fe0
0000
0000
ENDCHAR
STARTCHAR 3180
ENCODING 12672
SWIDTH 520 0
DWIDTH 15 0
BBX 15 14 0 -2
BITMAP
0000
0000
0000
0000
0820
0820
1c70
2288
2288
2288
2288
1c70
0000
0000
ENDCHAR
STARTCHAR 3181
ENCODING 12673
SWIDTH 520 0
DWIDTH 15 0
BBX 15 14 0 -2
BITMAP
0000
0000
0000
0100
0100
0380
0440
0820
0820
0820
0440
0380
0000
0000
ENDCHAR
STARTCHAR 3182
ENCODING 12674
SWIDTH 520 0
DWIDTH 15 0
BBX 15 14 0 -2
BITMAP
0000
0000
0000
0000
0860
0820
1c20
2220
2250
2250
2288
1d08
0000
0000
ENDCHAR
STARTCHAR 3183
ENCODING 12675
SWIDTH 520 0
DWIDTH 15 0
BBX 15 14 0 -2
BITMAP
0000
0000
0000
0000
0820
0820
1c20
2250
2250
2288
2288
1cf8
0000
0000
ENDCHAR
STARTCHAR 3184
ENCODING 12676
SWIDTH 520 0
DWIDTH 15 0
BBX 15 14 0 -2
BITMAP
0000
0000
0000
1fe0
0080
0c80
0480
1fe0
0200
0780
0840
0840
0780
0000
ENDCHAR
STARTCHAR 3185
ENCODING 12677
SWIDTH 520 0
DWIDTH 15 0
BBX 15 14 0 -2
BITMAP
0000
0000
0000
2080
1860
0000
7ff8
0000
1860
2490
2490
2490
1860
0000
ENDCHAR
STARTCHAR 3186
ENCODING 12678
SWIDTH 520 0
DWIDTH 15 0
BBX 15 14 0 -2
BITMAP
0000
0000
0000
0000
0000
3ff0
0000
0000
0780
0840
0840
0840
0780
0000
ENDCHAR
STARTCHAR 3187
ENCODING 12679
SWIDTH 520 0
DWIDTH 15 0
BBX 15 14 0 -2
BITMAP
0000
0000
00c0
0040
0040
0040
0678
3240
1240
13f8
7e40
0040
0040
0040
ENDCHAR
STARTCHAR 3188
ENCODING 12680
SWIDTH 520 0
DWIDTH 15 0
BBX 15 14 0 -2
BITMAP
0000
0000
0030
0190
0090
0c90
04f0
3490
1490
15f0
7e90
0090
0090
0010
ENDCHAR
STARTCHAR 3189
ENCODING 12681
SWIDTH 520 0
DWIDTH 15 0
BBX 15 14 0 -2
BITMAP
0000
0000
0060
0020
0020
0620
3220
1220
1220
13e0
7c20
0020
0020
0020
ENDCHAR
STARTCHAR 318A
ENCODING 12682
SWIDTH 520 0
DWIDTH 15 0
BBX 15 14 0 -2
BITMAP
0000
0000
0060
0020
0020
0020
03a0
7e20
12e0
1220
12e0
1220
1220
0020
ENDCHAR
STARTCHAR 318B
ENCODING 12683
SWIDTH 520 0
DWIDTH 15 0
BBX 15 14 0 -2
BITMAP
0000
0000
0030
0190
0090
0090
0e90
7890
2b90
2890
2b90
2890
2890
0010
ENDCHAR
STARTCHAR 318C
ENCODING 12684
SWIDTH 520 0
DWIDTH 15 0
BBX 15 14 0 -2
BITMAP
0000
0000
0060
0020
0020
0020
01e0
7e20
1220
1220
1220
1220
1220
0020
ENDCHAR
STARTCHAR 318D
ENCODING 12685
SWIDTH 520 0
DWIDTH 15 0
BBX 15 14 0 -2
BITMAP
0000
0000
0000
0000
0000
0000
0300
0300
0000
0000
0000
0000
0000
0000
ENDCHAR
STARTCHAR 318E
ENCODING 12686
SWIDTH 520 0
DWIDTH 15 0
BBX 15 14 0 -2
BITMAP
0000
0000
0060
0020
0020
0020
0c20
0c20
0020
0020
0020
0020
0020
0020
ENDCHAR
STARTCHAR 318F
ENCODING 12687
SWIDTH 520 0
DWIDTH 8 0
BBX 8 14 0 -2
BITMAP
00
00
00
00
00
00
00
1e
10
10
10
10
10
10
ENDCHAR
STARTCHAR 3190
ENCODING 12688
SWIDTH 520 0
DWIDTH 8 0
BBX 8 14 0 -2
BITMAP
00
00
00
00
00
00
00
1e
10
10
10
10
10
10
ENDCHAR
STARTCHAR 3191
ENCODING 12689
SWIDTH 520 0
DWIDTH 8 0
BBX 8 14 0 -2
BITMAP
00
00
00
00
00
00
00
1e
10
10
10
10
10
10
ENDCHAR
STARTCHAR 3192
ENCODING 12690
SWIDTH 520 0
DWIDTH 15 0
BBX 15 14 0 -2
BITMAP
0000
0000
0000
0200
ff00
0000
0000
0000
0000
0000
0000
0000
0000
0000
ENDCHAR
STARTCHAR 3193
ENCODING 12691
SWIDTH 520 0
DWIDTH 15 0
BBX 15 14 0 -2
BITMAP
0000
0400
7e00
0000
0000
0200
ff00
0000
0000
0000
0000
0000
0000
0000
ENDCHAR
STARTCHAR 3194
ENCODING 12692
SWIDTH 520 0
DWIDTH 15 0
BBX 15 14 0 -2
BITMAP
0000
7e00
0000
3c00
0000
0200
ff00
0000
0000
0000
0000
0000
0000
0000
ENDCHAR
STARTCHAR 3195
ENCODING 12693
SWIDTH 520 0
DWIDTH 15 0
BBX 15 14 0 -2
BITMAP
0000
7f00
5500
5500
6700
4100
7f00
0000
0000
0000
0000
0000
0000
0000
ENDCHAR
STARTCHAR 3196
ENCODING 12694
SWIDTH 520 0
DWIDTH 15 0
BBX 15 14 0 -2
BITMAP
0000
1000
1000
1e00
1000
1200
ff00
0000
0000
0000
0000
0000
0000
0000
ENDCHAR
STARTCHAR 3197
ENCODING 12695
SWIDTH 520 0
DWIDTH 15 0
BBX 15 14 0 -2
BITMAP
0000
0800
7f00
4900
4900
7f00
0800
0800
0000
0000
0000
0000
0000
0000
ENDCHAR
STARTCHAR 3198
ENCODING 12696
SWIDTH 520 0
DWIDTH 15 0
BBX 15 14 0 -2
BITMAP
0000
7f00
0800
0c00
0a00
0800
0800
0800
0000
0000
0000
0000
0000
0000
ENDCHAR
STARTCHAR 3199
ENCODING 12697
SWIDTH 520 0
DWIDTH 15 0
BBX 15 14 0 -2
BITMAP
0000
7e00
5200
7e00
5200
7e00
1000
1000
0000
0000
0000
0000
0000
0000
ENDCHAR
STARTCHAR 319A
ENCODING 12698
SWIDTH 520 0
DWIDTH 15 0
BBX 15 14 0 -2
BITMAP
0000
7c00
0800
1000
2200
4200
7e00
0000
0000
0000
0000
0000
0000
0000
ENDCHAR
STARTCHAR 319B
ENCODING 12699
SWIDTH 520 0
DWIDTH 15 0
BBX 15 14 0 -2
BITMAP
0000
7f00
0800
7f00
4900
5500
6300
4100
0000
0000
0000
0000
0000
0000
ENDCHAR
STARTCHAR 319C
ENCODING 12700
SWIDTH 520 0
DWIDTH 15 0
BBX 15 14 0 -2
BITMAP
0000
7f00
0800
0800
0800
0800
2800
1000
0000
0000
0000
0000
0000
0000
ENDCHAR
STARTCHAR 319D
ENCODING 12701
SWIDTH 520 0
DWIDTH 15 0
BBX 15 14 0 -2
BITMAP
0000
7e00
1000
ff00
1000
2800
4400
8300
0000
0000
0000
0000
0000
0000
ENDCHAR
STARTCHAR 319E
ENCODING 12702
SWIDTH 520 0
DWIDTH 15 0
BBX 15 14 0 -2
BITMAP
0000
4400
f700
5d00
5500
7600
d100
0f00
0000
0000
0000
0000
0000
0000
ENDCHAR
STARTCHAR 319F
ENCODING 12703
SWIDTH 520 0
DWIDTH 15 0
BBX 15 14 0 -2
BITMAP
0000
0800
0800
0800
0800
1400
2200
c100
0000
0000
0000
0000
0000
0000
ENDCHAR
STARTCHAR 3200
ENCODING 12800
SWIDTH 520 0
DWIDTH 15 0
BBX 15 14 0 -2
BITMAP
0000
0000
1010
2008
2008
4fc4
4044
4044
4044
4044
4044
2008
2008
1010
ENDCHAR
STARTCHAR 3201
ENCODING 12801
SWIDTH 520 0
DWIDTH 15 0
BBX 15 14 0 -2
BITMAP
0000
0000
1010
2008
2008
4c04
4404
4404
4404
47e4
4004
2008
2008
1010
ENDCHAR
STARTCHAR 3202
ENCODING 12802
SWIDTH 520 0
DWIDTH 15 0
BBX 15 14 0 -2
BITMAP
0000
0000
1010
2008
2008
4fe4
4404
4404
4404
43e4
4004
2008
2008
1010
ENDCHAR
STARTCHAR 3203
ENCODING 12803
SWIDTH 520 0
DWIDTH 15 0
BBX 15 14 0 -2
BITMAP
0000
0000
1010
2008
2008
4fc4
4044
4fc4
4404
4404
47e4
2008
2008
1010
ENDCHAR
STARTCHAR 3204
ENCODING 12804
SWIDTH 520 0
DWIDTH 15 0
BBX 15 14 0 -2
BITMAP
0000
0000
1010
2008
2008
4fc4
4444
4444
4444
47c4
4004
2008
2008
1010
ENDCHAR
STARTCHAR 3205
ENCODING 12805
SWIDTH 520 0
DWIDTH 15 0
BBX 15 14 0 -2
BITMAP
0000
0000
1010
2008
20c8
4c44
4444
47c4
4444
47c4
4004
2008
2008
1010
ENDCHAR
STARTCHAR 3206
ENCODING 12806
SWIDTH 520 0
DWIDTH 15 0
BBX 15 14 0 -2
BITMAP
0000
0000
1010
2008
2308
4104
4104
4104
4284
4444
4824
2008
2008
1010
ENDCHAR
STARTCHAR 3207
ENCODING 12807
SWIDTH 520 0
DWIDTH 15 0
BBX 15 14 0 -2
BITMAP
0000
0000
1010
2008
2008
4384
4444
4444
4444
4444
4384
2008
2008
1010
ENDCHAR
STARTCHAR 3208
ENCODING 12808
SWIDTH 520 0
DWIDTH 15 0
BBX 15 14 0 -2
BITMAP
0000
0000
1010
2008
2008
47c4
4084
4104
4184
4244
4c24
2008
2008
1010
ENDCHAR
STARTCHAR 3209
ENCODING 12809
SWIDTH 520 0
DWIDTH 15 0
BBX 15 14 0 -2
BITMAP
0000
0000
1010
2208
2188
4004
47c4
4084
4184
4244
4c24
2008
2008
1010
ENDCHAR
STARTCHAR 320A
ENCODING 12810
SWIDTH 520 0
DWIDTH 15 0
BBX 15 14 0 -2
BITMAP
0000
0000
1010
2008
2008
4fc4
4044
4fc4
4044
4084
4084
2008
2008
1010
ENDCHAR
STARTCHAR 320B
ENCODING 12811
SWIDTH 520 0
DWIDTH 15 0
BBX 15 14 0 -2
BITMAP
0000
0000
1010
2008
2008
4fc4
4404
47c4
4404
4404
43c4
2008
2008
1010
ENDCHAR
STARTCHAR 320C
ENCODING 12812
SWIDTH 520 0
DWIDTH 15 0
BBX 15 14 0 -2
BITMAP
0000
0000
1010
2008
2008
4fe4
4484
4284
4284
4fe4
4004
2008
2008
1010
ENDCHAR
STARTCHAR 320D
ENCODING 12813
SWIDTH 520 0
DWIDTH 15 0
BBX 15 14 0 -2
BITMAP
0000
0000
1010
2208
2188
4004
4fe4
4284
4444
4444
4384
2008
2008
1010
ENDCHAR
STARTCHAR 320E
ENCODING 12814
SWIDTH 520 0
DWIDTH 15 0
BBX 15 14 0 -2
BITMAP
0000
0000
1010
20c8
2048
4e44
4244
4274
4444
5844
4044
2048
2008
1010
ENDCHAR
STARTCHAR 320F
ENCODING 12815
SWIDTH 520 0
DWIDTH 15 0
BBX 15 14 0 -2
BITMAP
0000
0000
1010
20c8
2048
5844
4844
4874
4844
4fc4
4044
2048
2008
1010
ENDCHAR
STARTCHAR 3210
ENCODING 12816
SWIDTH 520 0
DWIDTH 15 0
BBX 15 14 0 -2
BITMAP
0000
0000
1010
20c8
2048
5e44
4844
4874
4844
4fc4
4044
2048
2008
1010
ENDCHAR
STARTCHAR 3211
ENCODING 12817
SWIDTH 520 0
DWIDTH 15 0
BBX 15 14 0 -2
BITMAP
0000
0000
1010
20c8
2048
5f44
4144
5f74
4844
4fc4
4044
2048
2008
1010
ENDCHAR
STARTCHAR 3212
ENCODING 12818
SWIDTH 520 0
DWIDTH 15 0
BBX 15 14 0 -2
BITMAP
0000
0000
1010
20c8
2048
5f44
4944
4974
4944
4f44
4044
2048
2008
1010
ENDCHAR
STARTCHAR 3213
ENCODING 12819
SWIDTH 520 0
DWIDTH 15 0
BBX 15 14 0 -2
BITMAP
0000
0000
1010
20c8
2348
5944
4944
4f74
4944
4f44
4044
2048
2008
1010
ENDCHAR
STARTCHAR 3214
ENCODING 12820
SWIDTH 520 0
DWIDTH 15 0
BBX 15 14 0 -2
BITMAP
0000
0000
1010
20c8
2048
4644
4244
4274
4544
58c4
4044
2048
2008
1010
ENDCHAR
STARTCHAR 3215
ENCODING 12821
SWIDTH 520 0
DWIDTH 15 0
BBX 15 14 0 -2
BITMAP
0000
0000
1010
20c8
2048
4644
4944
4974
4944
4644
4044
2048
2008
1010
ENDCHAR
STARTCHAR 3216
ENCODING 12822
SWIDTH 520 0
DWIDTH 15 0
BBX 15 14 0 -2
BITMAP
0000
0000
1010
20c8
2048
4f44
4244
4274
4544
58c4
4044
2048
2008
1010
ENDCHAR
STARTCHAR 3217
ENCODING 12823
SWIDTH 520 0
DWIDTH 15 0
BBX 15 14 0 -2
BITMAP
0000
0000
1010
20c8
2648
4044
4f44
4274
4544
58c4
4044
2048
2008
1010
ENDCHAR
STARTCHAR 3218
ENCODING 12824
SWIDTH 520 0
DWIDTH 15 0
BBX 15 14 0 -2
BITMAP
0000
0000
1010
20c8
2048
4e44
4244
5e74
4444
5844
4044
2048
2008
1010
ENDCHAR
STARTCHAR 3219
ENCODING 12825
SWIDTH 520 0
DWIDTH 15 0
BBX 15 14 0 -2
BITMAP
0000
0000
1010
20c8
2048
5f44
4844
4f74
4844
4fc4
4044
2048
2008
1010
ENDCHAR
STARTCHAR 321A
ENCODING 12826
SWIDTH 520 0
DWIDTH 15 0
BBX 15 14 0 -2
BITMAP
0000
0000
1010
20c8
2048
5f44
4244
5a74
4a44
5fc4
4044
2048
2008
1010
ENDCHAR
STARTCHAR 321B
ENCODING 12827
SWIDTH 520 0
DWIDTH 15 0
BBX 15 14 0 -2
BITMAP
0000
0000
1010
20c8
2648
4044
5f44
4674
4944
4944
4644
2048
2008
1010
ENDCHAR
STARTCHAR 321C
ENCODING 12828
SWIDTH 520 0
DWIDTH 15 0
BBX 15 14 0 -2
BITMAP
0000
1010
2008
2fe8
4084
4344
4c24
4004
5ff4
4104
4104
2108
2108
1010
ENDCHAR
STARTCHAR 321D
ENCODING 12829
SWIDTH 520 0
DWIDTH 8 0
BBX 8 14 0 -2
BITMAP
00
00
00
00
00
00
00
1e
10
10
10
10
10
10
ENDCHAR
STARTCHAR 321E
ENCODING 12830
SWIDTH 520 0
DWIDTH 8 0
BBX 8 14 0 -2
BITMAP
00
00
00
00
00
00
00
1e
10
10
10
10
10
10
ENDCHAR
STARTCHAR 321F
ENCODING 12831
SWIDTH 520 0
DWIDTH 8 0
BBX 8 14 0 -2
BITMAP
00
00
00
00
00
00
00
1e
10
10
10
10
10
10
ENDCHAR
STARTCHAR 3220
ENCODING 12832
SWIDTH 520 0
DWIDTH 15 0
BBX 15 14 0 -2
BITMAP
0000
6008
4008
4004
4004
4004
4014
7ffc
4004
4004
4004
4004
4008
4008
ENDCHAR
STARTCHAR 3221
ENCODING 12833
SWIDTH 520 0
DWIDTH 15 0
BBX 15 14 0 -2
BITMAP
0000
6008
4008
4ff4
4004
4004
4004
4004
4004
4004
4004
401c
5ff8
4008
ENDCHAR
STARTCHAR 3222
ENCODING 12834
SWIDTH 520 0
DWIDTH 15 0
BBX 15 14 0 -2
BITMAP
0000
6008
4028
4ff4
4004
4004
4044
47e4
4004
4004
4004
4014
5ff8
4008
ENDCHAR
STARTCHAR 3223
ENCODING 12835
SWIDTH 520 0
DWIDTH 15 0
BBX 15 14 0 -2
BITMAP
0000
6008
5018
5ff4
5494
5494
5494
54d4
54d4
58f4
5014
5014
5ff8
4008
ENDCHAR
STARTCHAR 3224
ENCODING 12836
SWIDTH 520 0
DWIDTH 15 0
BBX 15 14 0 -2
BITMAP
0000
6008
4018
5ff4
4204
4204
4244
4fe4
4244
4244
4244
4254
3ff8
4008
ENDCHAR
STARTCHAR 3225
ENCODING 12837
SWIDTH 520 0
DWIDTH 15 0
BBX 15 14 0 -2
BITMAP
0000
6008
4108
4104
411c
5ffc
4004
4684
4444
4424
4814
5014
2008
4008
ENDCHAR
STARTCHAR 3226
ENCODING 12838
SWIDTH 520 0
DWIDTH 15 0
BBX 15 14 0 -2
BITMAP
0000
6008
4208
4204
4214
421c
43e4
7e04
4204
4214
4214
4214
43f8
4008
ENDCHAR
STARTCHAR 3227
ENCODING 12839
SWIDTH 520 0
DWIDTH 15 0
BBX 15 14 0 -2
BITMAP
0000
6008
4288
4284
4484
4484
4484
4484
4444
4844
4824
5034
6018
4008
ENDCHAR
STARTCHAR 3228
ENCODING 12840
SWIDTH 520 0
DWIDTH 15 0
BBX 15 14 0 -2
BITMAP
0000
6008
4608
4404
4484
5fc4
4484
4484
4484
4494
4894
5094
6078
4008
ENDCHAR
STARTCHAR 3229
ENCODING 12841
SWIDTH 520 0
DWIDTH 15 0
BBX 15 14 0 -2
BITMAP
0000
6008
4108
4104
4104
4104
4114
7ffc
4104
4104
4104
4104
4108
4108
ENDCHAR
STARTCHAR 322A
ENCODING 12842
SWIDTH 520 0
DWIDTH 15 0
BBX 15 14 0 -2
BITMAP
0000
6008
47e8
4424
4424
47e4
4424
4424
47e4
4424
4824
4824
50e8
4008
ENDCHAR
STARTCHAR 322B
ENCODING 12843
SWIDTH 520 0
DWIDTH 15 0
BBX 15 14 0 -2
BITMAP
0000
6008
4108
4104
4904
4934
4944
5984
4284
4284
4244
4424
4818
7008
ENDCHAR
STARTCHAR 322C
ENCODING 12844
SWIDTH 520 0
DWIDTH 15 0
BBX 15 14 0 -2
BITMAP
0000
6008
4108
4104
4124
5f34
45c4
4584
4944
4924
5114
611c
4308
4208
ENDCHAR
STARTCHAR 322D
ENCODING 12845
SWIDTH 520 0
DWIDTH 15 0
BBX 15 14 0 -2
BITMAP
0000
6008
4108
4104
4114
5ffc
4304
4584
4544
4924
511c
6104
4108
4108
ENDCHAR
STARTCHAR 322E
ENCODING 12846
SWIDTH 520 0
DWIDTH 15 0
BBX 15 14 0 -2
BITMAP
0000
6108
4188
4284
4444
4424
4fdc
7114
4ff4
4944
4564
4584
4138
5ff8
ENDCHAR
STARTCHAR 322F
ENCODING 12847
SWIDTH 520 0
DWIDTH 15 0
BBX 15 14 0 -2
BITMAP
0000
6008
4108
4104
4104
4124
5ff4
4104
4104
4104
4104
4124
5ff8
4008
ENDCHAR
STARTCHAR 3230
ENCODING 12848
SWIDTH 520 0
DWIDTH 15 0
BBX 15 14 0 -2
BITMAP
0000
6008
5008
4fe4
4844
4844
4844
4fc4
4844
4844
4844
4fc4
4808
4008
ENDCHAR
STARTCHAR 3231
ENCODING 12849
SWIDTH 520 0
DWIDTH 15 0
BBX 15 14 0 -2
BITMAP
0000
2020
5890
5290
bbe8
9488
90a8
bbe8
b488
d1c8
92a8
5490
5090
2020
ENDCHAR
STARTCHAR 3232
ENCODING 12850
SWIDTH 520 0
DWIDTH 15 0
BBX 15 14 0 -2
BITMAP
0000
2020
4610
4450
9fe8
8408
8fc8
8c48
97c8
a448
87c8
4450
44d0
2020
ENDCHAR
STARTCHAR 3233
ENCODING 12851
SWIDTH 520 0
DWIDTH 15 0
BBX 15 14 0 -2
BITMAP
0000
6008
4cc8
4884
5e84
44a4
45f4
4884
4e84
7884
4884
4884
4898
53f8
ENDCHAR
STARTCHAR 3234
ENCODING 12852
SWIDTH 520 0
DWIDTH 15 0
BBX 15 14 0 -2
BITMAP
0000
6208
4308
47e4
4444
4a84
5104
6204
47f4
5c24
4424
4424
47e8
4408
ENDCHAR
STARTCHAR 3235
ENCODING 12853
SWIDTH 520 0
DWIDTH 15 0
BBX 15 14 0 -2
BITMAP
0000
6888
5c48
59f4
5e44
5854
6bfc
4a24
5c34
6bfc
48a4
4824
4828
4848
ENDCHAR
STARTCHAR 3236
ENCODING 12854
SWIDTH 520 0
DWIDTH 15 0
BBX 15 14 0 -2
BITMAP
0000
6048
5f28
5224
5234
5efc
5224
5e64
52a4
52a4
5d24
4a24
5168
4008
ENDCHAR
STARTCHAR 3237
ENCODING 12855
SWIDTH 520 0
DWIDTH 15 0
BBX 15 14 0 -2
BITMAP
0000
6808
4a28
4df4
7f14
4914
4914
5df4
6ac4
48c4
4944
4a4c
4c58
5038
ENDCHAR
STARTCHAR 3238
ENCODING 12856
SWIDTH 520 0
DWIDTH 15 0
BBX 15 14 0 -2
BITMAP
0000
6008
4a38
4544
5054
5ffc
5124
4124
5ff4
4224
4224
4224
4ce8
5048
ENDCHAR
STARTCHAR 3239
ENCODING 12857
SWIDTH 520 0
DWIDTH 15 0
BBX 15 14 0 -2
BITMAP
0000
2020
4d10
4950
9108
91e8
b708
d108
9108
9148
9148
50d0
5050
2020
ENDCHAR
STARTCHAR 323A
ENCODING 12858
SWIDTH 520 0
DWIDTH 15 0
BBX 15 14 0 -2
BITMAP
0000
6008
4018
6be4
7c54
6554
6564
6564
6444
7ffc
6844
4044
4048
40c8
ENDCHAR
STARTCHAR 323B
ENCODING 12859
SWIDTH 520 0
DWIDTH 15 0
BBX 15 14 0 -2
BITMAP
0000
6008
4b38
4944
5ffc
6054
4fe4
4084
4114
7ffc
4104
4104
4108
4208
ENDCHAR
STARTCHAR 323C
ENCODING 12860
SWIDTH 520 0
DWIDTH 15 0
BBX 15 14 0 -2
BITMAP
0000
6108
5f88
56f4
5f04
5224
5ef4
5604
5f04
4fe4
4aa4
4aa4
4ab8
5ff8
ENDCHAR
STARTCHAR 323D
ENCODING 12861
SWIDTH 520 0
DWIDTH 15 0
BBX 15 14 0 -2
BITMAP
0000
6008
4108
4284
4484
4444
4934
791c
4524
45f4
4504
4504
4518
5ff8
ENDCHAR
STARTCHAR 323E
ENCODING 12862
SWIDTH 520 0
DWIDTH 15 0
BBX 15 14 0 -2
BITMAP
0000
6008
5708
5bf4
4da4
7944
5234
5ffc
4844
4fc4
4fc4
4fc4
4668
5818
ENDCHAR
STARTCHAR 323F
ENCODING 12863
SWIDTH 520 0
DWIDTH 15 0
BBX 15 14 0 -2
BITMAP
0000
6008
5888
53e4
5934
7d64
56c4
5224
5334
57fc
5354
5554
57b8
5008
ENDCHAR
STARTCHAR 3240
ENCODING 12864
SWIDTH 520 0
DWIDTH 15 0
BBX 15 14 0 -2
BITMAP
0000
6808
4f18
4f74
56a4
6c44
48a4
57dc
6024
5ff4
4524
4914
7118
4208
ENDCHAR
STARTCHAR 3241
ENCODING 12865
SWIDTH 520 0
DWIDTH 15 0
BBX 15 14 0 -2
BITMAP
0000
6008
4cc8
4884
5094
5ffc
50c4
70c4
51a4
5294
548c
5084
5088
5088
ENDCHAR
STARTCHAR 3242
ENCODING 12866
SWIDTH 520 0
DWIDTH 15 0
BBX 15 14 0 -2
BITMAP
0000
6008
4308
5224
4fe4
4824
4824
4fe4
4824
4fe4
4824
4824
4fe8
4828
ENDCHAR
STARTCHAR 3243
ENCODING 12867
SWIDTH 520 0
DWIDTH 15 0
BBX 15 14 0 -2
BITMAP
0000
6008
4028
5ff4
4304
42e4
5f94
5114
4124
4ff4
4104
4104
5ff8
4008
ENDCHAR
STARTCHAR 3244
ENCODING 12868
SWIDTH 520 0
DWIDTH 8 0
BBX 8 14 0 -2
BITMAP
00
00
00
00
00
00
00
1e
10
10
10
10
10
10
ENDCHAR
STARTCHAR 3245
ENCODING 12869
SWIDTH 520 0
DWIDTH 8 0
BBX 8 14 0 -2
BITMAP
00
00
00
00
00
00
00
1e
10
10
10
10
10
10
ENDCHAR
STARTCHAR 3246
ENCODING 12870
SWIDTH 520 0
DWIDTH 8 0
BBX 8 14 0 -2
BITMAP
00
00
00
00
00
00
00
1e
10
10
10
10
10
10
ENDCHAR
STARTCHAR 3247
ENCODING 12871
SWIDTH 520 0
DWIDTH 8 0
BBX 8 14 0 -2
BITMAP
00
00
00
00
00
00
00
1e
10
10
10
10
10
10
ENDCHAR
STARTCHAR 3248
ENCODING 12872
SWIDTH 520 0
DWIDTH 8 0
BBX 8 14 0 -2
BITMAP
00
00
00
00
00
00
00
1e
10
10
10
10
10
10
ENDCHAR
STARTCHAR 3249
ENCODING 12873
SWIDTH 520 0
DWIDTH 8 0
BBX 8 14 0 -2
BITMAP
00
00
00
00
00
00
00
1e
10
10
10
10
10
10
ENDCHAR
STARTCHAR 324A
ENCODING 12874
SWIDTH 520 0
DWIDTH 8 0
BBX 8 14 0 -2
BITMAP
00
00
00
00
00
00
00
1e
10
10
10
10
10
10
ENDCHAR
STARTCHAR 324B
ENCODING 12875
SWIDTH 520 0
DWIDTH 8 0
BBX 8 14 0 -2
BITMAP
00
00
00
00
00
00
00
1e
10
10
10
10
10
10
ENDCHAR
STARTCHAR 324C
ENCODING 12876
SWIDTH 520 0
DWIDTH 8 0
BBX 8 14 0 -2
BITMAP
00
00
00
00
00
00
00
1e
10
10
10
10
10
10
ENDCHAR
STARTCHAR 324D
ENCODING 12877
SWIDTH 520 0
DWIDTH 8 0
BBX 8 14 0 -2
BITMAP
00
00
00
00
00
00
00
1e
10
10
10
10
10
10
ENDCHAR
STARTCHAR 324E
ENCODING 12878
SWIDTH 520 0
DWIDTH 8 0
BBX 8 14 0 -2
BITMAP
00
00
00
00
00
00
00
1e
10
10
10
10
10
10
ENDCHAR
STARTCHAR 324F
ENCODING 12879
SWIDTH 520 0
DWIDTH 8 0
BBX 8 14 0 -2
BITMAP
00
00
00
00
00
00
00
1e
10
10
10
10
10
10
ENDCHAR
STARTCHAR 3250
ENCODING 12880
SWIDTH 520 0
DWIDTH 8 0
BBX 8 14 0 -2
BITMAP
00
00
00
00
00
00
00
1e
10
10
10
10
10
10
ENDCHAR
STARTCHAR 3251
ENCODING 12881
SWIDTH 520 0
DWIDTH 15 0
BBX 15 14 0 -2
BITMAP
0000
0fe0
1010
2c28
52e4
5224
4224
4424
4824
5224
5224
5ef8
2010
1fe0
ENDCHAR
STARTCHAR 3252
ENCODING 12882
SWIDTH 520 0
DWIDTH 15 0
BBX 15 14 0 -2
BITMAP
0000
0fe0
1010
2c68
5294
5294
4214
4424
4844
5294
5294
5ef8
2010
1fe0
ENDCHAR
STARTCHAR 3253
ENCODING 12883
SWIDTH 520 0
DWIDTH 15 0
BBX 15 14 0 -2
BITMAP
0000
0fe0
1010
2c68
5294
5294
4214
4464
4814
5294
5294
5ea8
2050
1fe0
ENDCHAR
STARTCHAR 3254
ENCODING 12884
SWIDTH 520 0
DWIDTH 15 0
BBX 15 14 0 -2
BITMAP
0000
0fe0
1010
2c28
5224
5224
4264
44a4
4924
51f4
5224
5e78
2010
1fe0
ENDCHAR
STARTCHAR 3255
ENCODING 12885
SWIDTH 520 0
DWIDTH 15 0
BBX 15 14 0 -2
BITMAP
0000
0fe0
1010
2c78
5284
5284
42a4
44d4
4814
5294
5294
5ea8
2050
1fe0
ENDCHAR
STARTCHAR 3256
ENCODING 12886
SWIDTH 520 0
DWIDTH 15 0
BBX 15 14 0 -2
BITMAP
0000
0fe0
1010
2c68
5294
5284
4284
44f4
4894
5294
5294
5e68
2010
1fe0
ENDCHAR
STARTCHAR 3257
ENCODING 12887
SWIDTH 520 0
DWIDTH 15 0
BBX 15 14 0 -2
BITMAP
0000
0fe0
1010
2cf8
5314
5324
4224
4424
4844
5244
5244
5e48
2010
1fe0
ENDCHAR
STARTCHAR 3258
ENCODING 12888
SWIDTH 520 0
DWIDTH 15 0
BBX 15 14 0 -2
BITMAP
0000
0fe0
1010
2c68
5294
5294
4264
4464
4894
5294
5294
5e68
2010
1fe0
ENDCHAR
STARTCHAR 3259
ENCODING 12889
SWIDTH 520 0
DWIDTH 15 0
BBX 15 14 0 -2
BITMAP
0000
0fe0
1010
2c68
5294
5294
4294
4494
4874
5214
5294
5ea8
2050
1fe0
ENDCHAR
STARTCHAR 325A
ENCODING 12890
SWIDTH 520 0
DWIDTH 15 0
BBX 15 14 0 -2
BITMAP
0000
0fe0
1010
2c68
52a4
5294
4294
4c94
4294
5294
5294
54a8
2850
1fe0
ENDCHAR
STARTCHAR 325B
ENCODING 12891
SWIDTH 520 0
DWIDTH 15 0
BBX 15 14 0 -2
BITMAP
0000
0fe0
1010
2c28
52e4
5224
4224
4c24
4224
5224
5224
54f8
2810
1fe0
ENDCHAR
STARTCHAR 325C
ENCODING 12892
SWIDTH 520 0
DWIDTH 15 0
BBX 15 14 0 -2
BITMAP
0000
0fe0
1010
2c68
5294
5294
4214
4c24
4244
5294
5294
54f8
2810
1fe0
ENDCHAR
STARTCHAR 325D
ENCODING 12893
SWIDTH 520 0
DWIDTH 15 0
BBX 15 14 0 -2
BITMAP
0000
0fe0
1010
2c68
5294
5294
4214
4c64
4214
5294
5294
54a8
2850
1fe0
ENDCHAR
STARTCHAR 325E
ENCODING 12894
SWIDTH 520 0
DWIDTH 15 0
BBX 15 14 0 -2
BITMAP
0000
0fe0
1010
2c28
5224
5224
4264
4ca4
4324
53f4
5224
5478
2810
1fe0
ENDCHAR
STARTCHAR 325F
ENCODING 12895
SWIDTH 520 0
DWIDTH 15 0
BBX 15 14 0 -2
BITMAP
0000
0fe0
1010
2c78
5284
5284
42a4
4cd4
4214
5294
5294
54a8
2850
1fe0
ENDCHAR
STARTCHAR 3260
ENCODING 12896
SWIDTH 520 0
DWIDTH 15 0
BBX 15 14 0 -2
BITMAP
0000
07c0
0820
1010
2008
4fc4
4044
4044
4044
4044
2048
1010
0820
07c0
ENDCHAR
STARTCHAR 3261
ENCODING 12897
SWIDTH 520 0
DWIDTH 15 0
BBX 15 14 0 -2
BITMAP
0000
07c0
0820
1010
2008
4c04
4404
4404
4404
47e4
2008
1010
0820
07c0
ENDCHAR
STARTCHAR 3262
ENCODING 12898
SWIDTH 520 0
DWIDTH 15 0
BBX 15 14 0 -2
BITMAP
0000
07c0
0820
1010
2008
4fe4
4404
4404
4404
43e4
2008
1010
0820
07c0
ENDCHAR
STARTCHAR 3263
ENCODING 12899
SWIDTH 520 0
DWIDTH 15 0
BBX 15 14 0 -2
BITMAP
0000
07c0
0820
1010
2008
4fc4
4044
4fc4
4404
4404
27e8
1010
0820
07c0
ENDCHAR
STARTCHAR 3264
ENCODING 12900
SWIDTH 520 0
DWIDTH 15 0
BBX 15 14 0 -2
BITMAP
0000
07c0
0820
1010
2008
4fc4
4444
4444
4444
47c4
2008
1010
0820
07c0
ENDCHAR
STARTCHAR 3265
ENCODING 12901
SWIDTH 520 0
DWIDTH 15 0
BBX 15 14 0 -2
BITMAP
0000
07c0
0820
1010
20c8
4c44
4444
47c4
4444
47c4
2008
1010
0820
07c0
ENDCHAR
STARTCHAR 3266
ENCODING 12902
SWIDTH 520 0
DWIDTH 15 0
BBX 15 14 0 -2
BITMAP
0000
07c0
0820
1310
2108
4104
4104
4284
4444
4824
2008
1010
0820
07c0
ENDCHAR
STARTCHAR 3267
ENCODING 12903
SWIDTH 520 0
DWIDTH 15 0
BBX 15 14 0 -2
BITMAP
0000
07c0
0820
1010
2388
4444
4444
4444
4444
4384
2008
1010
0820
07c0
ENDCHAR
STARTCHAR 3268
ENCODING 12904
SWIDTH 520 0
DWIDTH 15 0
BBX 15 14 0 -2
BITMAP
0000
07c0
0820
1010
27c8
4084
4104
4184
4244
4c24
2008
1010
0820
07c0
ENDCHAR
STARTCHAR 3269
ENCODING 12905
SWIDTH 520 0
DWIDTH 15 0
BBX 15 14 0 -2
BITMAP
0000
07c0
0820
1210
2188
4004
47c4
4084
4184
4244
2c28
1010
0820
07c0
ENDCHAR
STARTCHAR 326A
ENCODING 12906
SWIDTH 520 0
DWIDTH 15 0
BBX 15 14 0 -2
BITMAP
0000
07c0
0820
1010
2008
4fc4
4044
4fc4
4044
4084
2088
1010
0820
07c0
ENDCHAR
STARTCHAR 326B
ENCODING 12907
SWIDTH 520 0
DWIDTH 15 0
BBX 15 14 0 -2
BITMAP
0000
07c0
0820
1010
2008
4fc4
4404
47c4
4404
4404
23c8
1010
0820
07c0
ENDCHAR
STARTCHAR 326C
ENCODING 12908
SWIDTH 520 0
DWIDTH 15 0
BBX 15 14 0 -2
BITMAP
0000
07c0
0820
1010
2008
4fe4
4484
4284
4284
4fe4
2008
1010
0820
07c0
ENDCHAR
STARTCHAR 326D
ENCODING 12909
SWIDTH 520 0
DWIDTH 15 0
BBX 15 14 0 -2
BITMAP
0000
07c0
0820
1210
2188
4004
4fe4
4284
4444
4444
2388
1010
0820
07c0
ENDCHAR
STARTCHAR 326E
ENCODING 12910
SWIDTH 520 0
DWIDTH 15 0
BBX 15 14 0 -2
BITMAP
0000
07c0
0820
10d0
2048
4e44
4244
4274
4444
5844
2044
1048
0810
07e0
ENDCHAR
STARTCHAR 326F
ENCODING 12911
SWIDTH 520 0
DWIDTH 15 0
BBX 15 14 0 -2
BITMAP
0000
07c0
0820
10d0
2048
5844
4844
4874
4844
4fc4
2048
1050
0820
07c0
ENDCHAR
STARTCHAR 3270
ENCODING 12912
SWIDTH 520 0
DWIDTH 15 0
BBX 15 14 0 -2
BITMAP
0000
07c0
0820
10d0
2048
5e44
4844
4874
4844
4fc4
2048
1050
0820
07c0
ENDCHAR
STARTCHAR 3271
ENCODING 12913
SWIDTH 520 0
DWIDTH 15 0
BBX 15 14 0 -2
BITMAP
0000
07c0
0820
10d0
2048
5f44
4144
5f74
4844
4fc4
2048
1050
0820
07c0
ENDCHAR
STARTCHAR 3272
ENCODING 12914
SWIDTH 520 0
DWIDTH 15 0
BBX 15 14 0 -2
BITMAP
0000
07c0
0820
10d0
2048
5f44
4944
4974
4944
4f44
2048
1050
0820
07c0
ENDCHAR
STARTCHAR 3273
ENCODING 12915
SWIDTH 520 0
DWIDTH 15 0
BBX 15 14 0 -2
BITMAP
0000
07c0
0820
10d0
2348
5944
4944
4f74
4944
4f44
2048
1050
0820
07c0
ENDCHAR
STARTCHAR 3274
ENCODING 12916
SWIDTH 520 0
DWIDTH 15 0
BBX 15 14 0 -2
BITMAP
0000
07c0
0820
10d0
2048
4644
4244
4274
4544
58c4
2048
1050
0820
07c0
ENDCHAR
STARTCHAR 3275
ENCODING 12917
SWIDTH 520 0
DWIDTH 15 0
BBX 15 14 0 -2
BITMAP
0000
07c0
0820
10d0
2048
4644
4944
4974
4944
4644
2048
1050
0820
07c0
ENDCHAR
STARTCHAR 3276
ENCODING 12918
SWIDTH 520 0
DWIDTH 15 0
BBX 15 14 0 -2
BITMAP
0000
07c0
0820
10d0
2048
4f44
4244
4274
4544
58c4
2048
1050
0820
07c0
ENDCHAR
STARTCHAR 3277
ENCODING 12919
SWIDTH 520 0
DWIDTH 15 0
BBX 15 14 0 -2
BITMAP
0000
07c0
0820
10d0
2648
4044
4f44
4274
4544
58c4
2048
1050
0820
07c0
ENDCHAR
STARTCHAR 3278
ENCODING 12920
SWIDTH 520 0
DWIDTH 15 0
BBX 15 14 0 -2
BITMAP
0000
07c0
0820
10d0
2048
4e44
4244
5e74
4444
5844
2044
1048
0810
07e0
ENDCHAR
STARTCHAR 3279
ENCODING 12921
SWIDTH 520 0
DWIDTH 15 0
BBX 15 14 0 -2
BITMAP
0000
07c0
0820
10d0
2048
5f44
4844
4f74
4844
4fc4
2048
1050
0820
07c0
ENDCHAR
STARTCHAR 327A
ENCODING 12922
SWIDTH 520 0
DWIDTH 15 0
BBX 15 14 0 -2
BITMAP
0000
07c0
0820
10d0
2048
5f44
4244
5a74
4a44
5fc4
2048
1050
0820
07c0
ENDCHAR
STARTCHAR 327B
ENCODING 12923
SWIDTH 520 0
DWIDTH 15 0
BBX 15 14 0 -2
BITMAP
0000
07c0
0820
10d0
2648
4044
5f44
4674
4944
4944
2648
1050
0820
07c0
ENDCHAR
STARTCHAR 327C
ENCODING 12924
SWIDTH 520 0
DWIDTH 8 0
BBX 8 14 0 -2
BITMAP
00
00
00
00
00
00
00
1e
10
10
10
10
10
10
ENDCHAR
STARTCHAR 327D
ENCODING 12925
SWIDTH 520 0
DWIDTH 8 0
BBX 8 14 0 -2
BITMAP
00
00
00
00
00
00
00
1e
10
10
10
10
10
10
ENDCHAR
STARTCHAR 327E
ENCODING 12926
SWIDTH 520 0
DWIDTH 8 0
BBX 8 14 0 -2
BITMAP
00
00
00
00
00
00
00
1e
10
10
10
10
10
10
ENDCHAR
STARTCHAR 327F
ENCODING 12927
SWIDTH 520 0
DWIDTH 15 0
BBX 15 14 0 -2
BITMAP
0000
0780
1860
2010
4008
4d88
4500
7638
0508
4d88
4008
2010
1860
0780
ENDCHAR
STARTCHAR AC00
ENCODING 44032
SWIDTH 520 0
DWIDTH 15 0
BBX 15 14 0 -2
BITMAP
0000
0060
0020
3f20
0120
0220
0220
043c
0820
1020
6020
0020
0020
0020
ENDCHAR
STARTCHAR AC01
ENCODING 44033
SWIDTH 520 0
DWIDTH 15 0
BBX 15 14 0 -2
BITMAP
0000
0060
3e20
0220
0220
043c
0820
1020
6020
0000
1fe0
0020
0020
0020
ENDCHAR
STARTCHAR AC02
ENCODING 44034
SWIDTH 520 0
DWIDTH 15 0
BBX 15 14 0 -2
BITMAP
0000
0060
3e20
0220
0220
043c
0820
1020
6020
0000
1fe0
0220
0220
0220
ENDCHAR
STARTCHAR AC03
ENCODING 44035
SWIDTH 520 0
DWIDTH 15 0
BBX 15 14 0 -2
BITMAP
0000
0060
3e20
0220
0220
043c
0820
1020
6020
0000
3cc0
0440
04a0
0710
ENDCHAR
STARTCHAR AC04
ENCODING 44036
SWIDTH 520 0
DWIDTH 15 0
BBX 15 14 0 -2
BITMAP
0000
0060
3e20
0220
0220
0420
083c
1020
6020
0020
1820
0800
0800
0fe0
ENDCHAR
STARTCHAR AC05
ENCODING 44037
SWIDTH 520 0
DWIDTH 15 0
BBX 15 14 0 -2
BITMAP
0000
0060
3e20
0220
0220
043c
0820
1020
6020
0000
33e0
1080
1140
1e30
ENDCHAR
STARTCHAR AC06
ENCODING 44038
SWIDTH 520 0
DWIDTH 15 0
BBX 15 14 0 -2
BITMAP
0000
0060
3e20
0220
0220
043c
0820
1020
6020
0080
33f0
10c0
1320
1cc0
ENDCHAR
STARTCHAR AC07
ENCODING 44039
SWIDTH 520 0
DWIDTH 15 0
BBX 15 14 0 -2
BITMAP
0000
0060
3e20
0220
0220
043c
0820
1020
6020
0000
1fe0
0800
0800
0fe0
ENDCHAR
STARTCHAR AC08
ENCODING 44040
SWIDTH 520 0
DWIDTH 15 0
BBX 15 14 0 -2
BITMAP
0000
0060
3e20
0220
0220
043c
1820
6020
0000
1fe0
0020
1fe0
0800
0fe0
ENDCHAR
STARTCHAR AC09
ENCODING 44041
SWIDTH 520 0
DWIDTH 15 0
BBX 15 14 0 -2
BITMAP
0000
0060
3e20
0220
0220
043c
0820
1020
6000
3fe0
0220
3e20
1020
1e20
ENDCHAR
STARTCHAR AC0A
ENCODING 44042
SWIDTH 520 0
DWIDTH 15 0
BBX 15 14 0 -2
BITMAP
0000
0060
3e20
0220
0220
043c
0820
1020
6000
3fe0
0520
3d20
1120
1de0
ENDCHAR
STARTCHAR AC0B
ENCODING 44043
SWIDTH 520 0
DWIDTH 15 0
BBX 15 14 0 -2
BITMAP
0000
0060
3e20
0220
0220
043c
0820
1020
6000
3f60
0520
3de0
1120
1fe0
ENDCHAR
STARTCHAR AC0C
ENCODING 44044
SWIDTH 520 0
DWIDTH 15 0
BBX 15 14 0 -2
BITMAP
0000
0060
3e20
0220
0220
043c
0820
1020
6000
3cc0
0440
3c40
10a0
1f10
ENDCHAR
STARTCHAR AC0D
ENCODING 44045
SWIDTH 520 0
DWIDTH 15 0
BBX 15 14 0 -2
BITMAP
0000
0060
3e20
0220
0220
043c
0820
1020
6000
3fe0
0500
3de0
1100
1ee0
ENDCHAR
STARTCHAR AC0E
ENCODING 44046
SWIDTH 520 0
DWIDTH 15 0
BBX 15 14 0 -2
BITMAP
0000
0060
3e20
0220
0220
043c
0820
1020
6000
1ff0
02a0
1ea0
08a0
0ff0
ENDCHAR
STARTCHAR AC0F
ENCODING 44047
SWIDTH 520 0
DWIDTH 15 0
BBX 15 14 0 -2
BITMAP
0000
0060
3e20
0220
0220
043c
0820
1020
60c0
3c00
07f0
3cc0
1120
1cc0
ENDCHAR
STARTCHAR AC10
ENCODING 44048
SWIDTH 520 0
DWIDTH 15 0
BBX 15 14 0 -2
BITMAP
0000
0060
3e20
0220
0220
043c
0820
1020
6020
0000
1fe0
0820
0820
0fe0
ENDCHAR
STARTCHAR AC11
ENCODING 44049
SWIDTH 520 0
DWIDTH 15 0
BBX 15 14 0 -2
BITMAP
0000
0060
3e20
0220
0220
043c
0820
1020
6000
1860
0820
0fe0
0820
0fe0
ENDCHAR
STARTCHAR AC12
ENCODING 44050
SWIDTH 520 0
DWIDTH 15 0
BBX 15 14 0 -2
BITMAP
0000
0060
3e20
0220
0220
043c
0820
1020
6000
06c0
3240
1e40
12a0
1f10
ENDCHAR
STARTCHAR AC13
ENCODING 44051
SWIDTH 520 0
DWIDTH 15 0
BBX 15 14 0 -2
BITMAP
0000
0060
3e20
0220
0220
043c
0820
1020
6020
0180
0080
0100
06c0
1830
ENDCHAR
STARTCHAR AC14
ENCODING 44052
SWIDTH 520 0
DWIDTH 15 0
BBX 15 14 0 -2
BITMAP
0000
0060
3e20
0220
0220
043c
0820
1020
6020
0000
0cc0
0440
0aa0
3110
ENDCHAR
STARTCHAR AC15
ENCODING 44053
SWIDTH 520 0
DWIDTH 15 0
BBX 15 14 0 -2
BITMAP
0000
0060
3e20
0220
0220
043c
0820
1020
6020
0000
07c0
0820
0820
07c0
ENDCHAR
STARTCHAR AC16
ENCODING 44054
SWIDTH 520 0
DWIDTH 15 0
BBX 15 14 0 -2
BITMAP
0000
0060
3e20
0220
0220
043c
0820
1020
6020
0000
0fe0
0100
06c0
1830
ENDCHAR
STARTCHAR AC17
ENCODING 44055
SWIDTH 520 0
DWIDTH 15 0
BBX 15 14 0 -2
BITMAP
0000
0060
3e20
0220
0220
043c
0820
1020
6000
0100
1ff0
0100
06c0
1830
ENDCHAR
STARTCHAR AC18
ENCODING 44056
SWIDTH 520 0
DWIDTH 15 0
BBX 15 14 0 -2
BITMAP
0000
0060
3e20
0220
0220
043c
0820
1020
6000
1fe0
0020
1fe0
0020
0020
ENDCHAR
STARTCHAR AC19
ENCODING 44057
SWIDTH 520 0
DWIDTH 15 0
BBX 15 14 0 -2
BITMAP
0000
0060
3e20
0220
0220
043c
0820
1020
6000
1fe0
0800
0fe0
0800
0fe0
ENDCHAR
STARTCHAR AC1A
ENCODING 44058
SWIDTH 520 0
DWIDTH 15 0
BBX 15 14 0 -2
BITMAP
0000
0060
3e20
0220
0220
043c
0820
1020
6020
0000
1ff0
0440
0240
1ff0
ENDCHAR
STARTCHAR AC1B
ENCODING 44059
SWIDTH 520 0
DWIDTH 15 0
BBX 15 14 0 -2
BITMAP
0000
0060
3e20
0220
0220
043c
0820
1020
6020
0100
1ff0
0440
0820
07c0
ENDCHAR
STARTCHAR AC1C
ENCODING 44060
SWIDTH 520 0
DWIDTH 15 0
BBX 15 14 0 -2
BITMAP
0000
0030
0190
3c90
0490
0490
0490
08f0
0890
1090
6090
0090
0090
0010
ENDCHAR
STARTCHAR AC1D
ENCODING 44061
SWIDTH 520 0
DWIDTH 15 0
BBX 15 14 0 -2
BITMAP
0000
0030
0190
3c90
0490
04f0
0890
1090
6010
0000
0ff0
0010
0010
0010
ENDCHAR
STARTCHAR AC1E
ENCODING 44062
SWIDTH 520 0
DWIDTH 15 0
BBX 15 14 0 -2
BITMAP
0000
0030
0190
3c90
0490
04f0
0890
1090
6010
0000
1ef0
0210
0210
0210
ENDCHAR
STARTCHAR AC1F
ENCODING 44063
SWIDTH 520 0
DWIDTH 15 0
BBX 15 14 0 -2
BITMAP
0000
0030
0190
3c90
0490
04f0
0890
1090
6010
0000
1e60
0220
0250
0388
ENDCHAR
STARTCHAR AC20
ENCODING 44064
SWIDTH 520 0
DWIDTH 15 0
BBX 15 14 0 -2
BITMAP
0000
0030
0190
3c90
0490
0490
08f0
1090
6090
0090
1810
0800
0800
0ff0
ENDCHAR
STARTCHAR AC21
ENCODING 44065
SWIDTH 520 0
DWIDTH 15 0
BBX 15 14 0 -2
BITMAP
0000
0030
0190
3c90
0490
04f0
0890
1090
6010
0000
19f0
0840
08a0
0f18
ENDCHAR
STARTCHAR AC22
ENCODING 44066
SWIDTH 520 0
DWIDTH 15 0
BBX 15 14 0 -2
BITMAP
0000
0030
0190
3c90
0490
04f0
0890
1090
6010
0040
19f8
0860
0990
0e60
ENDCHAR
STARTCHAR AC23
ENCODING 44067
SWIDTH 520 0
DWIDTH 15 0
BBX 15 14 0 -2
BITMAP
0000
0030
0190
3c90
0490
04f0
0890
1090
6010
0000
1ff0
0800
0800
0ff0
ENDCHAR
STARTCHAR AC24
ENCODING 44068
SWIDTH 520 0
DWIDTH 15 0
BBX 15 14 0 -2
BITMAP
0000
0030
0190
3c90
0490
04f0
0890
1090
6000
0ff0
0010
0ff0
0400
07f0
ENDCHAR
STARTCHAR AC25
ENCODING 44069
SWIDTH 520 0
DWIDTH 15 0
BBX 15 14 0 -2
BITMAP
0000
0030
0190
3c90
0490
04f0
0890
1090
6000
1ff0
0110
1f10
0810
0f10
ENDCHAR
STARTCHAR AC26
ENCODING 44070
SWIDTH 520 0
DWIDTH 15 0
BBX 15 14 0 -2
BITMAP
0000
0030
0190
3c90
0490
04f0
0890
1090
6000
1ff0
0290
1e90
0890
0ef0
ENDCHAR
STARTCHAR AC27
ENCODING 44071
SWIDTH 520 0
DWIDTH 15 0
BBX 15 14 0 -2
BITMAP
0000
0030
0190
3c90
0490
04f0
0890
1090
6000
1fb0
0290
1ef0
0890
0ff0
ENDCHAR
STARTCHAR AC28
ENCODING 44072
SWIDTH 520 0
DWIDTH 15 0
BBX 15 14 0 -2
BITMAP
0000
0030
0190
3c90
0490
04f0
0890
1090
6000
1e60
0220
1e20
0850
0f88
ENDCHAR
STARTCHAR AC29
ENCODING 44073
SWIDTH 520 0
DWIDTH 15 0
BBX 15 14 0 -2
BITMAP
0000
0030
0190
3c90
0490
04f0
0890
1090
6000
1ff0
0280
1ef0
0880
0f70
ENDCHAR
STARTCHAR AC2A
ENCODING 44074
SWIDTH 520 0
DWIDTH 15 0
BBX 15 14 0 -2
BITMAP
0000
0030
0190
3c90
0490
04f0
0890
1090
6000
1ff0
02a0
1ea0
08a0
0ff0
ENDCHAR
STARTCHAR AC2B
ENCODING 44075
SWIDTH 520 0
DWIDTH 15 0
BBX 15 14 0 -2
BITMAP
0000
0030
0190
3c90
0490
04f0
0890
1090
6000
1e40
03f8
1e60
0890
0e60
ENDCHAR
STARTCHAR AC2C
ENCODING 44076
SWIDTH 520 0
DWIDTH 15 0
BBX 15 14 0 -2
BITMAP
0000
0030
0190
3c90
0490
04f0
0890
1090
6010
0000
0ff0
0410
0410
07f0
ENDCHAR
STARTCHAR AC2D
ENCODING 44077
SWIDTH 520 0
DWIDTH 15 0
BBX 15 14 0 -2
BITMAP
0000
0030
0190
3c90
0490
04f0
0890
1090
6000
0c30
0410
07f0
0410
07f0
ENDCHAR
STARTCHAR AC2E
ENCODING 44078
SWIDTH 520 0
DWIDTH 15 0
BBX 15 14 0 -2
BITMAP
0000
0030
0190
3c90
0490
04f0
0890
1090
6010
06c0
3240
1e40
12a0
1f18
ENDCHAR
STARTCHAR AC2F
ENCODING 44079
SWIDTH 520 0
DWIDTH 15 0
BBX 15 14 0 -2
BITMAP
0000
0030
0190
3c90
0490
04f0
0890
1090
6010
0190
0080
0100
06c0
1830
ENDCHAR
STARTCHAR AC30
ENCODING 44080
SWIDTH 520 0
DWIDTH 15 0
BBX 15 14 0 -2
BITMAP
0000
0030
0190
3c90
0490
04f0
0890
1090
6010
0000
0cc0
0440
0aa0
3110
ENDCHAR
STARTCHAR AC31
ENCODING 44081
SWIDTH 520 0
DWIDTH 15 0
BBX 15 14 0 -2
BITMAP
0000
0030
0190
3c90
0490
04f0
0890
1090
6010
0000
03e0
0410
0410
03e0
ENDCHAR
STARTCHAR AC32
ENCODING 44082
SWIDTH 520 0
DWIDTH 15 0
BBX 15 14 0 -2
BITMAP
0000
0030
0190
3c90
0490
04f0
0890
1090
6010
0000
0ff0
0080
0360
1c18
ENDCHAR
STARTCHAR AC33
ENCODING 44083
SWIDTH 520 0
DWIDTH 15 0
BBX 15 14 0 -2
BITMAP
0000
0030
0190
3c90
0490
04f0
0890
1090
6010
0100
1ff0
0100
06c0
1830
ENDCHAR
STARTCHAR AC34
ENCODING 44084
SWIDTH 520 0
DWIDTH 15 0
BBX 15 14 0 -2
BITMAP
0000
0030
0190
3c90
0490
04f0
0890
1090
6000
0ff0
0010
0ff0
0010
0010
ENDCHAR
STARTCHAR AC35
ENCODING 44085
SWIDTH 520 0
DWIDTH 15 0
BBX 15 14 0 -2
BITMAP
0000
0030
0190
3c90
0490
04f0
0890
1090
6000
0ff0
0400
07f0
0400
07f0
ENDCHAR
STARTCHAR AC36
ENCODING 44086
SWIDTH 520 0
DWIDTH 15 0
BBX 15 14 0 -2
BITMAP
0000
0030
0190
3c90
0490
04f0
0890
1090
6010
0000
0ff0
0440
0240
0ff0
ENDCHAR
STARTCHAR AC37
ENCODING 44087
SWIDTH 520 0
DWIDTH 15 0
BBX 15 14 0 -2
BITMAP
0000
0030
0190
3c90
0490
04f0
0890
1090
6010
0100
1ff0
0440
0820
07c0
ENDCHAR
STARTCHAR AC38
ENCODING 44088
SWIDTH 520 0
DWIDTH 15 0
BBX 15 14 0 -2
BITMAP
0000
0060
0020
3f20
0120
023c
0220
0420
0820
103c
6020
0020
0020
0020
ENDCHAR
STARTCHAR AC39
ENCODING 44089
SWIDTH 520 0
DWIDTH 15 0
BBX 15 14 0 -2
BITMAP
0000
0060
3e20
023c
0220
0420
083c
1020
6020
0000
1fe0
0020
0020
0020
ENDCHAR
STARTCHAR AC3A
ENCODING 44090
SWIDTH 520 0
DWIDTH 15 0
BBX 15 14 0 -2
BITMAP
0000
0060
3e20
023c
0220
0420
083c
1020
6020
0000
1fe0
0220
0220
0220
ENDCHAR
STARTCHAR AC3B
ENCODING 44091
SWIDTH 520 0
DWIDTH 15 0
BBX 15 14 0 -2
BITMAP
0000
0060
3e20
023c
0220
0420
083c
1020
6020
0000
3cc0
0440
04a0
0710
ENDCHAR
STARTCHAR AC3C
ENCODING 44092
SWIDTH 520 0
DWIDTH 15 0
BBX 15 14 0 -2
BITMAP
0000
0060
3e20
0220
023c
0420
0820
103c
6020
0020
1820
0800
0800
0fe0
ENDCHAR
STARTCHAR AC3D
ENCODING 44093
SWIDTH 520 0
DWIDTH 15 0
BBX 15 14 0 -2
BITMAP
0000
0060
3e20
023c
0220
0420
083c
1020
6020
0000
33e0
1080
1140
1e30
ENDCHAR
STARTCHAR AC3E
ENCODING 44094
SWIDTH 520 0
DWIDTH 15 0
BBX 15 14 0 -2
BITMAP
0000
0060
3e20
023c
0220
0420
083c
1020
6020
0080
33f0
10c0
1320
1cc0
ENDCHAR
STARTCHAR AC3F
ENCODING 44095
SWIDTH 520 0
DWIDTH 15 0
BBX 15 14 0 -2
BITMAP
0000
0060
3e20
023c
0220
0420
083c
1020
6020
0000
1fe0
0800
0800
0fe0
ENDCHAR
STARTCHAR AC40
ENCODING 44096
SWIDTH 520 0
DWIDTH 15 0
BBX 15 14 0 -2
BITMAP
0000
0060
3e20
023c
0220
0420
083c
1020
6000
1fe0
0020
1fe0
0800
0fe0
ENDCHAR
STARTCHAR AC41
ENCODING 44097
SWIDTH 520 0
DWIDTH 15 0
BBX 15 14 0 -2
BITMAP
0000
0060
3e20
023c
0220
0420
083c
1020
6000
3fe0
0220
3e20
1020
1e20
ENDCHAR
STARTCHAR AC42
ENCODING 44098
SWIDTH 520 0
DWIDTH 15 0
BBX 15 14 0 -2
BITMAP
0000
0060
3e20
023c
0220
0420
083c
1020
6000
3fe0
0520
3d20
1120
1de0
ENDCHAR
STARTCHAR AC43
ENCODING 44099
SWIDTH 520 0
DWIDTH 15 0
BBX 15 14 0 -2
BITMAP
0000
0060
3e20
023c
0220
0420
083c
1020
6000
3f60
0520
3de0
1120
1fe0
ENDCHAR
STARTCHAR AC44
ENCODING 44100
SWIDTH 520 0
DWIDTH 15 0
BBX 15 14 0 -2
BITMAP
0000
0060
3e20
023c
0220
0420
083c
1020
6000
3cc0
0440
3c40
10a0
1f10
ENDCHAR
STARTCHAR AC45
ENCODING 44101
SWIDTH 520 0
DWIDTH 15 0
BBX 15 14 0 -2
BITMAP
0000
0060
3e20
023c
0220
0420
083c
1020
6000
3fe0
0500
3de0
1100
1ee0
ENDCHAR
STARTCHAR AC46
ENCODING 44102
SWIDTH 520 0
DWIDTH 15 0
BBX 15 14 0 -2
BITMAP
0000
0060
3e20
023c
0220
0420
083c
1020
6000
1ff0
02a0
1ea0
08a0
0ff0
ENDCHAR
STARTCHAR AC47
ENCODING 44103
SWIDTH 520 0
DWIDTH 15 0
BBX 15 14 0 -2
BITMAP
0000
0060
3e20
023c
0220
0420
083c
1020
60c0
3c00
07f0
3cc0
1120
1cc0
ENDCHAR
STARTCHAR AC48
ENCODING 44104
SWIDTH 520 0
DWIDTH 15 0
BBX 15 14 0 -2
BITMAP
0000
0060
3e20
023c
0220
0420
083c
1020
6020
0000
1fe0
0820
0820
0fe0
ENDCHAR
STARTCHAR AC49
ENCODING 44105
SWIDTH 520 0
DWIDTH 15 0
BBX 15 14 0 -2
BITMAP
0000
0060
3e20
023c
0220
0420
083c
1020
6000
1860
0820
0fe0
0820
0fe0
ENDCHAR
STARTCHAR AC4A
ENCODING 44106
SWIDTH 520 0
DWIDTH 15 0
BBX 15 14 0 -2
BITMAP
0000
0060
3e20
023c
0220
0420
083c
1020
6000
06c0
3240
1e40
12a0
1f10
ENDCHAR
STARTCHAR AC4B
ENCODING 44107
SWIDTH 520 0
DWIDTH 15 0
BBX 15 14 0 -2
BITMAP
0000
0060
3e20
023c
0220
0420
083c
1020
6020
0180
0080
0100
06c0
1830
ENDCHAR
STARTCHAR AC4C
ENCODING 44108
SWIDTH 520 0
DWIDTH 15 0
BBX 15 14 0 -2
BITMAP
0000
0060
3e20
023c
0220
0420
083c
1020
6020
0000
0cc0
0440
0aa0
3110
ENDCHAR
STARTCHAR AC4D
ENCODING 44109
SWIDTH 520 0
DWIDTH 15 0
BBX 15 14 0 -2
BITMAP
0000
0060
3e20
023c
0220
0420
083c
1020
6020
0000
07c0
0820
0820
07c0
ENDCHAR
STARTCHAR AC4E
ENCODING 44110
SWIDTH 520 0
DWIDTH 15 0
BBX 15 14 0 -2
BITMAP
0000
0060
3e20
023c
0220
0420
083c
1020
6020
0000
0fe0
0100
06c0
1830
ENDCHAR
STARTCHAR AC4F
ENCODING 44111
SWIDTH 520 0
DWIDTH 15 0
BBX 15 14 0 -2
BITMAP
0000
0060
3e20
023c
0220
0420
083c
1020
6000
0100
1ff0
0100
06c0
1830
ENDCHAR
STARTCHAR AC50
ENCODING 44112
SWIDTH 520 0
DWIDTH 15 0
BBX 15 14 0 -2
BITMAP
0000
0060
3e20
023c
0220
0420
083c
1020
6000
1fe0
0020
1fe0
0020
0020
ENDCHAR
STARTCHAR AC51
ENCODING 44113
SWIDTH 520 0
DWIDTH 15 0
BBX 15 14 0 -2
BITMAP
0000
0060
3e20
023c
0220
0420
083c
1020
6000
1fe0
0800
0fe0
0800
0fe0
ENDCHAR
STARTCHAR AC52
ENCODING 44114
SWIDTH 520 0
DWIDTH 15 0
BBX 15 14 0 -2
BITMAP
0000
0060
3e20
023c
0220
0420
083c
1020
6020
0000
1ff0
0440
0240
1ff0
ENDCHAR
STARTCHAR AC53
ENCODING 44115
SWIDTH 520 0
DWIDTH 15 0
BBX 15 14 0 -2
BITMAP
0000
0060
3e20
023c
0220
0420
083c
1020
6020
0100
1ff0
0440
0820
07c0
ENDCHAR
STARTCHAR AC54
ENCODING 44116
SWIDTH 520 0
DWIDTH 15 0
BBX 15 14 0 -2
BITMAP
0000
0030
0190
3c90
0490
04f0
0490
0890
0890
10f0
6090
0090
0090
0010
ENDCHAR
STARTCHAR AC55
ENCODING 44117
SWIDTH 520 0
DWIDTH 15 0
BBX 15 14 0 -2
BITMAP
0000
0030
0190
3c90
04f0
0490
08f0
1090
6010
0000
0ff0
0010
0010
0010
ENDCHAR
STARTCHAR AC56
ENCODING 44118
SWIDTH 520 0
DWIDTH 15 0
BBX 15 14 0 -2
BITMAP
0000
0030
0190
3c90
04f0
0490
08f0
1090
6010
0000
1ef0
0210
0210
0210
ENDCHAR
STARTCHAR AC57
ENCODING 44119
SWIDTH 520 0
DWIDTH 15 0
BBX 15 14 0 -2
BITMAP
0000
0030
0190
3c90
04f0
0490
08f0
1090
6010
0000
1e60
0220
0250
0388
ENDCHAR
STARTCHAR AC58
ENCODING 44120
SWIDTH 520 0
DWIDTH 15 0
BBX 15 14 0 -2
BITMAP
0000
0030
0190
3c90
04f0
0490
0890
10f0
6090
0090
1810
0800
0800
0ff0
ENDCHAR
STARTCHAR AC59
ENCODING 44121
SWIDTH 520 0
DWIDTH 15 0
BBX 15 14 0 -2
BITMAP
0000
0030
0190
3c90
04f0
0490
08f0
1090
6010
0000
19f0
0840
08a0
0f18
ENDCHAR
STARTCHAR AC5A
ENCODING 44122
SWIDTH 520 0
DWIDTH 15 0
BBX 15 14 0 -2
BITMAP
0000
0030
0190
3c90
04f0
0490
08f0
1090
6010
0040
19f8
0860
0990
0e60
ENDCHAR
STARTCHAR AC5B
ENCODING 44123
SWIDTH 520 0
DWIDTH 15 0
BBX 15 14 0 -2
BITMAP
0000
0030
0190
3c90
04f0
0490
08f0
1090
6010
0000
1ff0
0800
0800
0ff0
ENDCHAR
STARTCHAR AC5C
ENCODING 44124
SWIDTH 520 0
DWIDTH 15 0
BBX 15 14 0 -2
BITMAP
0000
0030
0190
3c90
04f0
0490
08f0
1090
6000
0ff0
0010
0ff0
0400
07f0
ENDCHAR
STARTCHAR AC5D
ENCODING 44125
SWIDTH 520 0
DWIDTH 15 0
BBX 15 14 0 -2
BITMAP
0000
0030
0190
3c90
04f0
0490
08f0
1090
6000
1ff0
0110
1f10
0810
0f10
ENDCHAR
STARTCHAR AC5E
ENCODING 44126
SWIDTH 520 0
DWIDTH 15 0
BBX 15 14 0 -2
BITMAP
0000
0030
0190
3c90
04f0
0490
08f0
1090
6000
1ff0
0290
1e90
0890
0ef0
ENDCHAR
STARTCHAR AC5F
ENCODING 44127
SWIDTH 520 0
DWIDTH 15 0
BBX 15 14 0 -2
BITMAP
0000
0030
0190
3c90
04f0
0490
08f0
1090
6000
1fb0
0290
1ef0
0890
0ff0
ENDCHAR
STARTCHAR AC60
ENCODING 44128
SWIDTH 520 0
DWIDTH 15 0
BBX 15 14 0 -2
BITMAP
0000
0030
0190
3c90
04f0
0490
08f0
1090
6000
1e60
0220
1e20
0850
0f88
ENDCHAR
STARTCHAR AC61
ENCODING 44129
SWIDTH 520 0
DWIDTH 15 0
BBX 15 14 0 -2
BITMAP
0000
0030
0190
3c90
04f0
0490
08f0
1090
6000
1ff0
0280
1ef0
0880
0f70
ENDCHAR
STARTCHAR AC62
ENCODING 44130
SWIDTH 520 0
DWIDTH 15 0
BBX 15 14 0 -2
BITMAP
0000
0030
0190
3c90
04f0
0490
08f0
1090
6000
1ff0
02a0
1ea0
08a0
0ff0
ENDCHAR
STARTCHAR AC63
ENCODING 44131
SWIDTH 520 0
DWIDTH 15 0
BBX 15 14 0 -2
BITMAP
0000
0030
0190
3c90
04f0
0490
08f0
1090
6000
1e40
03f8
1e60
0890
0e60
ENDCHAR
STARTCHAR AC64
ENCODING 44132
SWIDTH 520 0
DWIDTH 15 0
BBX 15 14 0 -2
BITMAP
0000
0030
0190
3c90
04f0
0490
08f0
1090
6010
0000
0ff0
0410
0410
07f0
ENDCHAR
STARTCHAR AC65
ENCODING 44133
SWIDTH 520 0
DWIDTH 15 0
BBX 15 14 0 -2
BITMAP
0000
0030
0190
3c90
04f0
0490
08f0
1090
6000
0c30
0410
07f0
0410
07f0
ENDCHAR
STARTCHAR AC66
ENCODING 44134
SWIDTH 520 0
DWIDTH 15 0
BBX 15 14 0 -2
BITMAP
0000
0030
0190
3c90
04f0
0490
08f0
1090
6010
06c0
3240
1e40
12a0
1f18
ENDCHAR
STARTCHAR AC67
ENCODING 44135
SWIDTH 520 0
DWIDTH 15 0
BBX 15 14 0 -2
BITMAP
0000
0030
0190
3c90
04f0
0490
08f0
1090
6010
0190
0080
0100
06c0
1830
ENDCHAR
STARTCHAR AC68
ENCODING 44136
SWIDTH 520 0
DWIDTH 15 0
BBX 15 14 0 -2
BITMAP
0000
0030
0190
3c90
04f0
0490
08f0
1090
6010
0000
0cc0
0440
0aa0
3110
ENDCHAR
STARTCHAR AC69
ENCODING 44137
SWIDTH 520 0
DWIDTH 15 0
BBX 15 14 0 -2
BITMAP
0000
0030
0190
3c90
04f0
0490
08f0
1090
6010
0000
03e0
0410
0410
03e0
ENDCHAR
STARTCHAR AC6A
ENCODING 44138
SWIDTH 520 0
DWIDTH 15 0
BBX 15 14 0 -2
BITMAP
0000
0030
0190
3c90
04f0
0490
08f0
1090
6010
0000
0ff0
0080
0360
1c18
ENDCHAR
STARTCHAR AC6B
ENCODING 44139
SWIDTH 520 0
DWIDTH 15 0
BBX 15 14 0 -2
BITMAP
0000
0030
0190
3c90
04f0
0490
08f0
1090
6010
0100
1ff0
0100
06c0
1830
ENDCHAR
STARTCHAR AC6C
ENCODING 44140
SWIDTH 520 0
DWIDTH 15 0
BBX 15 14 0 -2
BITMAP
0000
0030
0190
3c90
04f0
0490
08f0
1090
6000
0ff0
0010
0ff0
0010
0010
ENDCHAR
STARTCHAR AC6D
ENCODING 44141
SWIDTH 520 0
DWIDTH 15 0
BBX 15 14 0 -2
BITMAP
0000
0030
0190
3c90
04f0
0490
08f0
1090
6000
0ff0
0400
07f0
0400
07f0
ENDCHAR
STARTCHAR AC6E
ENCODING 44142
SWIDTH 520 0
DWIDTH 15 0
BBX 15 14 0 -2
BITMAP
0000
0030
0190
3c90
04f0
0490
08f0
1090
6010
0000
0ff0
0440
0240
0ff0
ENDCHAR
STARTCHAR AC6F
ENCODING 44143
SWIDTH 520 0
DWIDTH 15 0
BBX 15 14 0 -2
BITMAP
0000
0030
0190
3c90
04f0
0490
08f0
1090
6010
0100
1ff0
0440
0820
07c0
ENDCHAR
STARTCHAR AC70
ENCODING 44144
SWIDTH 520 0
DWIDTH 15 0
BBX 15 14 0 -2
BITMAP
0000
0060
0020
3f20
0120
0220
03e0
0420
0820
1020
6020
0020
0020
0020
ENDCHAR
STARTCHAR AC71
ENCODING 44145
SWIDTH 520 0
DWIDTH 15 0
BBX 15 14 0 -2
BITMAP
0000
0060
3e20
0220
03e0
0420
0820
1020
6020
0000
1fe0
0020
0020
0020
ENDCHAR
STARTCHAR AC72
ENCODING 44146
SWIDTH 520 0
DWIDTH 15 0
BBX 15 14 0 -2
BITMAP
0000
0060
3e20
0220
03e0
0420
0820
1020
6020
0000
1fe0
0220
0220
0220
ENDCHAR
STARTCHAR AC73
ENCODING 44147
SWIDTH 520 0
DWIDTH 15 0
BBX 15 14 0 -2
BITMAP
0000
0060
3e20
0220
03e0
0420
0820
1020
6020
0000
3cc0
0440
04a0
0710
ENDCHAR
STARTCHAR AC74
ENCODING 44148
SWIDTH 520 0
DWIDTH 15 0
BBX 15 14 0 -2
BITMAP
0000
0060
3e20
0220
03e0
0420
0820
1020
6020
0020
1820
0800
0800
0fe0
ENDCHAR
STARTCHAR AC75
ENCODING 44149
SWIDTH 520 0
DWIDTH 15 0
BBX 15 14 0 -2
BITMAP
0000
0060
3e20
0220
03e0
0420
0820
1020
6020
0000
33e0
1080
1140
1e30
ENDCHAR
STARTCHAR AC76
ENCODING 44150
SWIDTH 520 0
DWIDTH 15 0
BBX 15 14 0 -2
BITMAP
0000
0060
3e20
0220
03e0
0420
0820
1020
6020
0080
33f0
10c0
1320
1cc0
ENDCHAR
STARTCHAR AC77
ENCODING 44151
SWIDTH 520 0
DWIDTH 15 0
BBX 15 14 0 -2
BITMAP
0000
0060
3e20
0220
03e0
0420
0820
1020
6020
0000
1fe0
0800
0800
0fe0
ENDCHAR
STARTCHAR AC78
ENCODING 44152
SWIDTH 520 0
DWIDTH 15 0
BBX 15 14 0 -2
BITMAP
0000
0060
3e20
0220
03e0
0420
1820
6020
0000
1fe0
0020
1fe0
0800
0fe0
ENDCHAR
STARTCHAR AC79
ENCODING 44153
SWIDTH 520 0
DWIDTH 15 0
BBX 15 14 0 -2
BITMAP
0000
0060
3e20
0220
03e0
0420
0820
1020
6000
3fe0
0220
3e20
1020
1f20
ENDCHAR
STARTCHAR AC7A
ENCODING 44154
SWIDTH 520 0
DWIDTH 15 0
BBX 15 14 0 -2
BITMAP
0000
0060
3e20
0220
03e0
0420
0820
1020
6000
3fe0
0520
3d20
1120
1de0
ENDCHAR
STARTCHAR AC7B
ENCODING 44155
SWIDTH 520 0
DWIDTH 15 0
BBX 15 14 0 -2
BITMAP
0000
0060
3e20
0220
03e0
0420
0820
1020
6000
3f60
0520
3de0
1120
1fe0
ENDCHAR
STARTCHAR AC7C
ENCODING 44156
SWIDTH 520 0
DWIDTH 15 0
BBX 15 14 0 -2
BITMAP
0000
0060
3e20
0220
03e0
0420
0820
1020
6000
3cc0
0440
3c40
10a0
1f10
ENDCHAR
STARTCHAR AC7D
ENCODING 44157
SWIDTH 520 0
DWIDTH 15 0
BBX 15 14 0 -2
BITMAP
0000
0060
3e20
0220
03e0
0420
0820
1020
6000
3fe0
0500
3de0
1100
1ee0
ENDCHAR
STARTCHAR AC7E
ENCODING 44158
SWIDTH 520 0
DWIDTH 15 0
BBX 15 14 0 -2
BITMAP
0000
0060
3e20
0220
03e0
0420
0820
1020
6000
1ff0
02a0
1ea0
08a0
0ff0
ENDCHAR
STARTCHAR AC7F
ENCODING 44159
SWIDTH 520 0
DWIDTH 15 0
BBX 15 14 0 -2
BITMAP
0000
0060
3e20
0220
03e0
0420
0820
1020
60c0
3c00
07f0
3cc0
1120
1cc0
ENDCHAR
STARTCHAR AC80
ENCODING 44160
SWIDTH 520 0
DWIDTH 15 0
BBX 15 14 0 -2
BITMAP
0000
0060
3e20
0220
03e0
0420
0820
1020
6020
0000
1fe0
0820
0820
0fe0
ENDCHAR
STARTCHAR AC81
ENCODING 44161
SWIDTH 520 0
DWIDTH 15 0
BBX 15 14 0 -2
BITMAP
0000
0060
3e20
0220
03e0
0420
0820
1020
6000
1860
0820
0fe0
0820
0fe0
ENDCHAR
STARTCHAR AC82
ENCODING 44162
SWIDTH 520 0
DWIDTH 15 0
BBX 15 14 0 -2
BITMAP
0000
0060
3e20
0220
03e0
0420
0820
1020
6000
06c0
3240
1e40
12a0
1f10
ENDCHAR
STARTCHAR AC83
ENCODING 44163
SWIDTH 520 0
DWIDTH 15 0
BBX 15 14 0 -2
BITMAP
0000
0060
3e20
0220
03e0
0420
0820
1020
6020
0180
0080
0100
06c0
1830
ENDCHAR
STARTCHAR AC84
ENCODING 44164
SWIDTH 520 0
DWIDTH 15 0
BBX 15 14 0 -2
BITMAP
0000
0060
3e20
0220
03e0
0420
0820
1020
6020
0000
0cc0
0440
0aa0
3110
ENDCHAR
STARTCHAR AC85
ENCODING 44165
SWIDTH 520 0
DWIDTH 15 0
BBX 15 14 0 -2
BITMAP
0000
0060
3e20
0220
03e0
0420
0820
1020
6020
0000
07c0
0820
0820
07c0
ENDCHAR
STARTCHAR AC86
ENCODING 44166
SWIDTH 520 0
DWIDTH 15 0
BBX 15 14 0 -2
BITMAP
0000
0060
3e20
0220
03e0
0420
0820
1020
6020
0000
0fe0
0100
06c0
1830
ENDCHAR
STARTCHAR AC87
ENCODING 44167
SWIDTH 520 0
DWIDTH 15 0
BBX 15 14 0 -2
BITMAP
0000
0060
3e20
0220
03e0
0420
0820
1020
6000
0100
1ff0
0100
06c0
1830
ENDCHAR
STARTCHAR AC88
ENCODING 44168
SWIDTH 520 0
DWIDTH 15 0
BBX 15 14 0 -2
BITMAP
0000
0060
3e20
0220
03e0
0420
0820
1020
6000
1fe0
0020
1fe0
0020
0020
ENDCHAR
STARTCHAR AC89
ENCODING 44169
SWIDTH 520 0
DWIDTH 15 0
BBX 15 14 0 -2
BITMAP
0000
0060
3e20
0220
03e0
0420
0820
1020
6000
1fe0
0800
0fe0
0800
0fe0
ENDCHAR
STARTCHAR AC8A
ENCODING 44170
SWIDTH 520 0
DWIDTH 15 0
BBX 15 14 0 -2
BITMAP
0000
0060
3e20
0220
03e0
0420
0820
1020
6020
0000
1ff0
0440
0240
1ff0
ENDCHAR
STARTCHAR AC8B
ENCODING 44171
SWIDTH 520 0
DWIDTH 15 0
BBX 15 14 0 -2
BITMAP
0000
0060
3e20
0220
03e0
0420
0820
1020
6020
0100
1ff0
0440
0820
07c0
ENDCHAR
STARTCHAR AC8C
ENCODING 44172
SWIDTH 520 0
DWIDTH 15 0
BBX 15 14 0 -2
BITMAP
0000
0030
0190
3c90
0490
0490
0790
0890
0890
1090
6090
0090
0090
0010
ENDCHAR
STARTCHAR AC8D
ENCODING 44173
SWIDTH 520 0
DWIDTH 15 0
BBX 15 14 0 -2
BITMAP
0000
0030
0190
3c90
0490
0790
0890
1090
6010
0000
0ff0
0010
0010
0010
ENDCHAR
STARTCHAR AC8E
ENCODING 44174
SWIDTH 520 0
DWIDTH 15 0
BBX 15 14 0 -2
BITMAP
0000
0030
0190
3c90
0490
0790
0890
1090
6010
0000
1ef0
0210
0210
0210
ENDCHAR
STARTCHAR AC8F
ENCODING 44175
SWIDTH 520 0
DWIDTH 15 0
BBX 15 14 0 -2
BITMAP
0000
0030
0190
3c90
0490
0790
0890
1090
6010
0000
1e60
0220
0250
0388
ENDCHAR
STARTCHAR AC90
ENCODING 44176
SWIDTH 520 0
DWIDTH 15 0
BBX 15 14 0 -2
BITMAP
0000
0030
0190
3c90
0490
0790
0890
1090
6090
0090
1810
0800
0800
0ff0
ENDCHAR
STARTCHAR AC91
ENCODING 44177
SWIDTH 520 0
DWIDTH 15 0
BBX 15 14 0 -2
BITMAP
0000
0030
0190
3c90
0490
0790
0890
1090
6010
0000
19f0
0840
08a0
0f18
ENDCHAR
STARTCHAR AC92
ENCODING 44178
SWIDTH 520 0
DWIDTH 15 0
BBX 15 14 0 -2
BITMAP
0000
0030
0190
3c90
0490
0790
0890
1090
6010
0040
19f8
0860
0990
0e60
ENDCHAR
STARTCHAR AC93
ENCODING 44179
SWIDTH 520 0
DWIDTH 15 0
BBX 15 14 0 -2
BITMAP
0000
0030
0190
3c90
0490
0790
0890
1090
6010
0000
1ff0
0800
0800
0ff0
ENDCHAR
STARTCHAR AC94
ENCODING 44180
SWIDTH 520 0
DWIDTH 15 0
BBX 15 14 0 -2
BITMAP
0000
0030
0190
3c90
0490
0790
0890
1090
6000
0ff0
0010
0ff0
0400
07f0
ENDCHAR
STARTCHAR AC95
ENCODING 44181
SWIDTH 520 0
DWIDTH 15 0
BBX 15 14 0 -2
BITMAP
0000
0030
0190
3c90
0490
0790
0890
1090
6000
1ff0
0110
1f10
0810
0f10
ENDCHAR
STARTCHAR AC96
ENCODING 44182
SWIDTH 520 0
DWIDTH 15 0
BBX 15 14 0 -2
BITMAP
0000
0030
0190
3c90
0490
0790
0890
1090
6000
1ff0
0290
1e90
0890
0ef0
ENDCHAR
STARTCHAR AC97
ENCODING 44183
SWIDTH 520 0
DWIDTH 15 0
BBX 15 14 0 -2
BITMAP
0000
0030
0190
3c90
0490
0790
0890
1090
6000
1fb0
0290
1ef0
0890
0ff0
ENDCHAR
STARTCHAR AC98
ENCODING 44184
SWIDTH 520 0
DWIDTH 15 0
BBX 15 14 0 -2
BITMAP
0000
0030
0190
3c90
0490
0790
0890
1090
6000
1e60
0220
1e20
0850
0f88
ENDCHAR
STARTCHAR AC99
ENCODING 44185
SWIDTH 520 0
DWIDTH 15 0
BBX 15 14 0 -2
BITMAP
0000
0030
0190
3c90
0490
0790
0890
1090
6000
1ff0
0280
1ef0
0880
0f70
ENDCHAR
STARTCHAR AC9A
ENCODING 44186
SWIDTH 520 0
DWIDTH 15 0
BBX 15 14 0 -2
BITMAP
0000
0030
0190
3c90
0490
0790
0890
1090
6000
1ff0
02a0
1ea0
08a0
0ff0
ENDCHAR
STARTCHAR AC9B
ENCODING 44187
SWIDTH 520 0
DWIDTH 15 0
BBX 15 14 0 -2
BITMAP
0000
0030
0190
3c90
0490
0790
0890
1090
6000
1e40
03f8
1e60
0890
0e60
ENDCHAR
STARTCHAR AC9C
ENCODING 44188
SWIDTH 520 0
DWIDTH 15 0
BBX 15 14 0 -2
BITMAP
0000
0030
0190
3c90
0490
0790
0890
1090
6010
0000
0ff0
0410
0410
07f0
ENDCHAR
STARTCHAR AC9D
ENCODING 44189
SWIDTH 520 0
DWIDTH 15 0
BBX 15 14 0 -2
BITMAP
0000
0030
0190
3c90
0490
0790
0890
1090
6000
0c30
0410
07f0
0410
07f0
ENDCHAR
STARTCHAR AC9E
ENCODING 44190
SWIDTH 520 0
DWIDTH 15 0
BBX 15 14 0 -2
BITMAP
0000
0030
0190
3c90
0490
0790
0890
1090
6010
06c0
3240
1e40
12a0
1f18
ENDCHAR
STARTCHAR AC9F
ENCODING 44191
SWIDTH 520 0
DWIDTH 15 0
BBX 15 14 0 -2
BITMAP
0000
0030
0190
3c90
0490
0790
0890
1090
6010
0190
0080
0100
06c0
1830
ENDCHAR
STARTCHAR ACA0
ENCODING 44192
SWIDTH 520 0
DWIDTH 15 0
BBX 15 14 0 -2
BITMAP
0000
0030
0190
3c90
0490
0790
0890
1090
6010
0000
0cc0
0440
0aa0
3110
ENDCHAR
STARTCHAR ACA1
ENCODING 44193
SWIDTH 520 0
DWIDTH 15 0
BBX 15 14 0 -2
BITMAP
0000
0030
0190
3c90
0490
0790
0890
1090
6010
0000
03e0
0410
0410
03e0
ENDCHAR
STARTCHAR ACA2
ENCODING 44194
SWIDTH 520 0
DWIDTH 15 0
BBX 15 14 0 -2
BITMAP
0000
0030
0190
3c90
0490
0790
0890
1090
6010
0000
0ff0
0080
0360
1c18
ENDCHAR
STARTCHAR ACA3
ENCODING 44195
SWIDTH 520 0
DWIDTH 15 0
BBX 15 14 0 -2
BITMAP
0000
0030
0190
3c90
0490
0790
0890
1090
6010
0100
1ff0
0100
06c0
1830
ENDCHAR
STARTCHAR ACA4
ENCODING 44196
SWIDTH 520 0
DWIDTH 15 0
BBX 15 14 0 -2
BITMAP
0000
0030
0190
3c90
0490
0790
0890
1090
6000
0ff0
0010
0ff0
0010
0010
ENDCHAR
STARTCHAR ACA5
ENCODING 44197
SWIDTH 520 0
DWIDTH 15 0
BBX 15 14 0 -2
BITMAP
0000
0030
0190
3c90
0490
0790
0890
1090
6000
0ff0
0400
07f0
0400
07f0
ENDCHAR
STARTCHAR ACA6
ENCODING 44198
SWIDTH 520 0
DWIDTH 15 0
BBX 15 14 0 -2
BITMAP
0000
0030
0190
3c90
0490
0790
0890
1090
6010
0000
0ff0
0440
0240
0ff0
ENDCHAR
STARTCHAR ACA7
ENCODING 44199
SWIDTH 520 0
DWIDTH 15 0
BBX 15 14 0 -2
BITMAP
0000
0030
0190
3c90
0490
0790
0890
1090
6010
0100
1ff0
0440
0820
07c0
ENDCHAR
STARTCHAR ACA8
ENCODING 44200
SWIDTH 520 0
DWIDTH 15 0
BBX 15 14 0 -2
BITMAP
0000
0060
0020
3f20
0120
03e0
0220
0420
0be0
1020
6020
0020
0020
0020
ENDCHAR
STARTCHAR ACA9
ENCODING 44201
SWIDTH 520 0
DWIDTH 15 0
BBX 15 14 0 -2
BITMAP
0000
0060
3e20
03e0
0220
0420
09e0
1020
6020
0000
1fe0
0020
0020
0020
ENDCHAR
STARTCHAR ACAA
ENCODING 44202
SWIDTH 520 0
DWIDTH 15 0
BBX 15 14 0 -2
BITMAP
0000
0060
3e20
03e0
0220
0420
09e0
1020
6020
0000
1fe0
0220
0220
0220
ENDCHAR
STARTCHAR ACAB
ENCODING 44203
SWIDTH 520 0
DWIDTH 15 0
BBX 15 14 0 -2
BITMAP
0000
0060
3e20
03e0
0220
0420
09e0
1020
6020
0000
3cc0
0440
04a0
0710
ENDCHAR
STARTCHAR ACAC
ENCODING 44204
SWIDTH 520 0
DWIDTH 15 0
BBX 15 14 0 -2
BITMAP
0000
0060
3e20
03e0
0220
0420
09e0
1020
6020
0020
1820
0800
0800
0fe0
ENDCHAR
STARTCHAR ACAD
ENCODING 44205
SWIDTH 520 0
DWIDTH 15 0
BBX 15 14 0 -2
BITMAP
0000
0060
3e20
03e0
0220
0420
09e0
1020
6020
0000
33e0
1080
1140
1e30
ENDCHAR
STARTCHAR ACAE
ENCODING 44206
SWIDTH 520 0
DWIDTH 15 0
BBX 15 14 0 -2
BITMAP
0000
0060
3e20
03e0
0220
0420
09e0
1020
6020
0080
33f0
10c0
1320
1cc0
ENDCHAR
STARTCHAR ACAF
ENCODING 44207
SWIDTH 520 0
DWIDTH 15 0
BBX 15 14 0 -2
BITMAP
0000
0060
3e20
03e0
0220
0420
09e0
1020
6020
0000
1fe0
0800
0800
0fe0
ENDCHAR
STARTCHAR ACB0
ENCODING 44208
SWIDTH 520 0
DWIDTH 15 0
BBX 15 14 0 -2
BITMAP
0000
0060
3e20
03e0
0220
0420
09e0
1020
6000
1fe0
0020
1fe0
0800
0fe0
ENDCHAR
STARTCHAR ACB1
ENCODING 44209
SWIDTH 520 0
DWIDTH 15 0
BBX 15 14 0 -2
BITMAP
0000
0060
3e20
03e0
0220
0420
09e0
1020
6000
3fe0
0220
3e20
1020
1f20
ENDCHAR
STARTCHAR ACB2
ENCODING 44210
SWIDTH 520 0
DWIDTH 15 0
BBX 15 14 0 -2
BITMAP
0000
0060
3e20
03e0
0220
0420
09e0
1020
6000
3fe0
0520
3d20
1120
1de0
ENDCHAR
STARTCHAR ACB3
ENCODING 44211
SWIDTH 520 0
DWIDTH 15 0
BBX 15 14 0 -2
BITMAP
0000
0060
3e20
03e0
0220
0420
09e0
1020
6000
3f60
0520
3de0
1120
1fe0
ENDCHAR
STARTCHAR ACB4
ENCODING 44212
SWIDTH 520 0
DWIDTH 15 0
BBX 15 14 0 -2
BITMAP
0000
0060
3e20
03e0
0220
0420
09e0
1020
6000
3cc0
0440
3c40
10a0
1f10
ENDCHAR
STARTCHAR ACB5
ENCODING 44213
SWIDTH 520 0
DWIDTH 15 0
BBX 15 14 0 -2
BITMAP
0000
0060
3e20
03e0
0220
0420
09e0
1020
6000
3fe0
0500
3de0
1100
1ee0
ENDCHAR
STARTCHAR ACB6
ENCODING 44214
SWIDTH 520 0
DWIDTH 15 0
BBX 15 14 0 -2
BITMAP
0000
0060
3e20
03e0
0220
0420
09e0
1020
6000
1ff0
02a0
1ea0
08a0
0ff0
ENDCHAR
STARTCHAR ACB7
ENCODING 44215
SWIDTH 520 0
DWIDTH 15 0
BBX 15 14 0 -2
BITMAP
0000
0060
3e20
03e0
0220
0420
09e0
1020
60c0
3c00
07f0
3cc0
1120
1cc0
ENDCHAR
STARTCHAR ACB8
ENCODING 44216
SWIDTH 520 0
DWIDTH 15 0
BBX 15 14 0 -2
BITMAP
0000
0060
3e20
03e0
0220
0420
09e0
1020
6020
0000
1fe0
0820
0820
0fe0
ENDCHAR
STARTCHAR ACB9
ENCODING 44217
SWIDTH 520 0
DWIDTH 15 0
BBX 15 14 0 -2
BITMAP
0000
0060
3e20
03e0
0220
0420
09e0
1020
6000
1860
0820
0fe0
0820
0fe0
ENDCHAR
STARTCHAR ACBA
ENCODING 44218
SWIDTH 520 0
DWIDTH 15 0
BBX 15 14 0 -2
BITMAP
0000
0060
3e20
03e0
0220
0420
09e0
1020
6000
06c0
3240
1e40
12a0
1f10
ENDCHAR
STARTCHAR ACBB
ENCODING 44219
SWIDTH 520 0
DWIDTH 15 0
BBX 15 14 0 -2
BITMAP
0000
0060
3e20
03e0
0220
0420
09e0
1020
6020
0180
0080
0100
06c0
1830
ENDCHAR
STARTCHAR ACBC
ENCODING 44220
SWIDTH 520 0
DWIDTH 15 0
BBX 15 14 0 -2
BITMAP
0000
0060
3e20
03e0
0220
0420
09e0
1020
6020
0000
0cc0
0440
0aa0
3110
ENDCHAR
STARTCHAR ACBD
ENCODING 44221
SWIDTH 520 0
DWIDTH 15 0
BBX 15 14 0 -2
BITMAP
0000
0060
3e20
03e0
0220
0420
09e0
1020
6020
0000
07c0
0820
0820
07c0
ENDCHAR
STARTCHAR ACBE
ENCODING 44222
SWIDTH 520 0
DWIDTH 15 0
BBX 15 14 0 -2
BITMAP
0000
0060
3e20
03e0
0220
0420
09e0
1020
6020
0000
0fe0
0100
06c0
1830
ENDCHAR
STARTCHAR ACBF
ENCODING 44223
SWIDTH 520 0
DWIDTH 15 0
BBX 15 14 0 -2
BITMAP
0000
0060
3e20
03e0
0220
0420
09e0
1020
6000
0100
1ff0
0100
06c0
1830
ENDCHAR
STARTCHAR ACC0
ENCODING 44224
SWIDTH 520 0
DWIDTH 15 0
BBX 15 14 0 -2
BITMAP
0000
0060
3e20
03e0
0220
0420
09e0
1020
6000
1fe0
0020
1fe0
0020
0020
ENDCHAR
STARTCHAR ACC1
ENCODING 44225
SWIDTH 520 0
DWIDTH 15 0
BBX 15 14 0 -2
BITMAP
0000
0060
3e20
03e0
0220
0420
09e0
1020
6000
1fe0
0800
0fe0
0800
0fe0
ENDCHAR
STARTCHAR ACC2
ENCODING 44226
SWIDTH 520 0
DWIDTH 15 0
BBX 15 14 0 -2
BITMAP
0000
0060
3e20
03e0
0220
0420
09e0
1020
6020
0000
1ff0
0440
0240
1ff0
ENDCHAR
STARTCHAR ACC3
ENCODING 44227
SWIDTH 520 0
DWIDTH 15 0
BBX 15 14 0 -2
BITMAP
0000
0060
3e20
03e0
0220
0420
09e0
1020
6020
0100
1ff0
0440
0820
07c0
ENDCHAR
STARTCHAR ACC4
ENCODING 44228
SWIDTH 520 0
DWIDTH 15 0
BBX 15 14 0 -2
BITMAP
0000
0030
0190
3c90
0490
0790
0490
0890
0b90
1090
6090
0090
0090
0010
ENDCHAR
STARTCHAR ACC5
ENCODING 44229
SWIDTH 520 0
DWIDTH 15 0
BBX 15 14 0 -2
BITMAP
0000
0030
0190
3c90
0790
0490
0b90
1090
6010
0000
0ff0
0010
0010
0010
ENDCHAR
STARTCHAR ACC6
ENCODING 44230
SWIDTH 520 0
DWIDTH 15 0
BBX 15 14 0 -2
BITMAP
0000
0030
0190
3c90
0790
0490
0b90
1090
6010
0000
1ef0
0210
0210
0210
ENDCHAR
STARTCHAR ACC7
ENCODING 44231
SWIDTH 520 0
DWIDTH 15 0
BBX 15 14 0 -2
BITMAP
0000
0030
0190
3c90
0790
0490
0b90
1090
6010
0000
1e60
0220
0250
0388
ENDCHAR
STARTCHAR ACC8
ENCODING 44232
SWIDTH 520 0
DWIDTH 15 0
BBX 15 14 0 -2
BITMAP
0000
0030
0190
3c90
0790
0490
0890
1790
6090
0090
1810
0800
0800
0ff0
ENDCHAR
STARTCHAR ACC9
ENCODING 44233
SWIDTH 520 0
DWIDTH 15 0
BBX 15 14 0 -2
BITMAP
0000
0030
0190
3c90
0790
0490
0b90
1090
6010
0000
19f0
0840
08a0
0f18
ENDCHAR
STARTCHAR ACCA
ENCODING 44234
SWIDTH 520 0
DWIDTH 15 0
BBX 15 14 0 -2
BITMAP
0000
0030
0190
3c90
0790
0490
0b90
1090
6010
0040
19f8
0860
0990
0e60
ENDCHAR
STARTCHAR ACCB
ENCODING 44235
SWIDTH 520 0
DWIDTH 15 0
BBX 15 14 0 -2
BITMAP
0000
0030
0190
3c90
0790
0490
0b90
1090
6010
0000
1ff0
0800
0800
0ff0
ENDCHAR
STARTCHAR ACCC
ENCODING 44236
SWIDTH 520 0
DWIDTH 15 0
BBX 15 14 0 -2
BITMAP
0000
0030
0190
3c90
0790
0490
0b90
1090
6000
0ff0
0010
0ff0
0400
07f0
ENDCHAR
STARTCHAR ACCD
ENCODING 44237
SWIDTH 520 0
DWIDTH 15 0
BBX 15 14 0 -2
BITMAP
0000
0030
0190
3c90
0790
0490
0b90
1090
6000
1ff0
0110
1f10
0810
0f10
ENDCHAR
STARTCHAR ACCE
ENCODING 44238
SWIDTH 520 0
DWIDTH 15 0
BBX 15 14 0 -2
BITMAP
0000
0030
0190
3c90
0790
0490
0b90
1090
6000
1ff0
0290
1e90
0890
0ef0
ENDCHAR
STARTCHAR ACCF
ENCODING 44239
SWIDTH 520 0
DWIDTH 15 0
BBX 15 14 0 -2
BITMAP
0000
0030
0190
3c90
0790
0490
0b90
1090
6000
1fb0
0290
1ef0
0890
0ff0
ENDCHAR
STARTCHAR ACD0
ENCODING 44240
SWIDTH 520 0
DWIDTH 15 0
BBX 15 14 0 -2
BITMAP
0000
0030
0190
3c90
0790
0490
0b90
1090
6000
1e60
0220
1e20
0850
0f88
ENDCHAR
STARTCHAR ACD1
ENCODING 44241
SWIDTH 520 0
DWIDTH 15 0
BBX 15 14 0 -2
BITMAP
0000
0030
0190
3c90
0790
0490
0b90
1090
6000
1ff0
0280
1ef0
0880
0f70
ENDCHAR
STARTCHAR ACD2
ENCODING 44242
SWIDTH 520 0
DWIDTH 15 0
BBX 15 14 0 -2
BITMAP
0000
0030
0190
3c90
0790
0490
0b90
1090
6000
1ff0
02a0
1ea0
08a0
0ff0
ENDCHAR
STARTCHAR ACD3
ENCODING 44243
SWIDTH 520 0
DWIDTH 15 0
BBX 15 14 0 -2
BITMAP
0000
0030
0190
3c90
0790
0490
0b90
1090
6000
1e40
03f8
1e60
0890
0e60
ENDCHAR
STARTCHAR ACD4
ENCODING 44244
SWIDTH 520 0
DWIDTH 15 0
BBX 15 14 0 -2
BITMAP
0000
0030
0190
3c90
0790
0490
0b90
1090
6010
0000
0ff0
0410
0410
07f0
ENDCHAR
STARTCHAR ACD5
ENCODING 44245
SWIDTH 520 0
DWIDTH 15 0
BBX 15 14 0 -2
BITMAP
0000
0030
0190
3c90
0790
0490
0b90
1090
6000
0c30
0410
07f0
0410
07f0
ENDCHAR
STARTCHAR ACD6
ENCODING 44246
SWIDTH 520 0
DWIDTH 15 0
BBX 15 14 0 -2
BITMAP
0000
0030
0190
3c90
0790
0490
0b90
1090
6010
06c0
3240
1e40
12a0
1f18
ENDCHAR
STARTCHAR ACD7
ENCODING 44247
SWIDTH 520 0
DWIDTH 15 0
BBX 15 14 0 -2
BITMAP
0000
0030
0190
3c90
0790
0490
0b90
1090
6010
0190
0080
0100
06c0
1830
ENDCHAR
STARTCHAR ACD8
ENCODING 44248
SWIDTH 520 0
DWIDTH 15 0
BBX 15 14 0 -2
BITMAP
0000
0030
0190
3c90
0790
0490
0b90
1090
6010
0000
0cc0
0440
0aa0
3110
ENDCHAR
STARTCHAR ACD9
ENCODING 44249
SWIDTH 520 0
DWIDTH 15 0
BBX 15 14 0 -2
BITMAP
0000
0030
0190
3c90
0790
0490
0b90
1090
6010
0000
03e0
0410
0410
03e0
ENDCHAR
STARTCHAR ACDA
ENCODING 44250
SWIDTH 520 0
DWIDTH 15 0
BBX 15 14 0 -2
BITMAP
0000
0030
0190
3c90
0790
0490
0b90
1090
6010
0000
0ff0
0080
0360
1c18
ENDCHAR
STARTCHAR ACDB
ENCODING 44251
SWIDTH 520 0
DWIDTH 15 0
BBX 15 14 0 -2
BITMAP
0000
0030
0190
3c90
0790
0490
0b90
1090
6010
0100
1ff0
0100
06c0
1830
ENDCHAR
STARTCHAR ACDC
ENCODING 44252
SWIDTH 520 0
DWIDTH 15 0
BBX 15 14 0 -2
BITMAP
0000
0030
0190
3c90
0790
0490
0b90
1090
6000
0ff0
0010
0ff0
0010
0010
ENDCHAR
STARTCHAR ACDD
ENCODING 44253
SWIDTH 520 0
DWIDTH 15 0
BBX 15 14 0 -2
BITMAP
0000
0030
0190
3c90
0790
0490
0b90
1090
6000
0ff0
0400
07f0
0400
07f0
ENDCHAR
STARTCHAR ACDE
ENCODING 44254
SWIDTH 520 0
DWIDTH 15 0
BBX 15 14 0 -2
BITMAP
0000
0030
0190
3c90
0790
0490
0b90
1090
6010
0000
0ff0
0440
0240
0ff0
ENDCHAR
STARTCHAR ACDF
ENCODING 44255
SWIDTH 520 0
DWIDTH 15 0
BBX 15 14 0 -2
BITMAP
0000
0030
0190
3c90
0790
0490
0b90
1090
6010
0100
1ff0
0440
0820
07c0
ENDCHAR
STARTCHAR ACE0
ENCODING 44256
SWIDTH 520 0
DWIDTH 15 0
BBX 15 14 0 -2
BITMAP
0000
0000
0000
1ff0
0010
0010
0010
0210
0210
0220
0220
0200
7ffc
0000
ENDCHAR
STARTCHAR ACE1
ENCODING 44257
SWIDTH 520 0
DWIDTH 15 0
BBX 15 14 0 -2
BITMAP
0000
0000
1fe0
0020
0220
0220
0240
7ffc
0000
0000
1fe0
0020
0020
0020
ENDCHAR
STARTCHAR ACE2
ENCODING 44258
SWIDTH 520 0
DWIDTH 15 0
BBX 15 14 0 -2
BITMAP
0000
0000
1fe0
0020
0220
0220
0240
7ffc
0000
0000
1fe0
0220
0220
0220
ENDCHAR
STARTCHAR ACE3
ENCODING 44259
SWIDTH 520 0
DWIDTH 15 0
BBX 15 14 0 -2
BITMAP
0000
0000
1fe0
0020
0220
0220
0240
7ffc
0000
0000
1e60
0220
0250
0388
ENDCHAR
STARTCHAR ACE4
ENCODING 44260
SWIDTH 520 0
DWIDTH 15 0
BBX 15 14 0 -2
BITMAP
0000
0000
1fe0
0020
0020
0220
0240
0200
7ffc
0000
1800
0800
0800
0fe0
ENDCHAR
STARTCHAR ACE5
ENCODING 44261
SWIDTH 520 0
DWIDTH 15 0
BBX 15 14 0 -2
BITMAP
0000
0000
1fe0
0020
0220
0220
0240
7ffc
0000
0000
19f0
0840
08a0
0f10
ENDCHAR
STARTCHAR ACE6
ENCODING 44262
SWIDTH 520 0
DWIDTH 15 0
BBX 15 14 0 -2
BITMAP
0000
0000
1fe0
0020
0220
0240
0200
7ffc
0000
0080
33f0
10c0
1320
1cc0
ENDCHAR
STARTCHAR ACE7
ENCODING 44263
SWIDTH 520 0
DWIDTH 15 0
BBX 15 14 0 -2
BITMAP
0000
0000
1fe0
0020
0220
0220
0240
7ffc
0000
0000
1fe0
0800
0800
0fe0
ENDCHAR
STARTCHAR ACE8
ENCODING 44264
SWIDTH 520 0
DWIDTH 15 0
BBX 15 14 0 -2
BITMAP
0000
0000
1fe0
0020
0220
0240
0200
7ffc
0000
1fe0
0020
1fe0
0800
0fe0
ENDCHAR
STARTCHAR ACE9
ENCODING 44265
SWIDTH 520 0
DWIDTH 15 0
BBX 15 14 0 -2
BITMAP
0000
0000
1fe0
0020
0220
0240
0200
7ffc
0000
3ef0
0210
3e10
1010
1f10
ENDCHAR
STARTCHAR ACEA
ENCODING 44266
SWIDTH 520 0
DWIDTH 15 0
BBX 15 14 0 -2
BITMAP
0000
0000
1fe0
0020
0220
0240
0200
7ffc
0000
3df0
0490
3c90
1090
1ef0
ENDCHAR
STARTCHAR ACEB
ENCODING 44267
SWIDTH 520 0
DWIDTH 15 0
BBX 15 14 0 -2
BITMAP
0000
0000
1fe0
0020
0220
0240
0200
7ffc
0000
3db0
0490
3cf0
1090
1ef0
ENDCHAR
STARTCHAR ACEC
ENCODING 44268
SWIDTH 520 0
DWIDTH 15 0
BBX 15 14 0 -2
BITMAP
0000
0000
1fe0
0020
0220
0240
0200
7ffc
0000
3cc0
0440
3c40
10a0
1f10
ENDCHAR
STARTCHAR ACED
ENCODING 44269
SWIDTH 520 0
DWIDTH 15 0
BBX 15 14 0 -2
BITMAP
0000
0000
1fe0
0020
0220
0240
0200
7ffc
0000
1ff0
0280
1ef0
0880
0f70
ENDCHAR
STARTCHAR ACEE
ENCODING 44270
SWIDTH 520 0
DWIDTH 15 0
BBX 15 14 0 -2
BITMAP
0000
0000
1fe0
0020
0220
0240
0200
7ffc
0000
1ff0
02a0
1ea0
08a0
0ff0
ENDCHAR
STARTCHAR ACEF
ENCODING 44271
SWIDTH 520 0
DWIDTH 15 0
BBX 15 14 0 -2
BITMAP
0000
0000
1fe0
0020
0220
0240
0200
7ffc
0000
3c40
05f8
3c60
1090
1e60
ENDCHAR
STARTCHAR ACF0
ENCODING 44272
SWIDTH 520 0
DWIDTH 15 0
BBX 15 14 0 -2
BITMAP
0000
0000
1fe0
0020
0220
0220
0240
7ffc
0000
0000
1fe0
0820
0820
0fe0
ENDCHAR
STARTCHAR ACF1
ENCODING 44273
SWIDTH 520 0
DWIDTH 15 0
BBX 15 14 0 -2
BITMAP
0000
0000
1fe0
0020
0220
0220
0240
7ffc
0000
1860
0820
0fe0
0820
0fe0
ENDCHAR
STARTCHAR ACF2
ENCODING 44274
SWIDTH 520 0
DWIDTH 15 0
BBX 15 14 0 -2
BITMAP
0000
0000
1fe0
0020
0220
0220
0240
7ffc
0000
06c0
3240
1e40
12a0
1f10
ENDCHAR
STARTCHAR ACF3
ENCODING 44275
SWIDTH 520 0
DWIDTH 15 0
BBX 15 14 0 -2
BITMAP
0000
0000
1fe0
0020
0220
0220
0240
7ffc
0000
0000
0300
0100
06c0
3830
ENDCHAR
STARTCHAR ACF4
ENCODING 44276
SWIDTH 520 0
DWIDTH 15 0
BBX 15 14 0 -2
BITMAP
0000
0000
1fe0
0020
0220
0220
0240
7ffc
0000
0000
0cc0
0440
0aa0
3110
ENDCHAR
STARTCHAR ACF5
ENCODING 44277
SWIDTH 520 0
DWIDTH 15 0
BBX 15 14 0 -2
BITMAP
0000
0000
1fe0
0020
0220
0220
0240
7ffc
0000
0000
07c0
0820
0820
07c0
ENDCHAR
STARTCHAR ACF6
ENCODING 44278
SWIDTH 520 0
DWIDTH 15 0
BBX 15 14 0 -2
BITMAP
0000
0000
1fe0
0020
0220
0220
0240
7ffc
0000
0000
1ff0
0100
06c0
1830
ENDCHAR
STARTCHAR ACF7
ENCODING 44279
SWIDTH 520 0
DWIDTH 15 0
BBX 15 14 0 -2
BITMAP
0000
0000
1fe0
0020
0220
0240
0200
7ffc
0000
0100
0fe0
0100
06c0
1830
ENDCHAR
STARTCHAR ACF8
ENCODING 44280
SWIDTH 520 0
DWIDTH 15 0
BBX 15 14 0 -2
BITMAP
0000
0000
1fe0
0020
0220
0220
0240
7ffc
0000
1fe0
0020
1fe0
0020
0020
ENDCHAR
STARTCHAR ACF9
ENCODING 44281
SWIDTH 520 0
DWIDTH 15 0
BBX 15 14 0 -2
BITMAP
0000
0000
1fe0
0020
0220
0240
0200
7ffc
0000
1fe0
0800
0fe0
0800
0fe0
ENDCHAR
STARTCHAR ACFA
ENCODING 44282
SWIDTH 520 0
DWIDTH 15 0
BBX 15 14 0 -2
BITMAP
0000
0000
1fe0
0020
0220
0220
0240
7ffc
0000
0000
1ff0
0440
0240
1ff0
ENDCHAR
STARTCHAR ACFB
ENCODING 44283
SWIDTH 520 0
DWIDTH 15 0
BBX 15 14 0 -2
BITMAP
0000
0000
1fe0
0020
0220
0240
0200
7ffc
0000
0100
3ff8
0440
0820
07c0
ENDCHAR
STARTCHAR ACFC
ENCODING 44284
SWIDTH 520 0
DWIDTH 15 0
BBX 15 14 0 -2
BITMAP
0000
0060
0020
3f20
0120
0120
0920
093c
0a20
0820
7fe0
0020
0020
0020
ENDCHAR
STARTCHAR ACFD
ENCODING 44285
SWIDTH 520 0
DWIDTH 15 0
BBX 15 14 0 -2
BITMAP
0000
0060
3f20
0120
0920
093c
0a20
7fe0
0020
0000
1fe0
0020
0020
0020
ENDCHAR
STARTCHAR ACFE
ENCODING 44286
SWIDTH 520 0
DWIDTH 15 0
BBX 15 14 0 -2
BITMAP
0000
0060
3f20
0120
0920
093c
0a20
7fe0
0020
0000
1fe0
0220
0220
0220
ENDCHAR
STARTCHAR ACFF
ENCODING 44287
SWIDTH 520 0
DWIDTH 15 0
BBX 15 14 0 -2
BITMAP
0000
0060
3f20
0120
0920
093c
0a20
7fe0
0020
0000
3cc0
0440
04a0
0710
ENDCHAR
STARTCHAR AD00
ENCODING 44288
SWIDTH 520 0
DWIDTH 15 0
BBX 15 14 0 -2
BITMAP
0000
0060
3f20
0120
0120
0920
0a3c
0820
7fe0
0020
0020
1800
0800
0fe0
ENDCHAR
STARTCHAR AD01
ENCODING 44289
SWIDTH 520 0
DWIDTH 15 0
BBX 15 14 0 -2
BITMAP
0000
0060
3f20
0120
0920
093c
0a20
7fe0
0020
0000
33e0
1080
1140
1e30
ENDCHAR
STARTCHAR AD02
ENCODING 44290
SWIDTH 520 0
DWIDTH 15 0
BBX 15 14 0 -2
BITMAP
0000
0060
3f20
0120
0920
0a3c
0820
7fa0
0020
0080
33f0
10c0
1320
1cc0
ENDCHAR
STARTCHAR AD03
ENCODING 44291
SWIDTH 520 0
DWIDTH 15 0
BBX 15 14 0 -2
BITMAP
0000
0060
3f20
0120
0920
093c
0a20
7fe0
0020
0000
1fe0
0800
0800
0fe0
ENDCHAR
STARTCHAR AD04
ENCODING 44292
SWIDTH 520 0
DWIDTH 15 0
BBX 15 14 0 -2
BITMAP
0000
0060
3f20
0120
0920
0a3c
0820
7fa0
0000
1fe0
0020
1fe0
0800
0fe0
ENDCHAR
STARTCHAR AD05
ENCODING 44293
SWIDTH 520 0
DWIDTH 15 0
BBX 15 14 0 -2
BITMAP
0000
0060
3f20
0120
0920
0a3c
0820
7fa0
0000
3fe0
0220
3e20
1020
1e20
ENDCHAR
STARTCHAR AD06
ENCODING 44294
SWIDTH 520 0
DWIDTH 15 0
BBX 15 14 0 -2
BITMAP
0000
0060
3f20
0120
0920
0a3c
0820
7fa0
0000
3fe0
0520
3d20
1120
1de0
ENDCHAR
STARTCHAR AD07
ENCODING 44295
SWIDTH 520 0
DWIDTH 15 0
BBX 15 14 0 -2
BITMAP
0000
0060
3f20
0120
0920
0a3c
0820
7fa0
0000
3f60
0520
3de0
1120
1fe0
ENDCHAR
STARTCHAR AD08
ENCODING 44296
SWIDTH 520 0
DWIDTH 15 0
BBX 15 14 0 -2
BITMAP
0000
0060
3f20
0120
0920
0a3c
0820
7fa0
0000
3cc0
0440
3c40
10a0
1f10
ENDCHAR
STARTCHAR AD09
ENCODING 44297
SWIDTH 520 0
DWIDTH 15 0
BBX 15 14 0 -2
BITMAP
0000
0060
3f20
0120
0920
0a3c
0820
7fa0
0000
3fe0
0500
3de0
1100
1ee0
ENDCHAR
STARTCHAR AD0A
ENCODING 44298
SWIDTH 520 0
DWIDTH 15 0
BBX 15 14 0 -2
BITMAP
0000
0060
3f20
0120
0920
0a3c
0820
7fa0
0000
1ff0
02a0
1ea0
08a0
0ff0
ENDCHAR
STARTCHAR AD0B
ENCODING 44299
SWIDTH 520 0
DWIDTH 15 0
BBX 15 14 0 -2
BITMAP
0000
0060
3f20
0120
0920
0a3c
0820
7fa0
0000
3c80
07f0
3cc0
1120
1cc0
ENDCHAR
STARTCHAR AD0C
ENCODING 44300
SWIDTH 520 0
DWIDTH 15 0
BBX 15 14 0 -2
BITMAP
0000
0060
3f20
0120
0920
093c
0a20
7fe0
0020
0000
1fe0
0820
0820
0fe0
ENDCHAR
STARTCHAR AD0D
ENCODING 44301
SWIDTH 520 0
DWIDTH 15 0
BBX 15 14 0 -2
BITMAP
0000
0060
3f20
0120
0920
093c
0a20
7fe0
0020
0020
1820
0fe0
0820
0fe0
ENDCHAR
STARTCHAR AD0E
ENCODING 44302
SWIDTH 520 0
DWIDTH 15 0
BBX 15 14 0 -2
BITMAP
0000
0060
3f20
0120
0920
093c
0a20
7fe0
0020
06c0
3240
1e40
12a0
1f10
ENDCHAR
STARTCHAR AD0F
ENCODING 44303
SWIDTH 520 0
DWIDTH 15 0
BBX 15 14 0 -2
BITMAP
0000
0060
3f20
0120
0920
093c
0a20
7fe0
0020
0020
0300
0100
06c0
1830
ENDCHAR
STARTCHAR AD10
ENCODING 44304
SWIDTH 520 0
DWIDTH 15 0
BBX 15 14 0 -2
BITMAP
0000
0060
3f20
0120
0920
093c
0a20
7fe0
0020
0000
0cc0
0440
0aa0
3110
ENDCHAR
STARTCHAR AD11
ENCODING 44305
SWIDTH 520 0
DWIDTH 15 0
BBX 15 14 0 -2
BITMAP
0000
0060
3f20
0120
0920
093c
0a20
7fe0
0020
0000
07c0
0820
0820
07c0
ENDCHAR
STARTCHAR AD12
ENCODING 44306
SWIDTH 520 0
DWIDTH 15 0
BBX 15 14 0 -2
BITMAP
0000
0060
3f20
0120
0920
093c
0a20
7fe0
0020
0000
0fe0
0100
06c0
1830
ENDCHAR
STARTCHAR AD13
ENCODING 44307
SWIDTH 520 0
DWIDTH 15 0
BBX 15 14 0 -2
BITMAP
0000
0060
3f20
0120
0920
0a3c
0820
7fa0
0000
0100
1ff0
0100
06c0
1830
ENDCHAR
STARTCHAR AD14
ENCODING 44308
SWIDTH 520 0
DWIDTH 15 0
BBX 15 14 0 -2
BITMAP
0000
0060
3f20
0120
0920
093c
0a20
7fe0
0020
0000
1fe0
0020
1fe0
0020
ENDCHAR
STARTCHAR AD15
ENCODING 44309
SWIDTH 520 0
DWIDTH 15 0
BBX 15 14 0 -2
BITMAP
0000
0060
3f20
0120
0920
0a3c
0820
7fa0
0000
1fe0
0800
0fe0
0800
0fe0
ENDCHAR
STARTCHAR AD16
ENCODING 44310
SWIDTH 520 0
DWIDTH 15 0
BBX 15 14 0 -2
BITMAP
0000
0060
3f20
0120
0920
093c
0a20
7fe0
0020
0000
1ff0
0440
0240
1ff0
ENDCHAR
STARTCHAR AD17
ENCODING 44311
SWIDTH 520 0
DWIDTH 15 0
BBX 15 14 0 -2
BITMAP
0000
0060
3f20
0120
0920
0a3c
0820
7fa0
0020
0100
1ff0
0440
0820
07c0
ENDCHAR
STARTCHAR AD18
ENCODING 44312
SWIDTH 520 0
DWIDTH 15 0
BBX 15 14 0 -2
BITMAP
0000
0030
0190
3e90
0290
0290
1290
1290
14f0
1090
7f90
0090
0090
0010
ENDCHAR
STARTCHAR AD19
ENCODING 44313
SWIDTH 520 0
DWIDTH 15 0
BBX 15 14 0 -2
BITMAP
0000
01b0
3e90
0290
1290
12f0
1490
7f90
0090
0000
1ff0
0010
0010
0010
ENDCHAR
STARTCHAR AD1A
ENCODING 44314
SWIDTH 520 0
DWIDTH 15 0
BBX 15 14 0 -2
BITMAP
0000
01b0
3e90
0290
1290
12f0
1490
7f90
0090
0000
1ef0
0210
0210
0210
ENDCHAR
STARTCHAR AD1B
ENCODING 44315
SWIDTH 520 0
DWIDTH 15 0
BBX 15 14 0 -2
BITMAP
0000
01b0
3e90
0290
1290
12f0
1490
7f90
0090
0000
1e60
0220
0250
0388
ENDCHAR
STARTCHAR AD1C
ENCODING 44316
SWIDTH 520 0
DWIDTH 15 0
BBX 15 14 0 -2
BITMAP
0000
01b0
3e90
0290
0290
12f0
1490
1090
7f90
0090
0010
1800
0800
0ff0
ENDCHAR
STARTCHAR AD1D
ENCODING 44317
SWIDTH 520 0
DWIDTH 15 0
BBX 15 14 0 -2
BITMAP
0000
01b0
3e90
0290
1290
12f0
1490
7f90
0090
0000
19f0
0840
08a0
0f18
ENDCHAR
STARTCHAR AD1E
ENCODING 44318
SWIDTH 520 0
DWIDTH 15 0
BBX 15 14 0 -2
BITMAP
0000
01b0
3e90
0290
1290
14f0
1090
7f90
0010
0040
19f8
0860
0990
0e60
ENDCHAR
STARTCHAR AD1F
ENCODING 44319
SWIDTH 520 0
DWIDTH 15 0
BBX 15 14 0 -2
BITMAP
0000
01b0
3e90
0290
1290
12f0
1490
7f90
0090
0000
1ff0
0800
0800
0ff0
ENDCHAR
STARTCHAR AD20
ENCODING 44320
SWIDTH 520 0
DWIDTH 15 0
BBX 15 14 0 -2
BITMAP
0000
01b0
3e90
0290
1290
14f0
1090
7f90
0010
0ff0
0010
0ff0
0400
07f0
ENDCHAR
STARTCHAR AD21
ENCODING 44321
SWIDTH 520 0
DWIDTH 15 0
BBX 15 14 0 -2
BITMAP
0000
01b0
3e90
0290
1290
14f0
1090
7f90
0010
1ff0
0110
1f10
0810
0f10
ENDCHAR
STARTCHAR AD22
ENCODING 44322
SWIDTH 520 0
DWIDTH 15 0
BBX 15 14 0 -2
BITMAP
0000
01b0
3e90
0290
1290
14f0
1090
7f90
0010
1ff0
0290
1e90
0890
0ef0
ENDCHAR
STARTCHAR AD23
ENCODING 44323
SWIDTH 520 0
DWIDTH 15 0
BBX 15 14 0 -2
BITMAP
0000
01b0
3e90
0290
1290
14f0
1090
7f90
0010
1fb0
0290
1ef0
0890
0ff0
ENDCHAR
STARTCHAR AD24
ENCODING 44324
SWIDTH 520 0
DWIDTH 15 0
BBX 15 14 0 -2
BITMAP
0000
01b0
3e90
0290
1290
14f0
1090
7f90
0010
1e60
0220
1e20
0850
0f88
ENDCHAR
STARTCHAR AD25
ENCODING 44325
SWIDTH 520 0
DWIDTH 15 0
BBX 15 14 0 -2
BITMAP
0000
01b0
3e90
0290
1290
14f0
1090
7f90
0010
1ff0
0280
1ef0
0880
0f70
ENDCHAR
STARTCHAR AD26
ENCODING 44326
SWIDTH 520 0
DWIDTH 15 0
BBX 15 14 0 -2
BITMAP
0000
01b0
3e90
0290
1290
14f0
1090
7f90
0010
1ff0
02a0
1ea0
08a0
0ff0
ENDCHAR
STARTCHAR AD27
ENCODING 44327
SWIDTH 520 0
DWIDTH 15 0
BBX 15 14 0 -2
BITMAP
0000
01b0
3e90
0290
1290
14f0
1090
7f90
0010
1e20
03f8
1e60
0890
0e60
ENDCHAR
STARTCHAR AD28
ENCODING 44328
SWIDTH 520 0
DWIDTH 15 0
BBX 15 14 0 -2
BITMAP
0000
01b0
3e90
0290
1290
12f0
1490
7f90
0090
0000
0ff0
0410
0410
07f0
ENDCHAR
STARTCHAR AD29
ENCODING 44329
SWIDTH 520 0
DWIDTH 15 0
BBX 15 14 0 -2
BITMAP
0000
01b0
3e90
0290
1290
12f0
1490
7f90
0090
0010
0c10
07f0
0410
07f0
ENDCHAR
STARTCHAR AD2A
ENCODING 44330
SWIDTH 520 0
DWIDTH 15 0
BBX 15 14 0 -2
BITMAP
0000
01b0
3e90
0290
1290
12f0
1490
7f90
0090
06c0
3240
1e40
12a0
1f18
ENDCHAR
STARTCHAR AD2B
ENCODING 44331
SWIDTH 520 0
DWIDTH 15 0
BBX 15 14 0 -2
BITMAP
0000
01b0
3e90
0290
1290
12f0
1490
7f90
0090
0010
0300
0100
06c0
1830
ENDCHAR
STARTCHAR AD2C
ENCODING 44332
SWIDTH 520 0
DWIDTH 15 0
BBX 15 14 0 -2
BITMAP
0000
01b0
3e90
0290
1290
12f0
1490
7f90
0090
0000
0cc0
0440
0aa0
3110
ENDCHAR
STARTCHAR AD2D
ENCODING 44333
SWIDTH 520 0
DWIDTH 15 0
BBX 15 14 0 -2
BITMAP
0000
01b0
3e90
0290
1290
12f0
1490
7f90
0090
0000
03e0
0410
0410
03e0
ENDCHAR
STARTCHAR AD2E
ENCODING 44334
SWIDTH 520 0
DWIDTH 15 0
BBX 15 14 0 -2
BITMAP
0000
01b0
3e90
0290
1290
12f0
1490
7f90
0090
0000
0ff0
0080
0360
1c18
ENDCHAR
STARTCHAR AD2F
ENCODING 44335
SWIDTH 520 0
DWIDTH 15 0
BBX 15 14 0 -2
BITMAP
0000
01b0
3e90
0290
1290
14f0
1090
7f90
0010
0100
1ff0
0100
06c0
1830
ENDCHAR
STARTCHAR AD30
ENCODING 44336
SWIDTH 520 0
DWIDTH 15 0
BBX 15 14 0 -2
BITMAP
0000
01b0
3e90
0290
1290
12f0
1490
7f90
0090
0000
0ff0
0010
0ff0
0010
ENDCHAR
STARTCHAR AD31
ENCODING 44337
SWIDTH 520 0
DWIDTH 15 0
BBX 15 14 0 -2
BITMAP
0000
01b0
3e90
0290
1290
14f0
1090
7f90
0010
0ff0
0400
07f0
0400
07f0
ENDCHAR
STARTCHAR AD32
ENCODING 44338
SWIDTH 520 0
DWIDTH 15 0
BBX 15 14 0 -2
BITMAP
0000
01b0
3e90
0290
1290
12f0
1490
7f90
0090
0000
1ff0
0440
0240
1ff0
ENDCHAR
STARTCHAR AD33
ENCODING 44339
SWIDTH 520 0
DWIDTH 15 0
BBX 15 14 0 -2
BITMAP
0000
01b0
3e90
0290
1290
14f0
1090
7f90
0010
0100
1ff0
0440
0820
07c0
ENDCHAR
STARTCHAR AD34
ENCODING 44340
SWIDTH 520 0
DWIDTH 15 0
BBX 15 14 0 -2
BITMAP
0000
0060
0020
3f20
0120
0120
0920
0920
0a20
0820
7fe0
0020
0020
0020
ENDCHAR
STARTCHAR AD35
ENCODING 44341
SWIDTH 520 0
DWIDTH 15 0
BBX 15 14 0 -2
BITMAP
0000
0060
3f20
0120
0920
0920
0a20
7fe0
0020
0000
1fe0
0020
0020
0020
ENDCHAR
STARTCHAR AD36
ENCODING 44342
SWIDTH 520 0
DWIDTH 15 0
BBX 15 14 0 -2
BITMAP
0000
0060
3f20
0120
0920
0920
0a20
7fe0
0020
0000
1fe0
0220
0220
0220
ENDCHAR
STARTCHAR AD37
ENCODING 44343
SWIDTH 520 0
DWIDTH 15 0
BBX 15 14 0 -2
BITMAP
0000
0060
3f20
0120
0920
0920
0a20
7fe0
0020
0000
3cc0
0440
04a0
0710
ENDCHAR
STARTCHAR AD38
ENCODING 44344
SWIDTH 520 0
DWIDTH 15 0
BBX 15 14 0 -2
BITMAP
0000
0060
3f20
0120
0120
0920
0a20
0820
7fe0
0020
0020
1800
0800
0fe0
ENDCHAR
STARTCHAR AD39
ENCODING 44345
SWIDTH 520 0
DWIDTH 15 0
BBX 15 14 0 -2
BITMAP
0000
0060
3f20
0120
0920
0920
0a20
7fe0
0020
0000
33e0
1080
1140
1e30
ENDCHAR
STARTCHAR AD3A
ENCODING 44346
SWIDTH 520 0
DWIDTH 15 0
BBX 15 14 0 -2
BITMAP
0000
0060
3f20
0120
0920
0a20
0820
7fe0
0020
0080
33f0
10c0
1120
1ec0
ENDCHAR
STARTCHAR AD3B
ENCODING 44347
SWIDTH 520 0
DWIDTH 15 0
BBX 15 14 0 -2
BITMAP
0000
0060
3f20
0120
0920
0920
0a20
7fe0
0020
0000
1fe0
0800
0800
0fe0
ENDCHAR
STARTCHAR AD3C
ENCODING 44348
SWIDTH 520 0
DWIDTH 15 0
BBX 15 14 0 -2
BITMAP
0000
0060
3f20
0120
0920
0a20
0820
7fe0
0020
1fe0
0020
1fe0
0800
0fe0
ENDCHAR
STARTCHAR AD3D
ENCODING 44349
SWIDTH 520 0
DWIDTH 15 0
BBX 15 14 0 -2
BITMAP
0000
0060
3f20
0120
0920
0a20
0820
7fe0
0020
3fe0
0220
3e20
1020
1e20
ENDCHAR
STARTCHAR AD3E
ENCODING 44350
SWIDTH 520 0
DWIDTH 15 0
BBX 15 14 0 -2
BITMAP
0000
0060
3f20
0120
0920
0a20
0820
7fe0
0020
3fe0
0520
3d20
1120
1de0
ENDCHAR
STARTCHAR AD3F
ENCODING 44351
SWIDTH 520 0
DWIDTH 15 0
BBX 15 14 0 -2
BITMAP
0000
0060
3f20
0120
0920
0a20
0820
7fe0
0020
3f60
0520
3de0
1120
1fe0
ENDCHAR
STARTCHAR AD40
ENCODING 44352
SWIDTH 520 0
DWIDTH 15 0
BBX 15 14 0 -2
BITMAP
0000
0060
3f20
0120
0920
0a20
0820
7fe0
0020
3cc0
0440
3c40
10a0
1f10
ENDCHAR
STARTCHAR AD41
ENCODING 44353
SWIDTH 520 0
DWIDTH 15 0
BBX 15 14 0 -2
BITMAP
0000
0060
3f20
0120
0920
0a20
0820
7fe0
0020
3fe0
0500
3de0
1100
1ee0
ENDCHAR
STARTCHAR AD42
ENCODING 44354
SWIDTH 520 0
DWIDTH 15 0
BBX 15 14 0 -2
BITMAP
0000
0060
3f20
0120
0920
0a20
0820
7fe0
0020
3fe0
0540
3d40
1140
1fe0
ENDCHAR
STARTCHAR AD43
ENCODING 44355
SWIDTH 520 0
DWIDTH 15 0
BBX 15 14 0 -2
BITMAP
0000
0060
3f20
0120
0920
0a20
0820
7fe0
0020
3c80
07f0
3cc0
1120
1cc0
ENDCHAR
STARTCHAR AD44
ENCODING 44356
SWIDTH 520 0
DWIDTH 15 0
BBX 15 14 0 -2
BITMAP
0000
0060
3f20
0120
0920
0920
0a20
7fe0
0020
0000
1fe0
0820
0820
0fe0
ENDCHAR
STARTCHAR AD45
ENCODING 44357
SWIDTH 520 0
DWIDTH 15 0
BBX 15 14 0 -2
BITMAP
0000
0060
3f20
0120
0920
0920
0a20
7fe0
0020
0020
1820
0fe0
0820
0fe0
ENDCHAR
STARTCHAR AD46
ENCODING 44358
SWIDTH 520 0
DWIDTH 15 0
BBX 15 14 0 -2
BITMAP
0000
0060
3f20
0120
0920
0920
0a20
7fe0
0020
06c0
3240
1e40
12a0
1f10
ENDCHAR
STARTCHAR AD47
ENCODING 44359
SWIDTH 520 0
DWIDTH 15 0
BBX 15 14 0 -2
BITMAP
0000
0060
3f20
0120
0920
0920
0a20
7fe0
0020
0020
0300
0100
06c0
1830
ENDCHAR
STARTCHAR AD48
ENCODING 44360
SWIDTH 520 0
DWIDTH 15 0
BBX 15 14 0 -2
BITMAP
0000
0060
3f20
0120
0920
0920
0a20
7fe0
0020
0000
0cc0
0440
0aa0
3110
ENDCHAR
STARTCHAR AD49
ENCODING 44361
SWIDTH 520 0
DWIDTH 15 0
BBX 15 14 0 -2
BITMAP
0000
0060
3f20
0120
0920
0920
0a20
7fe0
0020
0000
07c0
0820
0820
07c0
ENDCHAR
STARTCHAR AD4A
ENCODING 44362
SWIDTH 520 0
DWIDTH 15 0
BBX 15 14 0 -2
BITMAP
0000
0060
3f20
0120
0920
0920
0a20
7fe0
0020
0000
0fe0
0100
06c0
1830
ENDCHAR
STARTCHAR AD4B
ENCODING 44363
SWIDTH 520 0
DWIDTH 15 0
BBX 15 14 0 -2
BITMAP
0000
0060
3f20
0120
0920
0a20
0820
7fe0
0020
0100
1ff0
0100
06c0
1830
ENDCHAR
STARTCHAR AD4C
ENCODING 44364
SWIDTH 520 0
DWIDTH 15 0
BBX 15 14 0 -2
BITMAP
0000
0060
3f20
0120
0920
0920
0a20
7fe0
0020
0000
1fe0
0020
1fe0
0020
ENDCHAR
STARTCHAR AD4D
ENCODING 44365
SWIDTH 520 0
DWIDTH 15 0
BBX 15 14 0 -2
BITMAP
0000
0060
3f20
0120
0920
0a20
0820
7fe0
0020
1fe0
0800
0fe0
0800
0fe0
ENDCHAR
STARTCHAR AD4E
ENCODING 44366
SWIDTH 520 0
DWIDTH 15 0
BBX 15 14 0 -2
BITMAP
0000
0060
3f20
0120
0920
0920
0a20
7fe0
0020
0000
1fe0
0880
0480
1fe0
ENDCHAR
STARTCHAR AD4F
ENCODING 44367
SWIDTH 520 0
DWIDTH 15 0
BBX 15 14 0 -2
BITMAP
0000
0060
3f20
0120
0920
0a20
0820
7fe0
0020
0100
1ff0
0440
0820
07c0
ENDCHAR
STARTCHAR AD50
ENCODING 44368
SWIDTH 520 0
DWIDTH 15 0
BBX 15 14 0 -2
BITMAP
0000
0000
0000
1ff0
0010
0010
0010
0910
0910
0920
0920
0900
7ffc
0000
ENDCHAR
STARTCHAR AD51
ENCODING 44369
SWIDTH 520 0
DWIDTH 15 0
BBX 15 14 0 -2
BITMAP
0000
0000
1fe0
0020
0020
0920
0940
7ffc
0000
0000
1fe0
0020
0020
0020
ENDCHAR
STARTCHAR AD52
ENCODING 44370
SWIDTH 520 0
DWIDTH 15 0
BBX 15 14 0 -2
BITMAP
0000
0000
1fe0
0020
0020
0920
0940
7ffc
0000
0000
1fe0
0220
0220
0220
ENDCHAR
STARTCHAR AD53
ENCODING 44371
SWIDTH 520 0
DWIDTH 15 0
BBX 15 14 0 -2
BITMAP
0000
0000
1fe0
0020
0020
0920
0940
7ffc
0000
0000
1e60
0220
0250
0388
ENDCHAR
STARTCHAR AD54
ENCODING 44372
SWIDTH 520 0
DWIDTH 15 0
BBX 15 14 0 -2
BITMAP
0000
0000
1fe0
0020
0020
0920
0940
0900
7ffc
0000
1800
0800
0800
0fe0
ENDCHAR
STARTCHAR AD55
ENCODING 44373
SWIDTH 520 0
DWIDTH 15 0
BBX 15 14 0 -2
BITMAP
0000
0000
1fe0
0020
0020
0920
0940
7ffc
0000
0000
19f0
0840
08a0
0f10
ENDCHAR
STARTCHAR AD56
ENCODING 44374
SWIDTH 520 0
DWIDTH 15 0
BBX 15 14 0 -2
BITMAP
0000
0000
1fe0
0020
0020
0940
0900
7ffc
0000
0080
33f0
10c0
1320
1cc0
ENDCHAR
STARTCHAR AD57
ENCODING 44375
SWIDTH 520 0
DWIDTH 15 0
BBX 15 14 0 -2
BITMAP
0000
0000
1fe0
0020
0020
0920
0940
7ffc
0000
0000
1fe0
0800
0800
0fe0
ENDCHAR
STARTCHAR AD58
ENCODING 44376
SWIDTH 520 0
DWIDTH 15 0
BBX 15 14 0 -2
BITMAP
0000
0000
1fe0
0020
0020
0940
0900
7ffc
0000
1fe0
0020
1fe0
0800
0fe0
ENDCHAR
STARTCHAR AD59
ENCODING 44377
SWIDTH 520 0
DWIDTH 15 0
BBX 15 14 0 -2
BITMAP
0000
0000
1fe0
0020
0020
0940
0900
7ffc
0000
3ef0
0210
3e10
1010
1f10
ENDCHAR
STARTCHAR AD5A
ENCODING 44378
SWIDTH 520 0
DWIDTH 15 0
BBX 15 14 0 -2
BITMAP
0000
0000
1fe0
0020
0020
0940
0900
7ffc
0000
3df0
0490
3c90
1090
1ef0
ENDCHAR
STARTCHAR AD5B
ENCODING 44379
SWIDTH 520 0
DWIDTH 15 0
BBX 15 14 0 -2
BITMAP
0000
0000
1fe0
0020
0020
0940
0900
7ffc
0000
3db0
0490
3cf0
1090
1ef0
ENDCHAR
STARTCHAR AD5C
ENCODING 44380
SWIDTH 520 0
DWIDTH 15 0
BBX 15 14 0 -2
BITMAP
0000
0000
1fe0
0020
0020
0940
0900
7ffc
0000
3cc0
0440
3c40
10a0
1f10
ENDCHAR
STARTCHAR AD5D
ENCODING 44381
SWIDTH 520 0
DWIDTH 15 0
BBX 15 14 0 -2
BITMAP
0000
0000
1fe0
0020
0020
0940
0900
7ffc
0000
1ff0
0280
1ef0
0880
0f70
ENDCHAR
STARTCHAR AD5E
ENCODING 44382
SWIDTH 520 0
DWIDTH 15 0
BBX 15 14 0 -2
BITMAP
0000
0000
1fe0
0020
0020
0940
0900
7ffc
0000
1ff0
02a0
1ea0
08a0
0ff0
ENDCHAR
STARTCHAR AD5F
ENCODING 44383
SWIDTH 520 0
DWIDTH 15 0
BBX 15 14 0 -2
BITMAP
0000
0000
1fe0
0020
0020
0940
0900
7ffc
0000
3c40
05f8
3c60
1090
1e60
ENDCHAR
STARTCHAR AD60
ENCODING 44384
SWIDTH 520 0
DWIDTH 15 0
BBX 15 14 0 -2
BITMAP
0000
0000
1fe0
0020
0020
0920
0940
7ffc
0000
0000
1fe0
0820
0820
0fe0
ENDCHAR
STARTCHAR AD61
ENCODING 44385
SWIDTH 520 0
DWIDTH 15 0
BBX 15 14 0 -2
BITMAP
0000
0000
1fe0
0020
0020
0920
0940
7ffc
0000
1860
0820
0fe0
0820
0fe0
ENDCHAR
STARTCHAR AD62
ENCODING 44386
SWIDTH 520 0
DWIDTH 15 0
BBX 15 14 0 -2
BITMAP
0000
0000
1fe0
0020
0020
0920
0940
7ffc
0000
06c0
3240
1e40
12a0
1f10
ENDCHAR
STARTCHAR AD63
ENCODING 44387
SWIDTH 520 0
DWIDTH 15 0
BBX 15 14 0 -2
BITMAP
0000
0000
1fe0
0020
0020
0920
0940
7ffc
0000
0000
0300
0100
06c0
3830
ENDCHAR
STARTCHAR AD64
ENCODING 44388
SWIDTH 520 0
DWIDTH 15 0
BBX 15 14 0 -2
BITMAP
0000
0000
1fe0
0020
0020
0920
0940
7ffc
0000
0000
0cc0
0440
0aa0
3110
ENDCHAR
STARTCHAR AD65
ENCODING 44389
SWIDTH 520 0
DWIDTH 15 0
BBX 15 14 0 -2
BITMAP
0000
0000
1fe0
0020
0020
0920
0940
7ffc
0000
0000
07c0
0820
0820
07c0
ENDCHAR
STARTCHAR AD66
ENCODING 44390
SWIDTH 520 0
DWIDTH 15 0
BBX 15 14 0 -2
BITMAP
0000
0000
1fe0
0020
0020
0920
0940
7ffc
0000
0000
1ff0
0100
06c0
1830
ENDCHAR
STARTCHAR AD67
ENCODING 44391
SWIDTH 520 0
DWIDTH 15 0
BBX 15 14 0 -2
BITMAP
0000
0000
1fe0
0020
0020
0940
0900
7ffc
0000
0100
0fe0
0100
06c0
1830
ENDCHAR
STARTCHAR AD68
ENCODING 44392
SWIDTH 520 0
DWIDTH 15 0
BBX 15 14 0 -2
BITMAP
0000
0000
1fe0
0020
0020
0920
0940
7ffc
0000
1fe0
0020
1fe0
0020
0020
ENDCHAR
STARTCHAR AD69
ENCODING 44393
SWIDTH 520 0
DWIDTH 15 0
BBX 15 14 0 -2
BITMAP
0000
0000
1fe0
0020
0020
0940
0900
7ffc
0000
1fe0
0800
0fe0
0800
0fe0
ENDCHAR
STARTCHAR AD6A
ENCODING 44394
SWIDTH 520 0
DWIDTH 15 0
BBX 15 14 0 -2
BITMAP
0000
0000
1fe0
0020
0020
0920
0940
7ffc
0000
0000
1ff0
0440
0240
1ff0
ENDCHAR
STARTCHAR AD6B
ENCODING 44395
SWIDTH 520 0
DWIDTH 15 0
BBX 15 14 0 -2
BITMAP
0000
0000
1fe0
0020
0020
0940
0900
7ffc
0000
0100
3ff8
0440
0820
07c0
ENDCHAR
STARTCHAR AD6C
ENCODING 44396
SWIDTH 520 0
DWIDTH 15 0
BBX 15 14 0 -2
BITMAP
0000
0000
1fe0
0020
0020
0020
0040
7ffc
0100
0100
0100
0100
0100
0100
ENDCHAR
STARTCHAR AD6D
ENCODING 44397
SWIDTH 520 0
DWIDTH 15 0
BBX 15 14 0 -2
BITMAP
0000
0000
1fe0
0020
0020
0040
7ffc
0100
0100
0100
1fe0
0020
0020
0020
ENDCHAR
STARTCHAR AD6E
ENCODING 44398
SWIDTH 520 0
DWIDTH 15 0
BBX 15 14 0 -2
BITMAP
0000
0000
1fe0
0020
0020
0040
7ffc
0100
0100
0100
1fe0
0220
0220
0220
ENDCHAR
STARTCHAR AD6F
ENCODING 44399
SWIDTH 520 0
DWIDTH 15 0
BBX 15 14 0 -2
BITMAP
0000
0000
1fe0
0020
0020
0040
7ffc
0100
0100
0100
1e60
0220
0250
0388
ENDCHAR
STARTCHAR AD70
ENCODING 44400
SWIDTH 520 0
DWIDTH 15 0
BBX 15 14 0 -2
BITMAP
0000
0000
1fe0
0020
0020
0040
7ffc
0100
0100
0100
1900
0800
0800
0fe0
ENDCHAR
STARTCHAR AD71
ENCODING 44401
SWIDTH 520 0
DWIDTH 15 0
BBX 15 14 0 -2
BITMAP
0000
0000
1fe0
0020
0020
0040
7ffc
0100
0100
0100
19f0
0840
08a0
0f10
ENDCHAR
STARTCHAR AD72
ENCODING 44402
SWIDTH 520 0
DWIDTH 15 0
BBX 15 14 0 -2
BITMAP
0000
0000
1fe0
0020
0020
0040
7ffc
0100
0100
0080
33f0
10c0
1320
1cc0
ENDCHAR
STARTCHAR AD73
ENCODING 44403
SWIDTH 520 0
DWIDTH 15 0
BBX 15 14 0 -2
BITMAP
0000
0000
1fe0
0020
0020
0040
7ffc
0100
0100
0100
1fe0
0800
0800
0fe0
ENDCHAR
STARTCHAR AD74
ENCODING 44404
SWIDTH 520 0
DWIDTH 15 0
BBX 15 14 0 -2
BITMAP
0000
0000
1fe0
0020
0020
0040
7ffc
0100
0100
1fe0
0020
1fe0
0800
0ff0
ENDCHAR
STARTCHAR AD75
ENCODING 44405
SWIDTH 520 0
DWIDTH 15 0
BBX 15 14 0 -2
BITMAP
0000
0000
1fe0
0020
0020
0040
7ffc
0100
0100
3ef0
0210
3e10
1010
1f10
ENDCHAR
STARTCHAR AD76
ENCODING 44406
SWIDTH 520 0
DWIDTH 15 0
BBX 15 14 0 -2
BITMAP
0000
0000
1fe0
0020
0020
0040
7ffc
0100
0100
3df0
0490
3c90
1090
1ef0
ENDCHAR
STARTCHAR AD77
ENCODING 44407
SWIDTH 520 0
DWIDTH 15 0
BBX 15 14 0 -2
BITMAP
0000
0000
1fe0
0020
0020
0040
7ffc
0100
0100
3db0
0490
3cf0
1090
1ef0
ENDCHAR
STARTCHAR AD78
ENCODING 44408
SWIDTH 520 0
DWIDTH 15 0
BBX 15 14 0 -2
BITMAP
0000
0000
1fe0
0020
0020
0040
7ffc
0100
0100
3cc0
0440
3c40
10a0
1f10
ENDCHAR
STARTCHAR AD79
ENCODING 44409
SWIDTH 520 0
DWIDTH 15 0
BBX 15 14 0 -2
BITMAP
0000
0000
1fe0
0020
0020
0040
7ffc
0100
0100
1ff0
0280
1ef0
0880
0f70
ENDCHAR
STARTCHAR AD7A
ENCODING 44410
SWIDTH 520 0
DWIDTH 15 0
BBX 15 14 0 -2
BITMAP
0000
0000
1fe0
0020
0020
0040
7ffc
0100
0100
1ff0
02a0
1ea0
08a0
0ff0
ENDCHAR
STARTCHAR AD7B
ENCODING 44411
SWIDTH 520 0
DWIDTH 15 0
BBX 15 14 0 -2
BITMAP
0000
0000
1fe0
0020
0020
0040
7ffc
0100
0100
3c40
05f8
3c60
1090
1e60
ENDCHAR
STARTCHAR AD7C
ENCODING 44412
SWIDTH 520 0
DWIDTH 15 0
BBX 15 14 0 -2
BITMAP
0000
0000
1fe0
0020
0020
0040
7ffc
0100
0100
0100
1fe0
0820
0820
0fe0
ENDCHAR
STARTCHAR AD7D
ENCODING 44413
SWIDTH 520 0
DWIDTH 15 0
BBX 15 14 0 -2
BITMAP
0000
0000
1fe0
0020
0020
0040
7ffc
0100
0100
1960
0820
0fe0
0820
0fe0
ENDCHAR
STARTCHAR AD7E
ENCODING 44414
SWIDTH 520 0
DWIDTH 15 0
BBX 15 14 0 -2
BITMAP
0000
0000
1fe0
0020
0020
0040
7ffc
0100
0100
07c0
3240
1e40
12a0
1f10
ENDCHAR
STARTCHAR AD7F
ENCODING 44415
SWIDTH 520 0
DWIDTH 15 0
BBX 15 14 0 -2
BITMAP
0000
0000
1fe0
0020
0020
0040
7ffc
0100
0100
0100
0300
0100
06c0
3830
ENDCHAR
STARTCHAR AD80
ENCODING 44416
SWIDTH 520 0
DWIDTH 15 0
BBX 15 14 0 -2
BITMAP
0000
0000
1fe0
0020
0020
0040
7ffc
0100
0100
0100
0cc0
0440
0aa0
3110
ENDCHAR
STARTCHAR AD81
ENCODING 44417
SWIDTH 520 0
DWIDTH 15 0
BBX 15 14 0 -2
BITMAP
0000
0000
1fe0
0020
0020
0040
7ffc
0100
0100
0100
07c0
0820
0820
07c0
ENDCHAR
STARTCHAR AD82
ENCODING 44418
SWIDTH 520 0
DWIDTH 15 0
BBX 15 14 0 -2
BITMAP
0000
0000
1fe0
0020
0020
0040
7ffc
0100
0100
0100
1ff0
0100
06c0
1830
ENDCHAR
STARTCHAR AD83
ENCODING 44419
SWIDTH 520 0
DWIDTH 15 0
BBX 15 14 0 -2
BITMAP
0000
0000
1fe0
0020
0020
0040
7ffc
0100
0380
0000
0fe0
0100
06c0
1830
ENDCHAR
STARTCHAR AD84
ENCODING 44420
SWIDTH 520 0
DWIDTH 15 0
BBX 15 14 0 -2
BITMAP
0000
0000
1fe0
0020
0020
0040
7ffc
0100
0100
1fe0
0020
1fe0
0020
0020
ENDCHAR
STARTCHAR AD85
ENCODING 44421
SWIDTH 520 0
DWIDTH 15 0
BBX 15 14 0 -2
BITMAP
0000
0000
1fe0
0020
0020
0040
7ffc
0100
0100
1fe0
0800
0fe0
0800
0fe0
ENDCHAR
STARTCHAR AD86
ENCODING 44422
SWIDTH 520 0
DWIDTH 15 0
BBX 15 14 0 -2
BITMAP
0000
0000
1fe0
0020
0020
0040
7ffc
0100
0100
0100
1ff0
0440
0240
1ff0
ENDCHAR
STARTCHAR AD87
ENCODING 44423
SWIDTH 520 0
DWIDTH 15 0
BBX 15 14 0 -2
BITMAP
0000
0000
1fe0
0020
0020
0040
7ffc
0100
07c0
0000
3ff8
0440
0820
07c0
ENDCHAR
STARTCHAR AD88
ENCODING 44424
SWIDTH 520 0
DWIDTH 15 0
BBX 15 14 0 -2
BITMAP
0000
0060
3f20
0120
0120
0120
0220
7fa0
0820
09e0
0820
0820
0820
0020
ENDCHAR
STARTCHAR AD89
ENCODING 44425
SWIDTH 520 0
DWIDTH 15 0
BBX 15 14 0 -2
BITMAP
0000
0060
3f20
0120
0120
0220
7fa0
04e0
0420
0000
1fe0
0020
0020
0020
ENDCHAR
STARTCHAR AD8A
ENCODING 44426
SWIDTH 520 0
DWIDTH 15 0
BBX 15 14 0 -2
BITMAP
0000
0060
3f20
0120
0120
0220
7fa0
04e0
0420
0000
1fe0
0220
0220
0220
ENDCHAR
STARTCHAR AD8B
ENCODING 44427
SWIDTH 520 0
DWIDTH 15 0
BBX 15 14 0 -2
BITMAP
0000
0060
3f20
0120
0120
0220
7fa0
04e0
0420
0000
3cc0
0440
04a0
0710
ENDCHAR
STARTCHAR AD8C
ENCODING 44428
SWIDTH 520 0
DWIDTH 15 0
BBX 15 14 0 -2
BITMAP
0000
0060
3f20
0120
0120
0220
7fa0
0420
04e0
0420
0020
1800
0800
0fe0
ENDCHAR
STARTCHAR AD8D
ENCODING 44429
SWIDTH 520 0
DWIDTH 15 0
BBX 15 14 0 -2
BITMAP
0000
0060
3f20
0120
0120
0220
7fa0
04e0
0420
0000
33e0
1080
1140
1e30
ENDCHAR
STARTCHAR AD8E
ENCODING 44430
SWIDTH 520 0
DWIDTH 15 0
BBX 15 14 0 -2
BITMAP
0000
0060
3f20
0120
0120
0220
7fa0
08e0
0820
0080
33f0
10c0
1120
1ec0
ENDCHAR
STARTCHAR AD8F
ENCODING 44431
SWIDTH 520 0
DWIDTH 15 0
BBX 15 14 0 -2
BITMAP
0000
0060
3f20
0120
0120
0220
7fa0
04e0
0420
0000
1fe0
0800
0800
0fe0
ENDCHAR
STARTCHAR AD90
ENCODING 44432
SWIDTH 520 0
DWIDTH 15 0
BBX 15 14 0 -2
BITMAP
0000
0060
3f20
0120
0120
0220
7fa0
08e0
0820
1fe0
0020
1fe0
0800
0fe0
ENDCHAR
STARTCHAR AD91
ENCODING 44433
SWIDTH 520 0
DWIDTH 15 0
BBX 15 14 0 -2
BITMAP
0000
0060
3f20
0120
0120
0220
7fa0
08e0
0820
3fe0
0220
3e20
1020
1e20
ENDCHAR
STARTCHAR AD92
ENCODING 44434
SWIDTH 520 0
DWIDTH 15 0
BBX 15 14 0 -2
BITMAP
0000
0060
3f20
0120
0120
0220
7fa0
08e0
0820
3fe0
0520
3d20
1120
1de0
ENDCHAR
STARTCHAR AD93
ENCODING 44435
SWIDTH 520 0
DWIDTH 15 0
BBX 15 14 0 -2
BITMAP
0000
0060
3f20
0120
0120
0220
7fa0
08e0
0820
3f60
0520
3de0
1120
1fe0
ENDCHAR
STARTCHAR AD94
ENCODING 44436
SWIDTH 520 0
DWIDTH 15 0
BBX 15 14 0 -2
BITMAP
0000
0060
3f20
0120
0120
0220
7fa0
08e0
0820
3cc0
0440
3c40
10a0
1f10
ENDCHAR
STARTCHAR AD95
ENCODING 44437
SWIDTH 520 0
DWIDTH 15 0
BBX 15 14 0 -2
BITMAP
0000
0060
3f20
0120
0120
0220
7fa0
08e0
0820
3fe0
0500
3de0
1100
1ee0
ENDCHAR
STARTCHAR AD96
ENCODING 44438
SWIDTH 520 0
DWIDTH 15 0
BBX 15 14 0 -2
BITMAP
0000
0060
3f20
0120
0120
0220
7fa0
08e0
0820
3fe0
0540
3d40
1140
1fe0
ENDCHAR
STARTCHAR AD97
ENCODING 44439
SWIDTH 520 0
DWIDTH 15 0
BBX 15 14 0 -2
BITMAP
0000
0060
3f20
0120
0120
0220
7fa0
08e0
0820
3c80
07f0
3cc0
1120
1cc0
ENDCHAR
STARTCHAR AD98
ENCODING 44440
SWIDTH 520 0
DWIDTH 15 0
BBX 15 14 0 -2
BITMAP
0000
0060
3f20
0120
0120
0220
7fa0
04e0
0420
0000
1fe0
0820
0820
0fe0
ENDCHAR
STARTCHAR AD99
ENCODING 44441
SWIDTH 520 0
DWIDTH 15 0
BBX 15 14 0 -2
BITMAP
0000
0060
3f20
0120
0120
0220
7fa0
04e0
0420
0020
1820
0fe0
0820
0fe0
ENDCHAR
STARTCHAR AD9A
ENCODING 44442
SWIDTH 520 0
DWIDTH 15 0
BBX 15 14 0 -2
BITMAP
0000
0060
3f20
0120
0120
0220
7fa0
04e0
0420
06c0
3240
1e40
12a0
1f10
ENDCHAR
STARTCHAR AD9B
ENCODING 44443
SWIDTH 520 0
DWIDTH 15 0
BBX 15 14 0 -2
BITMAP
0000
0060
3f20
0120
0120
0220
7fa0
04e0
0420
0020
0300
0100
06c0
1830
ENDCHAR
STARTCHAR AD9C
ENCODING 44444
SWIDTH 520 0
DWIDTH 15 0
BBX 15 14 0 -2
BITMAP
0000
0060
3f20
0120
0120
0220
7fa0
04e0
0420
0000
0cc0
0440
0aa0
3110
ENDCHAR
STARTCHAR AD9D
ENCODING 44445
SWIDTH 520 0
DWIDTH 15 0
BBX 15 14 0 -2
BITMAP
0000
0060
3f20
0120
0120
0220
7fa0
04e0
0420
0000
07c0
0820
0820
07c0
ENDCHAR
STARTCHAR AD9E
ENCODING 44446
SWIDTH 520 0
DWIDTH 15 0
BBX 15 14 0 -2
BITMAP
0000
0060
3f20
0120
0120
0220
7fa0
04e0
0420
0000
0fe0
0100
06c0
1830
ENDCHAR
STARTCHAR AD9F
ENCODING 44447
SWIDTH 520 0
DWIDTH 15 0
BBX 15 14 0 -2
BITMAP
0000
0060
3f20
0120
0120
0220
7fa0
08e0
0820
0100
1ff0
0100
06c0
1830
ENDCHAR
STARTCHAR ADA0
ENCODING 44448
SWIDTH 520 0
DWIDTH 15 0
BBX 15 14 0 -2
BITMAP
0000
0060
3f20
0120
0120
0220
7fa0
04e0
0420
0000
1fe0
0020
1fe0
0020
ENDCHAR
STARTCHAR ADA1
ENCODING 44449
SWIDTH 520 0
DWIDTH 15 0
BBX 15 14 0 -2
BITMAP
0000
0060
3f20
0120
0120
0220
7fa0
08e0
0820
1fe0
0800
0fe0
0800
0fe0
ENDCHAR
STARTCHAR ADA2
ENCODING 44450
SWIDTH 520 0
DWIDTH 15 0
BBX 15 14 0 -2
BITMAP
0000
0060
3f20
0120
0120
0220
7fa0
04e0
0420
0000
1fe0
0880
0480
1fe0
ENDCHAR
STARTCHAR ADA3
ENCODING 44451
SWIDTH 520 0
DWIDTH 15 0
BBX 15 14 0 -2
BITMAP
0000
0060
3f20
0120
0120
0220
7fa0
08e0
0820
0100
1ff0
0440
0820
07c0
ENDCHAR
STARTCHAR ADA4
ENCODING 44452
SWIDTH 520 0
DWIDTH 15 0
BBX 15 14 0 -2
BITMAP
0000
0030
0190
3c90
0490
0490
0490
0890
7e90
0890
0b90
0890
0890
0010
ENDCHAR
STARTCHAR ADA5
ENCODING 44453
SWIDTH 520 0
DWIDTH 15 0
BBX 15 14 0 -2
BITMAP
0000
01b0
7c90
0490
0490
0890
7e90
1390
1090
0000
1ff0
0010
0010
0010
ENDCHAR
STARTCHAR ADA6
ENCODING 44454
SWIDTH 520 0
DWIDTH 15 0
BBX 15 14 0 -2
BITMAP
0000
01b0
7c90
0490
0490
0890
7e90
1390
1090
0000
1ef0
0210
0210
0210
ENDCHAR
STARTCHAR ADA7
ENCODING 44455
SWIDTH 520 0
DWIDTH 15 0
BBX 15 14 0 -2
BITMAP
0000
01b0
7c90
0490
0490
0890
7e90
1390
1090
0000
1e60
0220
0250
0388
ENDCHAR
STARTCHAR ADA8
ENCODING 44456
SWIDTH 520 0
DWIDTH 15 0
BBX 15 14 0 -2
BITMAP
0000
01b0
7c90
0490
0490
0890
7e90
1090
1790
1090
0010
1800
0800
0ff0
ENDCHAR
STARTCHAR ADA9
ENCODING 44457
SWIDTH 520 0
DWIDTH 15 0
BBX 15 14 0 -2
BITMAP
0000
01b0
7c90
0490
0490
0890
7e90
1390
1090
0000
19f0
0840
08a0
0f18
ENDCHAR
STARTCHAR ADAA
ENCODING 44458
SWIDTH 520 0
DWIDTH 15 0
BBX 15 14 0 -2
BITMAP
0000
01b0
3e90
0290
0290
0490
7e90
0b90
0810
0040
19f8
0860
0990
0e60
ENDCHAR
STARTCHAR ADAB
ENCODING 44459
SWIDTH 520 0
DWIDTH 15 0
BBX 15 14 0 -2
BITMAP
0000
01b0
7c90
0490
0490
0890
7e90
1390
1090
0000
1ff0
0800
0800
0ff0
ENDCHAR
STARTCHAR ADAC
ENCODING 44460
SWIDTH 520 0
DWIDTH 15 0
BBX 15 14 0 -2
BITMAP
0000
01b0
3e90
0290
0290
0490
7e90
0b90
0810
0ff0
0010
0ff0
0400
07f0
ENDCHAR
STARTCHAR ADAD
ENCODING 44461
SWIDTH 520 0
DWIDTH 15 0
BBX 15 14 0 -2
BITMAP
0000
01b0
3e90
0290
0290
0490
7e90
0b90
0810
1ff0
0110
1f10
0810
0f10
ENDCHAR
STARTCHAR ADAE
ENCODING 44462
SWIDTH 520 0
DWIDTH 15 0
BBX 15 14 0 -2
BITMAP
0000
01b0
3e90
0290
0290
0490
7e90
0b90
0810
1ff0
0290
1e90
0890
0ef0
ENDCHAR
STARTCHAR ADAF
ENCODING 44463
SWIDTH 520 0
DWIDTH 15 0
BBX 15 14 0 -2
BITMAP
0000
01b0
3e90
0290
0290
0490
7e90
0b90
0810
1fb0
0290
1ef0
0890
0ff0
ENDCHAR
STARTCHAR ADB0
ENCODING 44464
SWIDTH 520 0
DWIDTH 15 0
BBX 15 14 0 -2
BITMAP
0000
01b0
3e90
0290
0290
0490
7e90
0b90
0810
1e60
0220
1e20
0850
0f88
ENDCHAR
STARTCHAR ADB1
ENCODING 44465
SWIDTH 520 0
DWIDTH 15 0
BBX 15 14 0 -2
BITMAP
0000
01b0
3e90
0290
0290
0490
7e90
0b90
0810
1ff0
0280
1ef0
0880
0f70
ENDCHAR
STARTCHAR ADB2
ENCODING 44466
SWIDTH 520 0
DWIDTH 15 0
BBX 15 14 0 -2
BITMAP
0000
01b0
3e90
0290
0290
0490
7e90
0b90
0810
1ff0
02a0
1ea0
08a0
0ff0
ENDCHAR
STARTCHAR ADB3
ENCODING 44467
SWIDTH 520 0
DWIDTH 15 0
BBX 15 14 0 -2
BITMAP
0000
01b0
3e90
0290
0290
0490
7e90
0b90
0810
1e20
03f8
1e60
0890
0e60
ENDCHAR
STARTCHAR ADB4
ENCODING 44468
SWIDTH 520 0
DWIDTH 15 0
BBX 15 14 0 -2
BITMAP
0000
01b0
7c90
0490
0490
0890
7e90
1390
1090
0000
0ff0
0410
0410
07f0
ENDCHAR
STARTCHAR ADB5
ENCODING 44469
SWIDTH 520 0
DWIDTH 15 0
BBX 15 14 0 -2
BITMAP
0000
01b0
7c90
0490
0490
0890
7e90
1390
1090
0010
0c10
07f0
0410
07f0
ENDCHAR
STARTCHAR ADB6
ENCODING 44470
SWIDTH 520 0
DWIDTH 15 0
BBX 15 14 0 -2
BITMAP
0000
01b0
7c90
0490
0490
0890
7e90
1390
1090
06c0
3240
1e40
12a0
1f18
ENDCHAR
STARTCHAR ADB7
ENCODING 44471
SWIDTH 520 0
DWIDTH 15 0
BBX 15 14 0 -2
BITMAP
0000
01b0
7c90
0490
0490
0890
7e90
1390
1090
0010
0300
0100
06c0
1830
ENDCHAR
STARTCHAR ADB8
ENCODING 44472
SWIDTH 520 0
DWIDTH 15 0
BBX 15 14 0 -2
BITMAP
0000
01b0
7c90
0490
0490
0890
7e90
1390
1090
0000
0cc0
0440
0aa0
3110
ENDCHAR
STARTCHAR ADB9
ENCODING 44473
SWIDTH 520 0
DWIDTH 15 0
BBX 15 14 0 -2
BITMAP
0000
01b0
7c90
0490
0490
0890
7e90
1390
1090
0000
03e0
0410
0410
03e0
ENDCHAR
STARTCHAR ADBA
ENCODING 44474
SWIDTH 520 0
DWIDTH 15 0
BBX 15 14 0 -2
BITMAP
0000
01b0
7c90
0490
0490
0890
7e90
1390
1090
0000
0ff0
0080
0360
1c18
ENDCHAR
STARTCHAR ADBB
ENCODING 44475
SWIDTH 520 0
DWIDTH 15 0
BBX 15 14 0 -2
BITMAP
0000
01b0
3e90
0290
0290
0490
7e90
0b90
0810
0100
1ff0
0100
06c0
1830
ENDCHAR
STARTCHAR ADBC
ENCODING 44476
SWIDTH 520 0
DWIDTH 15 0
BBX 15 14 0 -2
BITMAP
0000
01b0
7c90
0490
0490
0890
7e90
1390
1090
0000
0ff0
0010
0ff0
0010
ENDCHAR
STARTCHAR ADBD
ENCODING 44477
SWIDTH 520 0
DWIDTH 15 0
BBX 15 14 0 -2
BITMAP
0000
01b0
3e90
0290
0290
0490
7e90
0b90
0810
0ff0
0400
07f0
0400
07f0
ENDCHAR
STARTCHAR ADBE
ENCODING 44478
SWIDTH 520 0
DWIDTH 15 0
BBX 15 14 0 -2
BITMAP
0000
01b0
7c90
0490
0490
0890
7e90
1390
1090
0000
1ff0
0440
0240
1ff0
ENDCHAR
STARTCHAR ADBF
ENCODING 44479
SWIDTH 520 0
DWIDTH 15 0
BBX 15 14 0 -2
BITMAP
0000
01b0
3e90
0290
0290
0490
7e90
0b90
0810
0100
1ff0
0440
0820
07c0
ENDCHAR
STARTCHAR ADC0
ENCODING 44480
SWIDTH 520 0
DWIDTH 15 0
BBX 15 14 0 -2
BITMAP
0000
0060
3f20
0120
0120
0120
0220
7fe0
0420
0420
0420
0420
0420
0020
ENDCHAR
STARTCHAR ADC1
ENCODING 44481
SWIDTH 520 0
DWIDTH 15 0
BBX 15 14 0 -2
BITMAP
0000
0060
3f20
0120
0120
0220
7fe0
0420
0420
0000
1fe0
0020
0020
0020
ENDCHAR
STARTCHAR ADC2
ENCODING 44482
SWIDTH 520 0
DWIDTH 15 0
BBX 15 14 0 -2
BITMAP
0000
0060
3f20
0120
0120
0220
7fe0
0420
0420
0000
1fe0
0220
0220
0220
ENDCHAR
STARTCHAR ADC3
ENCODING 44483
SWIDTH 520 0
DWIDTH 15 0
BBX 15 14 0 -2
BITMAP
0000
0060
3f20
0120
0120
0220
7fe0
0420
0420
0000
3cc0
0440
04a0
0710
ENDCHAR
STARTCHAR ADC4
ENCODING 44484
SWIDTH 520 0
DWIDTH 15 0
BBX 15 14 0 -2
BITMAP
0000
0060
3f20
0120
0120
0220
7fe0
0420
0420
0420
0020
1800
0800
0fe0
ENDCHAR
STARTCHAR ADC5
ENCODING 44485
SWIDTH 520 0
DWIDTH 15 0
BBX 15 14 0 -2
BITMAP
0000
0060
3f20
0120
0120
0220
7fe0
0420
0420
0000
33e0
1080
1140
1e30
ENDCHAR
STARTCHAR ADC6
ENCODING 44486
SWIDTH 520 0
DWIDTH 15 0
BBX 15 14 0 -2
BITMAP
0000
0060
3f20
0120
0120
0220
7fa0
0420
0420
0080
33f0
10c0
1120
1ec0
ENDCHAR
STARTCHAR ADC7
ENCODING 44487
SWIDTH 520 0
DWIDTH 15 0
BBX 15 14 0 -2
BITMAP
0000
0060
3f20
0120
0120
0220
7fe0
0420
0420
0000
1fe0
0800
0800
0fe0
ENDCHAR
STARTCHAR ADC8
ENCODING 44488
SWIDTH 520 0
DWIDTH 15 0
BBX 15 14 0 -2
BITMAP
0000
0060
3f20
0120
0120
0220
7fa0
0420
0420
1fe0
0020
1fe0
0800
0fe0
ENDCHAR
STARTCHAR ADC9
ENCODING 44489
SWIDTH 520 0
DWIDTH 15 0
BBX 15 14 0 -2
BITMAP
0000
0060
3f20
0120
0120
0220
7fa0
0420
0420
3fe0
0220
3e20
1020
1e20
ENDCHAR
STARTCHAR ADCA
ENCODING 44490
SWIDTH 520 0
DWIDTH 15 0
BBX 15 14 0 -2
BITMAP
0000
0060
3f20
0120
0120
0220
7fa0
0420
0420
3fe0
0520
3d20
1120
1de0
ENDCHAR
STARTCHAR ADCB
ENCODING 44491
SWIDTH 520 0
DWIDTH 15 0
BBX 15 14 0 -2
BITMAP
0000
0060
3f20
0120
0120
0220
7fa0
0420
0420
3f60
0520
3de0
1120
1fe0
ENDCHAR
STARTCHAR ADCC
ENCODING 44492
SWIDTH 520 0
DWIDTH 15 0
BBX 15 14 0 -2
BITMAP
0000
0060
3f20
0120
0120
0220
7fa0
0420
0420
3cc0
0440
3c40
10a0
1f10
ENDCHAR
STARTCHAR ADCD
ENCODING 44493
SWIDTH 520 0
DWIDTH 15 0
BBX 15 14 0 -2
BITMAP
0000
0060
3f20
0120
0120
0220
7fa0
0420
0420
3fe0
0500
3de0
1100
1ee0
ENDCHAR
STARTCHAR ADCE
ENCODING 44494
SWIDTH 520 0
DWIDTH 15 0
BBX 15 14 0 -2
BITMAP
0000
0060
3f20
0120
0120
0220
7fa0
0420
0420
3fe0
0540
3d40
1140
1fe0
ENDCHAR
STARTCHAR ADCF
ENCODING 44495
SWIDTH 520 0
DWIDTH 15 0
BBX 15 14 0 -2
BITMAP
0000
0060
3f20
0120
0120
0220
7fa0
0420
0420
3c80
07f0
3cc0
1120
1cc0
ENDCHAR
STARTCHAR ADD0
ENCODING 44496
SWIDTH 520 0
DWIDTH 15 0
BBX 15 14 0 -2
BITMAP
0000
0060
3f20
0120
0120
0220
7fe0
0420
0420
0000
1fe0
0820
0820
0fe0
ENDCHAR
STARTCHAR ADD1
ENCODING 44497
SWIDTH 520 0
DWIDTH 15 0
BBX 15 14 0 -2
BITMAP
0000
0060
3f20
0120
0120
0220
7fe0
0420
0420
0020
1820
0fe0
0820
0fe0
ENDCHAR
STARTCHAR ADD2
ENCODING 44498
SWIDTH 520 0
DWIDTH 15 0
BBX 15 14 0 -2
BITMAP
0000
0060
3f20
0120
0120
0220
7fe0
0420
0420
06c0
3240
1e40
12a0
1f10
ENDCHAR
STARTCHAR ADD3
ENCODING 44499
SWIDTH 520 0
DWIDTH 15 0
BBX 15 14 0 -2
BITMAP
0000
0060
3f20
0120
0120
0220
7fe0
0420
0420
0020
0300
0100
06c0
1830
ENDCHAR
STARTCHAR ADD4
ENCODING 44500
SWIDTH 520 0
DWIDTH 15 0
BBX 15 14 0 -2
BITMAP
0000
0060
3f20
0120
0120
0220
7fe0
0420
0420
0000
0cc0
0440
0aa0
3110
ENDCHAR
STARTCHAR ADD5
ENCODING 44501
SWIDTH 520 0
DWIDTH 15 0
BBX 15 14 0 -2
BITMAP
0000
0060
3f20
0120
0120
0220
7fe0
0420
0420
0000
07c0
0820
0820
07c0
ENDCHAR
STARTCHAR ADD6
ENCODING 44502
SWIDTH 520 0
DWIDTH 15 0
BBX 15 14 0 -2
BITMAP
0000
0060
3f20
0120
0120
0220
7fe0
0420
0420
0000
0fe0
0100
06c0
1830
ENDCHAR
STARTCHAR ADD7
ENCODING 44503
SWIDTH 520 0
DWIDTH 15 0
BBX 15 14 0 -2
BITMAP
0000
0060
3f20
0120
0120
0220
7fa0
0420
0420
0100
1ff0
0100
06c0
1830
ENDCHAR
STARTCHAR ADD8
ENCODING 44504
SWIDTH 520 0
DWIDTH 15 0
BBX 15 14 0 -2
BITMAP
0000
0060
3f20
0120
0120
0220
7fe0
0420
0420
0000
1fe0
0020
1fe0
0020
ENDCHAR
STARTCHAR ADD9
ENCODING 44505
SWIDTH 520 0
DWIDTH 15 0
BBX 15 14 0 -2
BITMAP
0000
0060
3f20
0120
0120
0220
7fa0
0420
0420
1fe0
0800
0fe0
0800
0fe0
ENDCHAR
STARTCHAR ADDA
ENCODING 44506
SWIDTH 520 0
DWIDTH 15 0
BBX 15 14 0 -2
BITMAP
0000
0060
3f20
0120
0120
0220
7fe0
0420
0420
0000
1fe0
0880
0480
1fe0
ENDCHAR
STARTCHAR ADDB
ENCODING 44507
SWIDTH 520 0
DWIDTH 15 0
BBX 15 14 0 -2
BITMAP
0000
0060
3f20
0120
0120
0220
7fa0
0420
0420
0100
1ff0
0440
0820
07c0
ENDCHAR
STARTCHAR ADDC
ENCODING 44508
SWIDTH 520 0
DWIDTH 15 0
BBX 15 14 0 -2
BITMAP
0000
0000
1fe0
0020
0020
0020
0040
7ffc
0440
0440
0440
0440
0440
0040
ENDCHAR
STARTCHAR ADDD
ENCODING 44509
SWIDTH 520 0
DWIDTH 15 0
BBX 15 14 0 -2
BITMAP
0000
0000
1fe0
0020
0020
0040
7ffc
0440
0440
0440
1fe0
0020
0020
0020
ENDCHAR
STARTCHAR ADDE
ENCODING 44510
SWIDTH 520 0
DWIDTH 15 0
BBX 15 14 0 -2
BITMAP
0000
0000
1fe0
0020
0020
0040
7ffc
0440
0440
0440
1fe0
0220
0220
0220
ENDCHAR
STARTCHAR ADDF
ENCODING 44511
SWIDTH 520 0
DWIDTH 15 0
BBX 15 14 0 -2
BITMAP
0000
0000
1fe0
0020
0020
0040
7ffc
0440
0440
0440
1e60
0220
0250
0388
ENDCHAR
STARTCHAR ADE0
ENCODING 44512
SWIDTH 520 0
DWIDTH 15 0
BBX 15 14 0 -2
BITMAP
0000
0000
1fe0
0020
0020
0040
7ffc
0440
0440
0440
1840
0800
0800
0fe0
ENDCHAR
STARTCHAR ADE1
ENCODING 44513
SWIDTH 520 0
DWIDTH 15 0
BBX 15 14 0 -2
BITMAP
0000
0000
1fe0
0020
0020
0040
7ffc
0440
0440
0440
19f0
0840
08a0
0f10
ENDCHAR
STARTCHAR ADE2
ENCODING 44514
SWIDTH 520 0
DWIDTH 15 0
BBX 15 14 0 -2
BITMAP
0000
0000
1fe0
0020
0020
0040
7ffc
0440
0440
0080
33f0
10c0
1320
1cc0
ENDCHAR
STARTCHAR ADE3
ENCODING 44515
SWIDTH 520 0
DWIDTH 15 0
BBX 15 14 0 -2
BITMAP
0000
0000
1fe0
0020
0020
0040
7ffc
0440
0440
0440
1fe0
0800
0800
0fe0
ENDCHAR
STARTCHAR ADE4
ENCODING 44516
SWIDTH 520 0
DWIDTH 15 0
BBX 15 14 0 -2
BITMAP
0000
0000
1fe0
0020
0020
0040
7ffc
0440
0440
1fe0
0020
1fe0
0800
0ff0
ENDCHAR
STARTCHAR ADE5
ENCODING 44517
SWIDTH 520 0
DWIDTH 15 0
BBX 15 14 0 -2
BITMAP
0000
0000
1fe0
0020
0020
0040
7ffc
0440
0440
3ef0
0210
3e10
1010
1f10
ENDCHAR
STARTCHAR ADE6
ENCODING 44518
SWIDTH 520 0
DWIDTH 15 0
BBX 15 14 0 -2
BITMAP
0000
0000
1fe0
0020
0020
0040
7ffc
0440
0440
3df0
0490
3c90
1090
1ef0
ENDCHAR
STARTCHAR ADE7
ENCODING 44519
SWIDTH 520 0
DWIDTH 15 0
BBX 15 14 0 -2
BITMAP
0000
0000
1fe0
0020
0020
0040
7ffc
0440
0440
3db0
0490
3cf0
1090
1ef0
ENDCHAR
STARTCHAR ADE8
ENCODING 44520
SWIDTH 520 0
DWIDTH 15 0
BBX 15 14 0 -2
BITMAP
0000
0000
1fe0
0020
0020
0040
7ffc
0440
0440
3cc0
0440
3c40
10a0
1f10
ENDCHAR
STARTCHAR ADE9
ENCODING 44521
SWIDTH 520 0
DWIDTH 15 0
BBX 15 14 0 -2
BITMAP
0000
0000
1fe0
0020
0020
0040
7ffc
0440
0440
1ff0
0280
1ef0
0880
0f70
ENDCHAR
STARTCHAR ADEA
ENCODING 44522
SWIDTH 520 0
DWIDTH 15 0
BBX 15 14 0 -2
BITMAP
0000
0000
1fe0
0020
0020
0040
7ffc
0440
0440
1ff0
02a0
1ea0
08a0
0ff0
ENDCHAR
STARTCHAR ADEB
ENCODING 44523
SWIDTH 520 0
DWIDTH 15 0
BBX 15 14 0 -2
BITMAP
0000
0000
1fe0
0020
0020
0040
7ffc
0440
0440
3c40
05f8
3c60
1090
1e60
ENDCHAR
STARTCHAR ADEC
ENCODING 44524
SWIDTH 520 0
DWIDTH 15 0
BBX 15 14 0 -2
BITMAP
0000
0000
1fe0
0020
0020
0040
7ffc
0440
0440
0440
1fe0
0820
0820
0fe0
ENDCHAR
STARTCHAR ADED
ENCODING 44525
SWIDTH 520 0
DWIDTH 15 0
BBX 15 14 0 -2
BITMAP
0000
0000
1fe0
0020
0020
0040
7ffc
0440
0440
1c60
0820
0fe0
0820
0fe0
ENDCHAR
STARTCHAR ADEE
ENCODING 44526
SWIDTH 520 0
DWIDTH 15 0
BBX 15 14 0 -2
BITMAP
0000
0000
1fe0
0020
0020
0040
7ffc
0440
0440
06c0
3240
1e40
12a0
1f10
ENDCHAR
STARTCHAR ADEF
ENCODING 44527
SWIDTH 520 0
DWIDTH 15 0
BBX 15 14 0 -2
BITMAP
0000
0000
1fe0
0020
0020
0040
7ffc
0440
0440
0440
0300
0100
06c0
3830
ENDCHAR
STARTCHAR ADF0
ENCODING 44528
SWIDTH 520 0
DWIDTH 15 0
BBX 15 14 0 -2
BITMAP
0000
0000
1fe0
0020
0020
0040
7ffc
0440
0440
0440
0cc0
0440
0aa0
3110
ENDCHAR
STARTCHAR ADF1
ENCODING 44529
SWIDTH 520 0
DWIDTH 15 0
BBX 15 14 0 -2
BITMAP
0000
0000
1fe0
0020
0020
0040
7ffc
0440
0440
0440
07c0
0820
0820
07c0
ENDCHAR
STARTCHAR ADF2
ENCODING 44530
SWIDTH 520 0
DWIDTH 15 0
BBX 15 14 0 -2
BITMAP
0000
0000
1fe0
0020
0020
0040
7ffc
0440
0440
0440
1ff0
0100
06c0
1830
ENDCHAR
STARTCHAR ADF3
ENCODING 44531
SWIDTH 520 0
DWIDTH 15 0
BBX 15 14 0 -2
BITMAP
0000
0000
1fe0
0020
0020
0040
7ffc
0440
07c0
0000
0fe0
0100
06c0
1830
ENDCHAR
STARTCHAR ADF4
ENCODING 44532
SWIDTH 520 0
DWIDTH 15 0
BBX 15 14 0 -2
BITMAP
0000
0000
1fe0
0020
0020
0040
7ffc
0440
0440
1fe0
0020
1fe0
0020
0020
ENDCHAR
STARTCHAR ADF5
ENCODING 44533
SWIDTH 520 0
DWIDTH 15 0
BBX 15 14 0 -2
BITMAP
0000
0000
1fe0
0020
0020
0040
7ffc
0440
0440
1fe0
0800
0fe0
0800
0fe0
ENDCHAR
STARTCHAR ADF6
ENCODING 44534
SWIDTH 520 0
DWIDTH 15 0
BBX 15 14 0 -2
BITMAP
0000
0000
1fe0
0020
0020
0040
7ffc
0440
0440
0440
1ff0
0440
0240
1ff0
ENDCHAR
STARTCHAR ADF7
ENCODING 44535
SWIDTH 520 0
DWIDTH 15 0
BBX 15 14 0 -2
BITMAP
0000
0000
1fe0
0020
0020
0040
7ffc
0440
07c0
0000
3ff8
0440
0820
07c0
ENDCHAR
STARTCHAR ADF8
ENCODING 44536
SWIDTH 520 0
DWIDTH 15 0
BBX 15 14 0 -2
BITMAP
0000
0000
0000
1ff0
0010
0010
0010
0010
0010
0010
0020
0020
7ffc
0000
ENDCHAR
STARTCHAR ADF9
ENCODING 44537
SWIDTH 520 0
DWIDTH 15 0
BBX 15 14 0 -2
BITMAP
0000
0000
1fe0
0020
0020
0020
0040
7ffc
0000
0000
1fe0
0020
0020
0020
ENDCHAR
STARTCHAR ADFA
ENCODING 44538
SWIDTH 520 0
DWIDTH 15 0
BBX 15 14 0 -2
BITMAP
0000
0000
1fe0
0020
0020
0020
0040
7ffc
0000
0000
1fe0
0220
0220
0220
ENDCHAR
STARTCHAR ADFB
ENCODING 44539
SWIDTH 520 0
DWIDTH 15 0
BBX 15 14 0 -2
BITMAP
0000
0000
1fe0
0020
0020
0020
0040
7ffc
0000
0000
1e60
0220
0250
0388
ENDCHAR
STARTCHAR ADFC
ENCODING 44540
SWIDTH 520 0
DWIDTH 15 0
BBX 15 14 0 -2
BITMAP
0000
0000
1fe0
0020
0020
0020
0040
7ffc
0000
0000
1800
0800
0800
0fe0
ENDCHAR
STARTCHAR ADFD
ENCODING 44541
SWIDTH 520 0
DWIDTH 15 0
BBX 15 14 0 -2
BITMAP
0000
0000
1fe0
0020
0020
0020
0040
7ffc
0000
0000
19f0
0840
08a0
0f10
ENDCHAR
STARTCHAR ADFE
ENCODING 44542
SWIDTH 520 0
DWIDTH 15 0
BBX 15 14 0 -2
BITMAP
0000
0000
1fe0
0020
0020
0040
7ffc
0000
0000
0080
33f0
10c0
1320
1cc0
ENDCHAR
STARTCHAR ADFF
ENCODING 44543
SWIDTH 520 0
DWIDTH 15 0
BBX 15 14 0 -2
BITMAP
0000
0000
1fe0
0020
0020
0020
0040
7ffc
0000
0000
1fe0
0800
0800
0fe0
ENDCHAR
STARTCHAR AE00
ENCODING 44544
SWIDTH 520 0
DWIDTH 15 0
BBX 15 14 0 -2
BITMAP
0000
0000
1fe0
0020
0020
0040
7ffc
0000
0000
1fe0
0020
1fe0
0800
0fe0
ENDCHAR
STARTCHAR AE01
ENCODING 44545
SWIDTH 520 0
DWIDTH 15 0
BBX 15 14 0 -2
BITMAP
0000
0000
1fe0
0020
0020
0040
7ffc
0000
0000
3ef0
0210
3e10
1010
1f10
ENDCHAR
STARTCHAR AE02
ENCODING 44546
SWIDTH 520 0
DWIDTH 15 0
BBX 15 14 0 -2
BITMAP
0000
0000
1fe0
0020
0020
0040
7ffc
0000
0000
3df0
0490
3c90
1090
1ef0
ENDCHAR
STARTCHAR AE03
ENCODING 44547
SWIDTH 520 0
DWIDTH 15 0
BBX 15 14 0 -2
BITMAP
0000
0000
1fe0
0020
0020
0040
7ffc
0000
0000
3db0
0490
3cf0
1090
1ef0
ENDCHAR
STARTCHAR AE04
ENCODING 44548
SWIDTH 520 0
DWIDTH 15 0
BBX 15 14 0 -2
BITMAP
0000
0000
1fe0
0020
0020
0040
7ffc
0000
0000
3cc0
0440
3c40
10a0
1f10
ENDCHAR
STARTCHAR AE05
ENCODING 44549
SWIDTH 520 0
DWIDTH 15 0
BBX 15 14 0 -2
BITMAP
0000
0000
1fe0
0020
0020
0040
7ffc
0000
0000
1ff0
0280
1ef0
0880
0f70
ENDCHAR
STARTCHAR AE06
ENCODING 44550
SWIDTH 520 0
DWIDTH 15 0
BBX 15 14 0 -2
BITMAP
0000
0000
1fe0
0020
0020
0040
7ffc
0000
0000
1ff0
02a0
1ea0
08a0
0ff0
ENDCHAR
STARTCHAR AE07
ENCODING 44551
SWIDTH 520 0
DWIDTH 15 0
BBX 15 14 0 -2
BITMAP
0000
0000
1fe0
0020
0020
0040
7ffc
0000
0000
3c40
05f8
3c60
1090
1e60
ENDCHAR
STARTCHAR AE08
ENCODING 44552
SWIDTH 520 0
DWIDTH 15 0
BBX 15 14 0 -2
BITMAP
0000
0000
1fe0
0020
0020
0020
0040
7ffc
0000
0000
1fe0
0820
0820
0fe0
ENDCHAR
STARTCHAR AE09
ENCODING 44553
SWIDTH 520 0
DWIDTH 15 0
BBX 15 14 0 -2
BITMAP
0000
0000
1fe0
0020
0020
0020
0040
7ffc
0000
1860
0820
0fe0
0820
0fe0
ENDCHAR
STARTCHAR AE0A
ENCODING 44554
SWIDTH 520 0
DWIDTH 15 0
BBX 15 14 0 -2
BITMAP
0000
0000
1fe0
0020
0020
0020
0040
7ffc
0000
06c0
3240
1e40
12a0
1f10
ENDCHAR
STARTCHAR AE0B
ENCODING 44555
SWIDTH 520 0
DWIDTH 15 0
BBX 15 14 0 -2
BITMAP
0000
0000
1fe0
0020
0020
0020
0040
7ffc
0000
0000
0300
0100
06c0
3830
ENDCHAR
STARTCHAR AE0C
ENCODING 44556
SWIDTH 520 0
DWIDTH 15 0
BBX 15 14 0 -2
BITMAP
0000
0000
1fe0
0020
0020
0020
0040
7ffc
0000
0000
0cc0
0440
0aa0
3110
ENDCHAR
STARTCHAR AE0D
ENCODING 44557
SWIDTH 520 0
DWIDTH 15 0
BBX 15 14 0 -2
BITMAP
0000
0000
1fe0
0020
0020
0020
0040
7ffc
0000
0000
07c0
0820
0820
07c0
ENDCHAR
STARTCHAR AE0E
ENCODING 44558
SWIDTH 520 0
DWIDTH 15 0
BBX 15 14 0 -2
BITMAP
0000
0000
1fe0
0020
0020
0020
0040
7ffc
0000
0000
1ff0
0100
06c0
1830
ENDCHAR
STARTCHAR AE0F
ENCODING 44559
SWIDTH 520 0
DWIDTH 15 0
BBX 15 14 0 -2
BITMAP
0000
0000
1fe0
0020
0020
0040
7ffc
0000
0000
0100
0fe0
0100
06c0
1830
ENDCHAR
STARTCHAR AE10
ENCODING 44560
SWIDTH 520 0
DWIDTH 15 0
BBX 15 14 0 -2
BITMAP
0000
0000
1fe0
0020
0020
0020
0040
7ffc
0000
1fe0
0020
1fe0
0020
0020
ENDCHAR
STARTCHAR AE11
ENCODING 44561
SWIDTH 520 0
DWIDTH 15 0
BBX 15 14 0 -2
BITMAP
0000
0000
1fe0
0020
0020
0040
7ffc
0000
0000
1fe0
0800
0fe0
0800
0fe0
ENDCHAR
STARTCHAR AE12
ENCODING 44562
SWIDTH 520 0
DWIDTH 15 0
BBX 15 14 0 -2
BITMAP
0000
0000
1fe0
0020
0020
0020
0040
7ffc
0000
0000
1ff0
0440
0240
1ff0
ENDCHAR
STARTCHAR AE13
ENCODING 44563
SWIDTH 520 0
DWIDTH 15 0
BBX 15 14 0 -2
BITMAP
0000
0000
1fe0
0020
0020
0040
7ffc
0000
0000
0100
3ff8
0440
0820
07c0
ENDCHAR
STARTCHAR AE14
ENCODING 44564
SWIDTH 520 0
DWIDTH 15 0
BBX 15 14 0 -2
BITMAP
0000
0060
0020
3f20
0120
0120
0120
0120
0220
0020
7fe0
0020
0020
0020
ENDCHAR
STARTCHAR AE15
ENCODING 44565
SWIDTH 520 0
DWIDTH 15 0
BBX 15 14 0 -2
BITMAP
0000
0060
3f20
0120
0120
0120
0220
7fe0
0020
0000
1fe0
0020
0020
0020
ENDCHAR
STARTCHAR AE16
ENCODING 44566
SWIDTH 520 0
DWIDTH 15 0
BBX 15 14 0 -2
BITMAP
0000
0060
3f20
0120
0120
0120
0220
7fe0
0020
0000
1fe0
0220
0220
0220
ENDCHAR
STARTCHAR AE17
ENCODING 44567
SWIDTH 520 0
DWIDTH 15 0
BBX 15 14 0 -2
BITMAP
0000
0060
3f20
0120
0120
0120
0220
7fe0
0020
0000
3cc0
0440
04a0
0710
ENDCHAR
STARTCHAR AE18
ENCODING 44568
SWIDTH 520 0
DWIDTH 15 0
BBX 15 14 0 -2
BITMAP
0000
0060
3f20
0120
0120
0120
0220
7fe0
0020
0020
0020
1800
0800
0fe0
ENDCHAR
STARTCHAR AE19
ENCODING 44569
SWIDTH 520 0
DWIDTH 15 0
BBX 15 14 0 -2
BITMAP
0000
0060
3f20
0120
0120
0120
0220
7fe0
0020
0000
33e0
1080
1140
1e30
ENDCHAR
STARTCHAR AE1A
ENCODING 44570
SWIDTH 520 0
DWIDTH 15 0
BBX 15 14 0 -2
BITMAP
0000
0060
3f20
0120
0120
0220
7fe0
0020
0020
0080
33f0
10c0
1120
1ec0
ENDCHAR
STARTCHAR AE1B
ENCODING 44571
SWIDTH 520 0
DWIDTH 15 0
BBX 15 14 0 -2
BITMAP
0000
0060
3f20
0120
0120
0120
0220
7fe0
0020
0000
1fe0
0800
0800
0fe0
ENDCHAR
STARTCHAR AE1C
ENCODING 44572
SWIDTH 520 0
DWIDTH 15 0
BBX 15 14 0 -2
BITMAP
0000
0060
3f20
0120
0120
0220
7fe0
0020
0020
1fe0
0020
1fe0
0800
0fe0
ENDCHAR
STARTCHAR AE1D
ENCODING 44573
SWIDTH 520 0
DWIDTH 15 0
BBX 15 14 0 -2
BITMAP
0000
0060
3f20
0120
0120
0220
7fe0
0020
0020
3fe0
0220
3e20
1020
1e20
ENDCHAR
STARTCHAR AE1E
ENCODING 44574
SWIDTH 520 0
DWIDTH 15 0
BBX 15 14 0 -2
BITMAP
0000
0060
3f20
0120
0120
0220
7fe0
0020
0020
3fe0
0520
3d20
1120
1de0
ENDCHAR
STARTCHAR AE1F
ENCODING 44575
SWIDTH 520 0
DWIDTH 15 0
BBX 15 14 0 -2
BITMAP
0000
0060
3f20
0120
0120
0220
7fe0
0020
0020
3f60
0520
3de0
1120
1fe0
ENDCHAR
STARTCHAR AE20
ENCODING 44576
SWIDTH 520 0
DWIDTH 15 0
BBX 15 14 0 -2
BITMAP
0000
0060
3f20
0120
0120
0220
7fe0
0020
0020
3cc0
0440
3c40
10a0
1f10
ENDCHAR
STARTCHAR AE21
ENCODING 44577
SWIDTH 520 0
DWIDTH 15 0
BBX 15 14 0 -2
BITMAP
0000
0060
3f20
0120
0120
0220
7fe0
0020
0020
3fe0
0500
3de0
1100
1ee0
ENDCHAR
STARTCHAR AE22
ENCODING 44578
SWIDTH 520 0
DWIDTH 15 0
BBX 15 14 0 -2
BITMAP
0000
0060
3f20
0120
0120
0220
7fe0
0020
0020
3fe0
0540
3d40
1140
1fe0
ENDCHAR
STARTCHAR AE23
ENCODING 44579
SWIDTH 520 0
DWIDTH 15 0
BBX 15 14 0 -2
BITMAP
0000
0060
3f20
0120
0120
0220
7fe0
0020
0020
3c80
07f0
3cc0
1120
1cc0
ENDCHAR
STARTCHAR AE24
ENCODING 44580
SWIDTH 520 0
DWIDTH 15 0
BBX 15 14 0 -2
BITMAP
0000
0060
3f20
0120
0120
0120
0220
7fe0
0020
0000
1fe0
0820
0820
0fe0
ENDCHAR
STARTCHAR AE25
ENCODING 44581
SWIDTH 520 0
DWIDTH 15 0
BBX 15 14 0 -2
BITMAP
0000
0060
3f20
0120
0120
0120
0220
7fe0
0020
0020
1820
0fe0
0820
0fe0
ENDCHAR
STARTCHAR AE26
ENCODING 44582
SWIDTH 520 0
DWIDTH 15 0
BBX 15 14 0 -2
BITMAP
0000
0060
3f20
0120
0120
0120
0220
7fe0
0020
06c0
3240
1e40
12a0
1f10
ENDCHAR
STARTCHAR AE27
ENCODING 44583
SWIDTH 520 0
DWIDTH 15 0
BBX 15 14 0 -2
BITMAP
0000
0060
3f20
0120
0120
0120
0220
7fe0
0020
0020
0300
0100
06c0
1830
ENDCHAR
STARTCHAR AE28
ENCODING 44584
SWIDTH 520 0
DWIDTH 15 0
BBX 15 14 0 -2
BITMAP
0000
0060
3f20
0120
0120
0120
0220
7fe0
0020
0000
0cc0
0440
0aa0
3110
ENDCHAR
STARTCHAR AE29
ENCODING 44585
SWIDTH 520 0
DWIDTH 15 0
BBX 15 14 0 -2
BITMAP
0000
0060
3f20
0120
0120
0120
0220
7fe0
0020
0000
07c0
0820
0820
07c0
ENDCHAR
STARTCHAR AE2A
ENCODING 44586
SWIDTH 520 0
DWIDTH 15 0
BBX 15 14 0 -2
BITMAP
0000
0060
3f20
0120
0120
0120
0220
7fe0
0020
0000
0fe0
0100
06c0
1830
ENDCHAR
STARTCHAR AE2B
ENCODING 44587
SWIDTH 520 0
DWIDTH 15 0
BBX 15 14 0 -2
BITMAP
0000
0060
3f20
0120
0120
0220
7fe0
0020
0020
0100
1ff0
0100
06c0
1830
ENDCHAR
STARTCHAR AE2C
ENCODING 44588
SWIDTH 520 0
DWIDTH 15 0
BBX 15 14 0 -2
BITMAP
0000
0060
3f20
0120
0120
0120
0220
7fe0
0020
0000
1fe0
0020
1fe0
0020
ENDCHAR
STARTCHAR AE2D
ENCODING 44589
SWIDTH 520 0
DWIDTH 15 0
BBX 15 14 0 -2
BITMAP
0000
0060
3f20
0120
0120
0220
7fe0
0020
0020
1fe0
0800
0fe0
0800
0fe0
ENDCHAR
STARTCHAR AE2E
ENCODING 44590
SWIDTH 520 0
DWIDTH 15 0
BBX 15 14 0 -2
BITMAP
0000
0060
3f20
0120
0120
0120
0220
7fe0
0020
0000
1fe0
0880
0480
1fe0
ENDCHAR
STARTCHAR AE2F
ENCODING 44591
SWIDTH 520 0
DWIDTH 15 0
BBX 15 14 0 -2
BITMAP
0000
0060
3f20
0120
0120
0220
7fe0
0020
0020
0100
1ff0
0440
0820
07c0
ENDCHAR
STARTCHAR AE30
ENCODING 44592
SWIDTH 520 0
DWIDTH 15 0
BBX 15 14 0 -2
BITMAP
0000
0060
0020
3f20
0120
0220
0220
0420
0820
1020
6020
0020
0020
0020
ENDCHAR
STARTCHAR AE31
ENCODING 44593
SWIDTH 520 0
DWIDTH 15 0
BBX 15 14 0 -2
BITMAP
0000
0060
3e20
0220
0220
0420
0820
1020
6020
0000
1fe0
0020
0020
0020
ENDCHAR
STARTCHAR AE32
ENCODING 44594
SWIDTH 520 0
DWIDTH 15 0
BBX 15 14 0 -2
BITMAP
0000
0060
3e20
0220
0220
0420
0820
1020
6020
0000
1fe0
0220
0220
0220
ENDCHAR
STARTCHAR AE33
ENCODING 44595
SWIDTH 520 0
DWIDTH 15 0
BBX 15 14 0 -2
BITMAP
0000
0060
3e20
0220
0220
0420
0820
1020
6020
0000
3cc0
0440
04a0
0710
ENDCHAR
STARTCHAR AE34
ENCODING 44596
SWIDTH 520 0
DWIDTH 15 0
BBX 15 14 0 -2
BITMAP
0000
0060
3e20
0220
0220
0420
0820
1020
6020
0020
1820
0800
0800
0fe0
ENDCHAR
STARTCHAR AE35
ENCODING 44597
SWIDTH 520 0
DWIDTH 15 0
BBX 15 14 0 -2
BITMAP
0000
0060
3e20
0220
0220
0420
0820
1020
6020
0000
33e0
1080
1140
1e30
ENDCHAR
STARTCHAR AE36
ENCODING 44598
SWIDTH 520 0
DWIDTH 15 0
BBX 15 14 0 -2
BITMAP
0000
0060
3e20
0220
0220
0420
0820
1020
6020
0080
33f0
10c0
1320
1cc0
ENDCHAR
STARTCHAR AE37
ENCODING 44599
SWIDTH 520 0
DWIDTH 15 0
BBX 15 14 0 -2
BITMAP
0000
0060
3e20
0220
0220
0420
0820
1020
6020
0000
1fe0
0800
0800
0fe0
ENDCHAR
STARTCHAR AE38
ENCODING 44600
SWIDTH 520 0
DWIDTH 15 0
BBX 15 14 0 -2
BITMAP
0000
0060
3e20
0220
0220
0420
0820
1020
6000
1fe0
0020
1fe0
0800
0fe0
ENDCHAR
STARTCHAR AE39
ENCODING 44601
SWIDTH 520 0
DWIDTH 15 0
BBX 15 14 0 -2
BITMAP
0000
0060
3e20
0220
0220
0420
0820
1020
6000
3fe0
0220
3e20
1020
1f20
ENDCHAR
STARTCHAR AE3A
ENCODING 44602
SWIDTH 520 0
DWIDTH 15 0
BBX 15 14 0 -2
BITMAP
0000
0060
3e20
0220
0220
0420
0820
1020
6000
3fe0
0520
3d20
1120
1de0
ENDCHAR
STARTCHAR AE3B
ENCODING 44603
SWIDTH 520 0
DWIDTH 15 0
BBX 15 14 0 -2
BITMAP
0000
0060
3e20
0220
0220
0420
0820
1020
6000
3f60
0520
3de0
1120
1fe0
ENDCHAR
STARTCHAR AE3C
ENCODING 44604
SWIDTH 520 0
DWIDTH 15 0
BBX 15 14 0 -2
BITMAP
0000
0060
3e20
0220
0220
0420
0820
1020
6000
3cc0
0440
3c40
10a0
1f10
ENDCHAR
STARTCHAR AE3D
ENCODING 44605
SWIDTH 520 0
DWIDTH 15 0
BBX 15 14 0 -2
BITMAP
0000
0060
3e20
0220
0220
0420
0820
1020
6000
3fe0
0500
3de0
1100
1ee0
ENDCHAR
STARTCHAR AE3E
ENCODING 44606
SWIDTH 520 0
DWIDTH 15 0
BBX 15 14 0 -2
BITMAP
0000
0060
3e20
0220
0220
0420
0820
1020
6000
1ff0
02a0
1ea0
08a0
0ff0
ENDCHAR
STARTCHAR AE3F
ENCODING 44607
SWIDTH 520 0
DWIDTH 15 0
BBX 15 14 0 -2
BITMAP
0000
0060
3e20
0220
0220
0420
0820
1020
60c0
3c00
07f0
3cc0
1120
1cc0
ENDCHAR
STARTCHAR AE40
ENCODING 44608
SWIDTH 520 0
DWIDTH 15 0
BBX 15 14 0 -2
BITMAP
0000
0060
3e20
0220
0220
0420
0820
1020
6020
0000
1fe0
0820
0820
0fe0
ENDCHAR
STARTCHAR AE41
ENCODING 44609
SWIDTH 520 0
DWIDTH 15 0
BBX 15 14 0 -2
BITMAP
0000
0060
3e20
0220
0220
0420
0820
1020
6000
1860
0820
0fe0
0820
0fe0
ENDCHAR
STARTCHAR AE42
ENCODING 44610
SWIDTH 520 0
DWIDTH 15 0
BBX 15 14 0 -2
BITMAP
0000
0060
3e20
0220
0220
0420
0820
1020
6000
06c0
3240
1e40
12a0
1f10
ENDCHAR
STARTCHAR AE43
ENCODING 44611
SWIDTH 520 0
DWIDTH 15 0
BBX 15 14 0 -2
BITMAP
0000
0060
3e20
0220
0220
0420
0820
1020
6020
0180
0080
0100
06c0
1830
ENDCHAR
STARTCHAR AE44
ENCODING 44612
SWIDTH 520 0
DWIDTH 15 0
BBX 15 14 0 -2
BITMAP
0000
0060
3e20
0220
0220
0420
0820
1020
6020
0000
0cc0
0440
0aa0
3110
ENDCHAR
STARTCHAR AE45
ENCODING 44613
SWIDTH 520 0
DWIDTH 15 0
BBX 15 14 0 -2
BITMAP
0000
0060
3e20
0220
0220
0420
0820
1020
6020
0000
07c0
0820
0820
07c0
ENDCHAR
STARTCHAR AE46
ENCODING 44614
SWIDTH 520 0
DWIDTH 15 0
BBX 15 14 0 -2
BITMAP
0000
0060
3e20
0220
0220
0420
0820
1020
6020
0000
0fe0
0100
06c0
1830
ENDCHAR
STARTCHAR AE47
ENCODING 44615
SWIDTH 520 0
DWIDTH 15 0
BBX 15 14 0 -2
BITMAP
0000
0060
3e20
0220
0220
0420
0820
1020
6000
0100
1ff0
0100
06c0
1830
ENDCHAR
STARTCHAR AE48
ENCODING 44616
SWIDTH 520 0
DWIDTH 15 0
BBX 15 14 0 -2
BITMAP
0000
0060
3e20
0220
0220
0420
0820
1020
6000
1fe0
0020
1fe0
0020
0020
ENDCHAR
STARTCHAR AE49
ENCODING 44617
SWIDTH 520 0
DWIDTH 15 0
BBX 15 14 0 -2
BITMAP
0000
0060
3e20
0220
0220
0420
0820
1020
6000
1fe0
0800
0fe0
0800
0fe0
ENDCHAR
STARTCHAR AE4A
ENCODING 44618
SWIDTH 520 0
DWIDTH 15 0
BBX 15 14 0 -2
BITMAP
0000
0060
3e20
0220
0220
0420
0820
1020
6020
0000
1ff0
0440
0240
1ff0
ENDCHAR
STARTCHAR AE4B
ENCODING 44619
SWIDTH 520 0
DWIDTH 15 0
BBX 15 14 0 -2
BITMAP
0000
0060
3e20
0220
0220
0420
0820
1020
6020
0100
1ff0
0440
0820
07c0
ENDCHAR
STARTCHAR AE4C
ENCODING 44620
SWIDTH 520 0
DWIDTH 15 0
BBX 15 14 0 -2
BITMAP
0000
0060
0020
3f20
0920
0920
0920
113c
1220
2220
4420
0820
0020
0020
ENDCHAR
STARTCHAR AE4D
ENCODING 44621
SWIDTH 520 0
DWIDTH 15 0
BBX 15 14 0 -2
BITMAP
0000
0060
3f20
0920
0920
123c
1220
2420
4820
0000
1fe0
0020
0020
0020
ENDCHAR
STARTCHAR AE4E
ENCODING 44622
SWIDTH 520 0
DWIDTH 15 0
BBX 15 14 0 -2
BITMAP
0000
0060
3f20
0920
0920
123c
1220
2420
4820
0000
1fe0
0220
0220
0220
ENDCHAR
STARTCHAR AE4F
ENCODING 44623
SWIDTH 520 0
DWIDTH 15 0
BBX 15 14 0 -2
BITMAP
0000
0060
3f20
0920
0920
123c
1220
2420
4820
0000
3cc0
0440
04a0
0710
ENDCHAR
STARTCHAR AE50
ENCODING 44624
SWIDTH 520 0
DWIDTH 15 0
BBX 15 14 0 -2
BITMAP
0000
0060
3f20
0920
0920
1220
123c
2420
4820
0020
1820
0800
0800
0fe0
ENDCHAR
STARTCHAR AE51
ENCODING 44625
SWIDTH 520 0
DWIDTH 15 0
BBX 15 14 0 -2
BITMAP
0000
0060
3f20
0920
0920
123c
1220
2420
4820
0000
33e0
1080
1140
1e30
ENDCHAR
STARTCHAR AE52
ENCODING 44626
SWIDTH 520 0
DWIDTH 15 0
BBX 15 14 0 -2
BITMAP
0000
0060
3f20
0920
0920
123c
1220
2420
4820
0080
33f0
10c0
1320
1cc0
ENDCHAR
STARTCHAR AE53
ENCODING 44627
SWIDTH 520 0
DWIDTH 15 0
BBX 15 14 0 -2
BITMAP
0000
0060
3f20
0920
0920
123c
1220
2420
4820
0000
1fe0
0800
0800
0fe0
ENDCHAR
STARTCHAR AE54
ENCODING 44628
SWIDTH 520 0
DWIDTH 15 0
BBX 15 14 0 -2
BITMAP
0000
0060
3f20
0920
0920
123c
1220
2420
4800
1fe0
0020
1fe0
0800
0fe0
ENDCHAR
STARTCHAR AE55
ENCODING 44629
SWIDTH 520 0
DWIDTH 15 0
BBX 15 14 0 -2
BITMAP
0000
0060
3f20
0920
0920
123c
1220
2420
4800
3fe0
0220
3e20
1020
1e20
ENDCHAR
STARTCHAR AE56
ENCODING 44630
SWIDTH 520 0
DWIDTH 15 0
BBX 15 14 0 -2
BITMAP
0000
0060
3f20
0920
0920
123c
1220
2420
4800
3fe0
0520
3d20
1120
1de0
ENDCHAR
STARTCHAR AE57
ENCODING 44631
SWIDTH 520 0
DWIDTH 15 0
BBX 15 14 0 -2
BITMAP
0000
0060
3f20
0920
0920
123c
1220
2420
4800
3f60
0520
3de0
1120
1fe0
ENDCHAR
STARTCHAR AE58
ENCODING 44632
SWIDTH 520 0
DWIDTH 15 0
BBX 15 14 0 -2
BITMAP
0000
0060
3f20
0920
0920
123c
1220
2420
4800
3cc0
0440
3c40
10a0
1f10
ENDCHAR
STARTCHAR AE59
ENCODING 44633
SWIDTH 520 0
DWIDTH 15 0
BBX 15 14 0 -2
BITMAP
0000
0060
3f20
0920
0920
123c
1220
2420
4800
3fe0
0500
3de0
1100
1ee0
ENDCHAR
STARTCHAR AE5A
ENCODING 44634
SWIDTH 520 0
DWIDTH 15 0
BBX 15 14 0 -2
BITMAP
0000
0060
3f20
0920
0920
123c
1220
2420
4800
1ff0
02a0
1ea0
08a0
0ff0
ENDCHAR
STARTCHAR AE5B
ENCODING 44635
SWIDTH 520 0
DWIDTH 15 0
BBX 15 14 0 -2
BITMAP
0000
0060
3f20
0920
0920
123c
1220
2420
48c0
3c00
07f0
3cc0
1120
1cc0
ENDCHAR
STARTCHAR AE5C
ENCODING 44636
SWIDTH 520 0
DWIDTH 15 0
BBX 15 14 0 -2
BITMAP
0000
0060
3f20
0920
0920
123c
1220
2420
4820
0000
1fe0
0820
0820
0fe0
ENDCHAR
STARTCHAR AE5D
ENCODING 44637
SWIDTH 520 0
DWIDTH 15 0
BBX 15 14 0 -2
BITMAP
0000
0060
3f20
0920
1220
123c
2420
4820
1000
0060
1820
0fe0
0820
0fe0
ENDCHAR
STARTCHAR AE5E
ENCODING 44638
SWIDTH 520 0
DWIDTH 15 0
BBX 15 14 0 -2
BITMAP
0000
0060
3f20
0920
0920
123c
1220
2420
4800
06c0
3240
1e40
12a0
1f10
ENDCHAR
STARTCHAR AE5F
ENCODING 44639
SWIDTH 520 0
DWIDTH 15 0
BBX 15 14 0 -2
BITMAP
0000
0060
3f20
0920
0920
123c
1220
2420
4820
0180
0080
0100
06c0
1830
ENDCHAR
STARTCHAR AE60
ENCODING 44640
SWIDTH 520 0
DWIDTH 15 0
BBX 15 14 0 -2
BITMAP
0000
0060
3f20
0920
0920
123c
1220
2420
4820
0000
0cc0
0440
0aa0
3110
ENDCHAR
STARTCHAR AE61
ENCODING 44641
SWIDTH 520 0
DWIDTH 15 0
BBX 15 14 0 -2
BITMAP
0000
0060
3f20
0920
0920
123c
1220
2420
4820
0000
07c0
0820
0820
07c0
ENDCHAR
STARTCHAR AE62
ENCODING 44642
SWIDTH 520 0
DWIDTH 15 0
BBX 15 14 0 -2
BITMAP
0000
0060
3f20
0920
0920
123c
1220
2420
4820
0000
0fe0
0100
06c0
1830
ENDCHAR
STARTCHAR AE63
ENCODING 44643
SWIDTH 520 0
DWIDTH 15 0
BBX 15 14 0 -2
BITMAP
0000
0060
3f20
0920
0920
123c
1220
2420
4800
0100
1ff0
0100
06c0
1830
ENDCHAR
STARTCHAR AE64
ENCODING 44644
SWIDTH 520 0
DWIDTH 15 0
BBX 15 14 0 -2
BITMAP
0000
0060
3f20
0920
0920
123c
1220
2420
4800
1fe0
0020
1fe0
0020
0020
ENDCHAR
STARTCHAR AE65
ENCODING 44645
SWIDTH 520 0
DWIDTH 15 0
BBX 15 14 0 -2
BITMAP
0000
0060
3f20
0920
0920
123c
1220
2420
4800
1fe0
0800
0fe0
0800
0fe0
ENDCHAR
STARTCHAR AE66
ENCODING 44646
SWIDTH 520 0
DWIDTH 15 0
BBX 15 14 0 -2
BITMAP
0000
0060
3f20
0920
0920
123c
1220
2420
4820
0000
1ff0
0440
0240
1ff0
ENDCHAR
STARTCHAR AE67
ENCODING 44647
SWIDTH 520 0
DWIDTH 15 0
BBX 15 14 0 -2
BITMAP
0000
0060
3f20
0920
0920
123c
1220
2420
4820
0100
1ff0
0440
0820
07c0
ENDCHAR
STARTCHAR AE68
ENCODING 44648
SWIDTH 520 0
DWIDTH 15 0
BBX 15 14 0 -2
BITMAP
0000
0030
00d0
3f50
0950
0950
1250
1270
2450
4450
0850
1050
0050
0010
ENDCHAR
STARTCHAR AE69
ENCODING 44649
SWIDTH 520 0
DWIDTH 15 0
BBX 15 14 0 -2
BITMAP
0000
0030
00d0
3f50
0950
1270
1250
2450
4810
0000
0ff0
0010
0010
0010
ENDCHAR
STARTCHAR AE6A
ENCODING 44650
SWIDTH 520 0
DWIDTH 15 0
BBX 15 14 0 -2
BITMAP
0000
0030
00d0
3f50
0950
1270
1250
2450
4810
0000
1ef0
0210
0210
0210
ENDCHAR
STARTCHAR AE6B
ENCODING 44651
SWIDTH 520 0
DWIDTH 15 0
BBX 15 14 0 -2
BITMAP
0000
0030
00d0
3f50
0950
1270
1250
2450
4810
0000
1e60
0220
0250
0388
ENDCHAR
STARTCHAR AE6C
ENCODING 44652
SWIDTH 520 0
DWIDTH 15 0
BBX 15 14 0 -2
BITMAP
0000
0030
00d0
3f50
0950
1270
1250
2450
4850
0050
1810
0800
0800
0ff0
ENDCHAR
STARTCHAR AE6D
ENCODING 44653
SWIDTH 520 0
DWIDTH 15 0
BBX 15 14 0 -2
BITMAP
0000
0030
00d0
3f50
0950
1270
1250
2450
4810
0000
19f0
0840
08a0
0f18
ENDCHAR
STARTCHAR AE6E
ENCODING 44654
SWIDTH 520 0
DWIDTH 15 0
BBX 15 14 0 -2
BITMAP
0000
0030
00d0
3f50
0950
1270
1250
2450
4810
0040
19f8
0860
0990
0e60
ENDCHAR
STARTCHAR AE6F
ENCODING 44655
SWIDTH 520 0
DWIDTH 15 0
BBX 15 14 0 -2
BITMAP
0000
0030
00d0
3f50
0950
1270
1250
2450
4810
0000
1ff0
0800
0800
0ff0
ENDCHAR
STARTCHAR AE70
ENCODING 44656
SWIDTH 520 0
DWIDTH 15 0
BBX 15 14 0 -2
BITMAP
0000
0030
00d0
3f50
0950
1270
1250
2450
4800
0ff0
0010
0ff0
0400
07f0
ENDCHAR
STARTCHAR AE71
ENCODING 44657
SWIDTH 520 0
DWIDTH 15 0
BBX 15 14 0 -2
BITMAP
0000
0030
00d0
3f50
0950
1270
1250
2450
4800
1ff0
0110
1f10
0810
0f10
ENDCHAR
STARTCHAR AE72
ENCODING 44658
SWIDTH 520 0
DWIDTH 15 0
BBX 15 14 0 -2
BITMAP
0000
0030
00d0
3f50
0950
1270
1250
2450
4800
1ff0
0290
1e90
0890
0ef0
ENDCHAR
STARTCHAR AE73
ENCODING 44659
SWIDTH 520 0
DWIDTH 15 0
BBX 15 14 0 -2
BITMAP
0000
0030
00d0
3f50
0950
1270
1250
2450
4800
1fb0
0290
1ef0
0890
0ff0
ENDCHAR
STARTCHAR AE74
ENCODING 44660
SWIDTH 520 0
DWIDTH 15 0
BBX 15 14 0 -2
BITMAP
0000
0030
00d0
3f50
0950
1270
1250
2450
4800
1e60
0220
1e20
0850
0f88
ENDCHAR
STARTCHAR AE75
ENCODING 44661
SWIDTH 520 0
DWIDTH 15 0
BBX 15 14 0 -2
BITMAP
0000
0030
00d0
3f50
0950
1270
1250
2450
4800
1ff0
0280
1ef0
0880
0f70
ENDCHAR
STARTCHAR AE76
ENCODING 44662
SWIDTH 520 0
DWIDTH 15 0
BBX 15 14 0 -2
BITMAP
0000
0030
00d0
3f50
0950
1270
1250
2450
4800
1ff0
02a0
1ea0
08a0
0ff0
ENDCHAR
STARTCHAR AE77
ENCODING 44663
SWIDTH 520 0
DWIDTH 15 0
BBX 15 14 0 -2
BITMAP
0000
0030
00d0
3f50
0950
1270
1250
2450
4800
1e40
03f8
1e60
0890
0e60
ENDCHAR
STARTCHAR AE78
ENCODING 44664
SWIDTH 520 0
DWIDTH 15 0
BBX 15 14 0 -2
BITMAP
0000
0030
00d0
3f50
0950
1270
1250
2450
4810
0000
0ff0
0410
0410
07f0
ENDCHAR
STARTCHAR AE79
ENCODING 44665
SWIDTH 520 0
DWIDTH 15 0
BBX 15 14 0 -2
BITMAP
0000
0030
00d0
3f50
0950
1270
1250
2450
4800
0c30
0410
07f0
0410
07f0
ENDCHAR
STARTCHAR AE7A
ENCODING 44666
SWIDTH 520 0
DWIDTH 15 0
BBX 15 14 0 -2
BITMAP
0000
0030
00d0
3f50
0950
1270
1250
2450
4810
06c0
3240
1e40
12a0
1f18
ENDCHAR
STARTCHAR AE7B
ENCODING 44667
SWIDTH 520 0
DWIDTH 15 0
BBX 15 14 0 -2
BITMAP
0000
0030
00d0
3f50
0950
1270
1250
2450
4810
0190
0080
0100
06c0
1830
ENDCHAR
STARTCHAR AE7C
ENCODING 44668
SWIDTH 520 0
DWIDTH 15 0
BBX 15 14 0 -2
BITMAP
0000
0030
00d0
3f50
0950
1270
1250
2450
4810
0000
0cc0
0440
0aa0
3110
ENDCHAR
STARTCHAR AE7D
ENCODING 44669
SWIDTH 520 0
DWIDTH 15 0
BBX 15 14 0 -2
BITMAP
0000
0030
00d0
3f50
0950
1270
1250
2450
4810
0000
03e0
0410
0410
03e0
ENDCHAR
STARTCHAR AE7E
ENCODING 44670
SWIDTH 520 0
DWIDTH 15 0
BBX 15 14 0 -2
BITMAP
0000
0030
00d0
3f50
0950
1270
1250
2450
4810
0000
0ff0
0080
0360
1c18
ENDCHAR
STARTCHAR AE7F
ENCODING 44671
SWIDTH 520 0
DWIDTH 15 0
BBX 15 14 0 -2
BITMAP
0000
0030
00d0
3f50
0950
1270
1250
2450
4810
0100
1ff0
0100
06c0
1830
ENDCHAR
STARTCHAR AE80
ENCODING 44672
SWIDTH 520 0
DWIDTH 15 0
BBX 15 14 0 -2
BITMAP
0000
0030
00d0
3f50
0950
1270
1250
2450
4800
0ff0
0010
0ff0
0010
0010
ENDCHAR
STARTCHAR AE81
ENCODING 44673
SWIDTH 520 0
DWIDTH 15 0
BBX 15 14 0 -2
BITMAP
0000
0030
00d0
3f50
0950
1270
1250
2450
4800
0ff0
0400
07f0
0400
07f0
ENDCHAR
STARTCHAR AE82
ENCODING 44674
SWIDTH 520 0
DWIDTH 15 0
BBX 15 14 0 -2
BITMAP
0000
0030
00d0
3f50
0950
1270
1250
2450
4810
0000
0ff0
0440
0240
0ff0
ENDCHAR
STARTCHAR AE83
ENCODING 44675
SWIDTH 520 0
DWIDTH 15 0
BBX 15 14 0 -2
BITMAP
0000
0030
00d0
3f50
0950
1270
1250
2450
4810
0100
1ff0
0440
0820
07c0
ENDCHAR
STARTCHAR AE84
ENCODING 44676
SWIDTH 520 0
DWIDTH 15 0
BBX 15 14 0 -2
BITMAP
0000
0060
0020
3f20
0920
093c
0920
1120
1220
223c
4420
0820
0020
0020
ENDCHAR
STARTCHAR AE85
ENCODING 44677
SWIDTH 520 0
DWIDTH 15 0
BBX 15 14 0 -2
BITMAP
0000
0060
3f20
093c
0920
1220
123c
2420
4820
0000
1fe0
0020
0020
0020
ENDCHAR
STARTCHAR AE86
ENCODING 44678
SWIDTH 520 0
DWIDTH 15 0
BBX 15 14 0 -2
BITMAP
0000
0060
3f20
093c
0920
1220
123c
2420
4820
0000
1fe0
0220
0220
0220
ENDCHAR
STARTCHAR AE87
ENCODING 44679
SWIDTH 520 0
DWIDTH 15 0
BBX 15 14 0 -2
BITMAP
0000
0060
3f20
093c
0920
1220
123c
2420
4820
0000
3cc0
0440
04a0
0710
ENDCHAR
STARTCHAR AE88
ENCODING 44680
SWIDTH 520 0
DWIDTH 15 0
BBX 15 14 0 -2
BITMAP
0000
0060
3f20
0920
093c
1220
1220
243c
4820
0020
1820
0800
0800
0fe0
ENDCHAR
STARTCHAR AE89
ENCODING 44681
SWIDTH 520 0
DWIDTH 15 0
BBX 15 14 0 -2
BITMAP
0000
0060
3f20
093c
0920
1220
123c
2420
4820
0000
33e0
1080
1140
1e30
ENDCHAR
STARTCHAR AE8A
ENCODING 44682
SWIDTH 520 0
DWIDTH 15 0
BBX 15 14 0 -2
BITMAP
0000
0060
3f20
093c
0920
1220
123c
2420
4820
0080
33f0
10c0
1320
1cc0
ENDCHAR
STARTCHAR AE8B
ENCODING 44683
SWIDTH 520 0
DWIDTH 15 0
BBX 15 14 0 -2
BITMAP
0000
0060
3f20
093c
0920
1220
123c
2420
4820
0000
1fe0
0800
0800
0fe0
ENDCHAR
STARTCHAR AE8C
ENCODING 44684
SWIDTH 520 0
DWIDTH 15 0
BBX 15 14 0 -2
BITMAP
0000
0060
3f20
093c
0920
1220
123c
2420
4800
1fe0
0020
1fe0
0800
0fe0
ENDCHAR
STARTCHAR AE8D
ENCODING 44685
SWIDTH 520 0
DWIDTH 15 0
BBX 15 14 0 -2
BITMAP
0000
0060
3f20
093c
0920
1220
123c
2420
4800
3fe0
0220
3e20
1020
1e20
ENDCHAR
STARTCHAR AE8E
ENCODING 44686
SWIDTH 520 0
DWIDTH 15 0
BBX 15 14 0 -2
BITMAP
0000
0060
3f20
093c
0920
1220
123c
2420
4800
3fe0
0520
3d20
1120
1de0
ENDCHAR
STARTCHAR AE8F
ENCODING 44687
SWIDTH 520 0
DWIDTH 15 0
BBX 15 14 0 -2
BITMAP
0000
0060
3f20
093c
0920
1220
123c
2420
4800
3f60
0520
3de0
1120
1fe0
ENDCHAR
STARTCHAR AE90
ENCODING 44688
SWIDTH 520 0
DWIDTH 15 0
BBX 15 14 0 -2
BITMAP
0000
0060
3f20
093c
0920
1220
123c
2420
4800
3cc0
0440
3c40
10a0
1f10
ENDCHAR
STARTCHAR AE91
ENCODING 44689
SWIDTH 520 0
DWIDTH 15 0
BBX 15 14 0 -2
BITMAP
0000
0060
3f20
093c
0920
1220
123c
2420
4800
3fe0
0500
3de0
1100
1ee0
ENDCHAR
STARTCHAR AE92
ENCODING 44690
SWIDTH 520 0
DWIDTH 15 0
BBX 15 14 0 -2
BITMAP
0000
0060
3f20
093c
0920
1220
123c
2420
4800
1ff0
02a0
1ea0
08a0
0ff0
ENDCHAR
STARTCHAR AE93
ENCODING 44691
SWIDTH 520 0
DWIDTH 15 0
BBX 15 14 0 -2
BITMAP
0000
0060
3f20
093c
0920
1220
123c
2420
48c0
3c00
07f0
3cc0
1120
1cc0
ENDCHAR
STARTCHAR AE94
ENCODING 44692
SWIDTH 520 0
DWIDTH 15 0
BBX 15 14 0 -2
BITMAP
0000
0060
3f20
093c
0920
1220
123c
2420
4820
0000
1fe0
0820
0820
0fe0
ENDCHAR
STARTCHAR AE95
ENCODING 44693
SWIDTH 520 0
DWIDTH 15 0
BBX 15 14 0 -2
BITMAP
0000
0060
3f20
093c
0920
1220
123c
2420
4800
1860
0820
0fe0
0820
0fe0
ENDCHAR
STARTCHAR AE96
ENCODING 44694
SWIDTH 520 0
DWIDTH 15 0
BBX 15 14 0 -2
BITMAP
0000
0060
3f20
093c
0920
1220
123c
2420
4800
06c0
3240
1e40
12a0
1f10
ENDCHAR
STARTCHAR AE97
ENCODING 44695
SWIDTH 520 0
DWIDTH 15 0
BBX 15 14 0 -2
BITMAP
0000
0060
3f20
093c
0920
1220
123c
2420
4820
0180
0080
0100
06c0
1830
ENDCHAR
STARTCHAR AE98
ENCODING 44696
SWIDTH 520 0
DWIDTH 15 0
BBX 15 14 0 -2
BITMAP
0000
0060
3f20
093c
0920
1220
123c
2420
4820
0000
0cc0
0440
0aa0
3110
ENDCHAR
STARTCHAR AE99
ENCODING 44697
SWIDTH 520 0
DWIDTH 15 0
BBX 15 14 0 -2
BITMAP
0000
0060
3f20
093c
0920
1220
123c
2420
4820
0000
07c0
0820
0820
07c0
ENDCHAR
STARTCHAR AE9A
ENCODING 44698
SWIDTH 520 0
DWIDTH 15 0
BBX 15 14 0 -2
BITMAP
0000
0060
3f20
093c
0920
1220
123c
2420
4820
0000
0fe0
0100
06c0
1830
ENDCHAR
STARTCHAR AE9B
ENCODING 44699
SWIDTH 520 0
DWIDTH 15 0
BBX 15 14 0 -2
BITMAP
0000
0060
3f20
093c
0920
1220
123c
2420
4800
0100
1ff0
0100
06c0
1830
ENDCHAR
STARTCHAR AE9C
ENCODING 44700
SWIDTH 520 0
DWIDTH 15 0
BBX 15 14 0 -2
BITMAP
0000
0060
3f20
093c
0920
1220
123c
2420
4800
1fe0
0020
1fe0
0020
0020
ENDCHAR
STARTCHAR AE9D
ENCODING 44701
SWIDTH 520 0
DWIDTH 15 0
BBX 15 14 0 -2
BITMAP
0000
0060
3f20
093c
0920
1220
123c
2420
4800
1fe0
0800
0fe0
0800
0fe0
ENDCHAR
STARTCHAR AE9E
ENCODING 44702
SWIDTH 520 0
DWIDTH 15 0
BBX 15 14 0 -2
BITMAP
0000
0060
3f20
093c
0920
1220
123c
2420
4820
0000
1ff0
0440
0240
1ff0
ENDCHAR
STARTCHAR AE9F
ENCODING 44703
SWIDTH 520 0
DWIDTH 15 0
BBX 15 14 0 -2
BITMAP
0000
0060
3f20
093c
0920
1220
123c
2420
4820
0100
1ff0
0440
0820
07c0
ENDCHAR
STARTCHAR AEA0
ENCODING 44704
SWIDTH 520 0
DWIDTH 15 0
BBX 15 14 0 -2
BITMAP
0000
0030
00d0
3f50
0950
0970
1250
1250
2450
4470
0850
1050
0050
0010
ENDCHAR
STARTCHAR AEA1
ENCODING 44705
SWIDTH 520 0
DWIDTH 15 0
BBX 15 14 0 -2
BITMAP
0000
0030
00d0
3f50
0970
1250
1250
2470
4850
0000
0ff0
0010
0010
0010
ENDCHAR
STARTCHAR AEA2
ENCODING 44706
SWIDTH 520 0
DWIDTH 15 0
BBX 15 14 0 -2
BITMAP
0000
0030
00d0
3f50
0970
1250
1250
2470
4850
0000
1ef0
0210
0210
0210
ENDCHAR
STARTCHAR AEA3
ENCODING 44707
SWIDTH 520 0
DWIDTH 15 0
BBX 15 14 0 -2
BITMAP
0000
0030
00d0
3f50
0970
1250
1250
2470
4850
0000
1e60
0220
0250
0388
ENDCHAR
STARTCHAR AEA4
ENCODING 44708
SWIDTH 520 0
DWIDTH 15 0
BBX 15 14 0 -2
BITMAP
0000
0030
00d0
3f50
0970
1250
1250
2470
4850
0050
1810
0800
0800
0ff0
ENDCHAR
STARTCHAR AEA5
ENCODING 44709
SWIDTH 520 0
DWIDTH 15 0
BBX 15 14 0 -2
BITMAP
0000
0030
00d0
3f50
0970
1250
1250
2470
4850
0000
19f0
0840
08a0
0f18
ENDCHAR
STARTCHAR AEA6
ENCODING 44710
SWIDTH 520 0
DWIDTH 15 0
BBX 15 14 0 -2
BITMAP
0000
0030
00d0
3f50
0970
1250
1250
2470
4850
0040
19f8
0860
0990
0e60
ENDCHAR
STARTCHAR AEA7
ENCODING 44711
SWIDTH 520 0
DWIDTH 15 0
BBX 15 14 0 -2
BITMAP
0000
0030
00d0
3f50
0970
1250
1250
2470
4850
0000
1ff0
0800
0800
0ff0
ENDCHAR
STARTCHAR AEA8
ENCODING 44712
SWIDTH 520 0
DWIDTH 15 0
BBX 15 14 0 -2
BITMAP
0000
0030
00d0
3f50
0970
1250
1250
2470
4850
0ff0
0010
0ff0
0400
07f0
ENDCHAR
STARTCHAR AEA9
ENCODING 44713
SWIDTH 520 0
DWIDTH 15 0
BBX 15 14 0 -2
BITMAP
0000
0030
00d0
3f50
0970
1250
1250
2470
4850
1ff0
0110
1f10
0810
0f10
ENDCHAR
STARTCHAR AEAA
ENCODING 44714
SWIDTH 520 0
DWIDTH 15 0
BBX 15 14 0 -2
BITMAP
0000
0030
00d0
3f50
0970
1250
1250
2470
4850
1ff0
0290
1e90
0890
0ef0
ENDCHAR
STARTCHAR AEAB
ENCODING 44715
SWIDTH 520 0
DWIDTH 15 0
BBX 15 14 0 -2
BITMAP
0000
0030
00d0
3f50
0970
1250
1250
2470
4850
1fb0
0290
1ef0
0890
0ff0
ENDCHAR
STARTCHAR AEAC
ENCODING 44716
SWIDTH 520 0
DWIDTH 15 0
BBX 15 14 0 -2
BITMAP
0000
0030
00d0
3f50
0970
1250
1250
2470
4850
1e60
0220
1e20
0850
0f88
ENDCHAR
STARTCHAR AEAD
ENCODING 44717
SWIDTH 520 0
DWIDTH 15 0
BBX 15 14 0 -2
BITMAP
0000
0030
00d0
3f50
0970
1250
1250
2470
4850
1ff0
0280
1ef0
0880
0f70
ENDCHAR
STARTCHAR AEAE
ENCODING 44718
SWIDTH 520 0
DWIDTH 15 0
BBX 15 14 0 -2
BITMAP
0000
0030
00d0
3f50
0970
1250
1250
2470
4850
1ff0
02a0
1ea0
08a0
0ff0
ENDCHAR
STARTCHAR AEAF
ENCODING 44719
SWIDTH 520 0
DWIDTH 15 0
BBX 15 14 0 -2
BITMAP
0000
0030
00d0
3f50
0970
1250
1250
2470
4850
1e40
03f8
1e60
0890
0e60
ENDCHAR
STARTCHAR AEB0
ENCODING 44720
SWIDTH 520 0
DWIDTH 15 0
BBX 15 14 0 -2
BITMAP
0000
0030
00d0
3f50
0970
1250
1250
2470
4850
0000
0ff0
0410
0410
07f0
ENDCHAR
STARTCHAR AEB1
ENCODING 44721
SWIDTH 520 0
DWIDTH 15 0
BBX 15 14 0 -2
BITMAP
0000
0030
00d0
3f50
0970
1250
1250
2470
4850
0c30
0410
07f0
0410
07f0
ENDCHAR
STARTCHAR AEB2
ENCODING 44722
SWIDTH 520 0
DWIDTH 15 0
BBX 15 14 0 -2
BITMAP
0000
0030
00d0
3f50
0970
1250
1250
2470
4850
06c0
3240
1e40
12a0
1f18
ENDCHAR
STARTCHAR AEB3
ENCODING 44723
SWIDTH 520 0
DWIDTH 15 0
BBX 15 14 0 -2
BITMAP
0000
0030
00d0
3f50
0970
1250
1250
2470
4850
0190
0080
0100
06c0
1830
ENDCHAR
STARTCHAR AEB4
ENCODING 44724
SWIDTH 520 0
DWIDTH 15 0
BBX 15 14 0 -2
BITMAP
0000
0030
00d0
3f50
0970
1250
1250
2470
4850
0000
0cc0
0440
0aa0
3110
ENDCHAR
STARTCHAR AEB5
ENCODING 44725
SWIDTH 520 0
DWIDTH 15 0
BBX 15 14 0 -2
BITMAP
0000
0030
00d0
3f50
0970
1250
1250
2470
4850
0000
03e0
0410
0410
03e0
ENDCHAR
STARTCHAR AEB6
ENCODING 44726
SWIDTH 520 0
DWIDTH 15 0
BBX 15 14 0 -2
BITMAP
0000
0030
00d0
3f50
0970
1250
1250
2470
4850
0000
0ff0
0080
0360
1c18
ENDCHAR
STARTCHAR AEB7
ENCODING 44727
SWIDTH 520 0
DWIDTH 15 0
BBX 15 14 0 -2
BITMAP
0000
0030
00d0
3f50
0970
1250
1250
2470
4850
0100
1ff0
0100
06c0
1830
ENDCHAR
STARTCHAR AEB8
ENCODING 44728
SWIDTH 520 0
DWIDTH 15 0
BBX 15 14 0 -2
BITMAP
0000
0030
00d0
3f50
0970
1250
1250
2470
4850
0ff0
0010
0ff0
0010
0010
ENDCHAR
STARTCHAR AEB9
ENCODING 44729
SWIDTH 520 0
DWIDTH 15 0
BBX 15 14 0 -2
BITMAP
0000
0030
00d0
3f50
0970
1250
1250
2470
4850
0ff0
0400
07f0
0400
07f0
ENDCHAR
STARTCHAR AEBA
ENCODING 44730
SWIDTH 520 0
DWIDTH 15 0
BBX 15 14 0 -2
BITMAP
0000
0030
00d0
3f50
0970
1250
1250
2470
4850
0000
0ff0
0440
0240
0ff0
ENDCHAR
STARTCHAR AEBB
ENCODING 44731
SWIDTH 520 0
DWIDTH 15 0
BBX 15 14 0 -2
BITMAP
0000
0030
00d0
3f50
0970
1250
1250
2470
4850
0100
1ff0
0440
0820
07c0
ENDCHAR
STARTCHAR AEBC
ENCODING 44732
SWIDTH 520 0
DWIDTH 15 0
BBX 15 14 0 -2
BITMAP
0000
0060
0020
3f20
0920
0920
09e0
1120
1220
2220
4420
0820
0020
0020
ENDCHAR
STARTCHAR AEBD
ENCODING 44733
SWIDTH 520 0
DWIDTH 15 0
BBX 15 14 0 -2
BITMAP
0000
0060
3f20
0920
09e0
1220
1220
2420
4820
0000
1fe0
0020
0020
0020
ENDCHAR
STARTCHAR AEBE
ENCODING 44734
SWIDTH 520 0
DWIDTH 15 0
BBX 15 14 0 -2
BITMAP
0000
0060
3f20
0920
09e0
1220
1220
2420
4820
0000
1fe0
0220
0220
0220
ENDCHAR
STARTCHAR AEBF
ENCODING 44735
SWIDTH 520 0
DWIDTH 15 0
BBX 15 14 0 -2
BITMAP
0000
0060
3f20
0920
09e0
1220
1220
2420
4820
0000
3cc0
0440
04a0
0710
ENDCHAR
STARTCHAR AEC0
ENCODING 44736
SWIDTH 520 0
DWIDTH 15 0
BBX 15 14 0 -2
BITMAP
0000
0060
3f20
0920
09e0
1220
1220
2420
4820
0020
1820
0800
0800
0fe0
ENDCHAR
STARTCHAR AEC1
ENCODING 44737
SWIDTH 520 0
DWIDTH 15 0
BBX 15 14 0 -2
BITMAP
0000
0060
3f20
0920
09e0
1220
1220
2420
4820
0000
33e0
1080
1140
1e30
ENDCHAR
STARTCHAR AEC2
ENCODING 44738
SWIDTH 520 0
DWIDTH 15 0
BBX 15 14 0 -2
BITMAP
0000
0060
3f20
0920
09e0
1220
1220
2420
4820
0080
33f0
10c0
1320
1cc0
ENDCHAR
STARTCHAR AEC3
ENCODING 44739
SWIDTH 520 0
DWIDTH 15 0
BBX 15 14 0 -2
BITMAP
0000
0060
3f20
0920
09e0
1220
1220
2420
4820
0000
1fe0
0800
0800
0fe0
ENDCHAR
STARTCHAR AEC4
ENCODING 44740
SWIDTH 520 0
DWIDTH 15 0
BBX 15 14 0 -2
BITMAP
0000
0060
3f20
0920
09e0
1220
1220
2420
4800
1fe0
0020
1fe0
0800
0fe0
ENDCHAR
STARTCHAR AEC5
ENCODING 44741
SWIDTH 520 0
DWIDTH 15 0
BBX 15 14 0 -2
BITMAP
0000
0060
3f20
0920
09e0
1220
1220
2420
4800
3fe0
0220
3e20
1020
1f20
ENDCHAR
STARTCHAR AEC6
ENCODING 44742
SWIDTH 520 0
DWIDTH 15 0
BBX 15 14 0 -2
BITMAP
0000
0060
3f20
0920
09e0
1220
1220
2420
4800
3fe0
0520
3d20
1120
1de0
ENDCHAR
STARTCHAR AEC7
ENCODING 44743
SWIDTH 520 0
DWIDTH 15 0
BBX 15 14 0 -2
BITMAP
0000
0060
3f20
0920
09e0
1220
1220
2420
4800
3f60
0520
3de0
1120
1fe0
ENDCHAR
STARTCHAR AEC8
ENCODING 44744
SWIDTH 520 0
DWIDTH 15 0
BBX 15 14 0 -2
BITMAP
0000
0060
3f20
0920
09e0
1220
1220
2420
4800
3cc0
0440
3c40
10a0
1f10
ENDCHAR
STARTCHAR AEC9
ENCODING 44745
SWIDTH 520 0
DWIDTH 15 0
BBX 15 14 0 -2
BITMAP
0000
0060
3f20
0920
09e0
1220
1220
2420
4800
3fe0
0500
3de0
1100
1ee0
ENDCHAR
STARTCHAR AECA
ENCODING 44746
SWIDTH 520 0
DWIDTH 15 0
BBX 15 14 0 -2
BITMAP
0000
0060
3f20
0920
09e0
1220
1220
2420
4800
1ff0
02a0
1ea0
08a0
0ff0
ENDCHAR
STARTCHAR AECB
ENCODING 44747
SWIDTH 520 0
DWIDTH 15 0
BBX 15 14 0 -2
BITMAP
0000
0060
3f20
0920
09e0
1220
1220
2420
48c0
3c00
07f0
3cc0
1120
1cc0
ENDCHAR
STARTCHAR AECC
ENCODING 44748
SWIDTH 520 0
DWIDTH 15 0
BBX 15 14 0 -2
BITMAP
0000
0060
3f20
0920
09e0
1220
1220
2420
4820
0000
1fe0
0820
0820
0fe0
ENDCHAR
STARTCHAR AECD
ENCODING 44749
SWIDTH 520 0
DWIDTH 15 0
BBX 15 14 0 -2
BITMAP
0000
0060
3f20
0920
09e0
1220
1220
2420
4800
1860
0820
0fe0
0820
0fe0
ENDCHAR
STARTCHAR AECE
ENCODING 44750
SWIDTH 520 0
DWIDTH 15 0
BBX 15 14 0 -2
BITMAP
0000
0060
3f20
0920
09e0
1220
1220
2420
4800
06c0
3240
1e40
12a0
1f10
ENDCHAR
STARTCHAR AECF
ENCODING 44751
SWIDTH 520 0
DWIDTH 15 0
BBX 15 14 0 -2
BITMAP
0000
0060
3f20
0920
09e0
1220
1220
2420
4820
0180
0080
0100
06c0
1830
ENDCHAR
STARTCHAR AED0
ENCODING 44752
SWIDTH 520 0
DWIDTH 15 0
BBX 15 14 0 -2
BITMAP
0000
0060
3f20
0920
09e0
1220
1220
2420
4820
0000
0cc0
0440
0aa0
3110
ENDCHAR
STARTCHAR AED1
ENCODING 44753
SWIDTH 520 0
DWIDTH 15 0
BBX 15 14 0 -2
BITMAP
0000
0060
3f20
0920
09e0
1220
1220
2420
4820
0000
07c0
0820
0820
07c0
ENDCHAR
STARTCHAR AED2
ENCODING 44754
SWIDTH 520 0
DWIDTH 15 0
BBX 15 14 0 -2
BITMAP
0000
0060
3f20
0920
09e0
1220
1220
2420
4820
0000
0fe0
0100
06c0
1830
ENDCHAR
STARTCHAR AED3
ENCODING 44755
SWIDTH 520 0
DWIDTH 15 0
BBX 15 14 0 -2
BITMAP
0000
0060
3f20
0920
09e0
1220
1220
2420
4800
0100
1ff0
0100
06c0
1830
ENDCHAR
STARTCHAR AED4
ENCODING 44756
SWIDTH 520 0
DWIDTH 15 0
BBX 15 14 0 -2
BITMAP
0000
0060
3f20
0920
09e0
1220
1220
2420
4800
1fe0
0020
1fe0
0020
0020
ENDCHAR
STARTCHAR AED5
ENCODING 44757
SWIDTH 520 0
DWIDTH 15 0
BBX 15 14 0 -2
BITMAP
0000
0060
3f20
0920
09e0
1220
1220
2420
4800
1fe0
0800
0fe0
0800
0fe0
ENDCHAR
STARTCHAR AED6
ENCODING 44758
SWIDTH 520 0
DWIDTH 15 0
BBX 15 14 0 -2
BITMAP
0000
0060
3f20
0920
09e0
1220
1220
2420
4820
0000
1ff0
0440
0240
1ff0
ENDCHAR
STARTCHAR AED7
ENCODING 44759
SWIDTH 520 0
DWIDTH 15 0
BBX 15 14 0 -2
BITMAP
0000
0060
3f20
0920
09e0
1220
1220
2420
4820
0100
1ff0
0440
0820
07c0
ENDCHAR
STARTCHAR AED8
ENCODING 44760
SWIDTH 520 0
DWIDTH 15 0
BBX 15 14 0 -2
BITMAP
0000
0030
00d0
3f50
0950
0950
13d0
1250
2450
4450
0850
1050
0050
0010
ENDCHAR
STARTCHAR AED9
ENCODING 44761
SWIDTH 520 0
DWIDTH 15 0
BBX 15 14 0 -2
BITMAP
0000
0030
00d0
3f50
09d0
1250
1250
2450
4810
0000
0ff0
0010
0010
0010
ENDCHAR
STARTCHAR AEDA
ENCODING 44762
SWIDTH 520 0
DWIDTH 15 0
BBX 15 14 0 -2
BITMAP
0000
0030
00d0
3f50
09d0
1250
1250
2450
4810
0000
1ef0
0210
0210
0210
ENDCHAR
STARTCHAR AEDB
ENCODING 44763
SWIDTH 520 0
DWIDTH 15 0
BBX 15 14 0 -2
BITMAP
0000
0030
00d0
3f50
09d0
1250
1250
2450
4810
0000
1e60
0220
0250
0388
ENDCHAR
STARTCHAR AEDC
ENCODING 44764
SWIDTH 520 0
DWIDTH 15 0
BBX 15 14 0 -2
BITMAP
0000
0030
00d0
3f50
0950
13d0
1250
2450
4850
0050
1810
0800
0800
0ff0
ENDCHAR
STARTCHAR AEDD
ENCODING 44765
SWIDTH 520 0
DWIDTH 15 0
BBX 15 14 0 -2
BITMAP
0000
0030
00d0
3f50
09d0
1250
1250
2450
4810
0000
19f0
0840
08a0
0f18
ENDCHAR
STARTCHAR AEDE
ENCODING 44766
SWIDTH 520 0
DWIDTH 15 0
BBX 15 14 0 -2
BITMAP
0000
0030
00d0
3f50
09d0
1250
1250
2450
4810
0040
19f8
0860
0990
0e60
ENDCHAR
STARTCHAR AEDF
ENCODING 44767
SWIDTH 520 0
DWIDTH 15 0
BBX 15 14 0 -2
BITMAP
0000
0030
00d0
3f50
09d0
1250
1250
2450
4810
0000
1ff0
0800
0800
0ff0
ENDCHAR
STARTCHAR AEE0
ENCODING 44768
SWIDTH 520 0
DWIDTH 15 0
BBX 15 14 0 -2
BITMAP
0000
0030
00d0
3f50
09d0
1250
1250
2450
4800
0ff0
0010
0ff0
0400
07f0
ENDCHAR
STARTCHAR AEE1
ENCODING 44769
SWIDTH 520 0
DWIDTH 15 0
BBX 15 14 0 -2
BITMAP
0000
0030
00d0
3f50
09d0
1250
1250
2450
4800
1ff0
0110
1f10
0810
0f10
ENDCHAR
STARTCHAR AEE2
ENCODING 44770
SWIDTH 520 0
DWIDTH 15 0
BBX 15 14 0 -2
BITMAP
0000
0030
00d0
3f50
09d0
1250
1250
2450
4800
1ff0
0290
1e90
0890
0ef0
ENDCHAR
STARTCHAR AEE3
ENCODING 44771
SWIDTH 520 0
DWIDTH 15 0
BBX 15 14 0 -2
BITMAP
0000
0030
00d0
3f50
09d0
1250
1250
2450
4800
1fb0
0290
1ef0
0890
0ff0
ENDCHAR
STARTCHAR AEE4
ENCODING 44772
SWIDTH 520 0
DWIDTH 15 0
BBX 15 14 0 -2
BITMAP
0000
0030
00d0
3f50
09d0
1250
1250
2450
4800
1e60
0220
1e20
0850
0f88
ENDCHAR
STARTCHAR AEE5
ENCODING 44773
SWIDTH 520 0
DWIDTH 15 0
BBX 15 14 0 -2
BITMAP
0000
0030
00d0
3f50
09d0
1250
1250
2450
4800
1ff0
0280
1ef0
0880
0f70
ENDCHAR
STARTCHAR AEE6
ENCODING 44774
SWIDTH 520 0
DWIDTH 15 0
BBX 15 14 0 -2
BITMAP
0000
0030
00d0
3f50
09d0
1250
1250
2450
4800
1ff0
02a0
1ea0
08a0
0ff0
ENDCHAR
STARTCHAR AEE7
ENCODING 44775
SWIDTH 520 0
DWIDTH 15 0
BBX 15 14 0 -2
BITMAP
0000
0030
00d0
3f50
09d0
1250
1250
2450
4800
1e40
03f8
1e60
0890
0e60
ENDCHAR
STARTCHAR AEE8
ENCODING 44776
SWIDTH 520 0
DWIDTH 15 0
BBX 15 14 0 -2
BITMAP
0000
0030
00d0
3f50
09d0
1250
1250
2450
4810
0000
0ff0
0410
0410
07f0
ENDCHAR
STARTCHAR AEE9
ENCODING 44777
SWIDTH 520 0
DWIDTH 15 0
BBX 15 14 0 -2
BITMAP
0000
0030
00d0
3f50
09d0
1250
1250
2450
4800
0c30
0410
07f0
0410
07f0
ENDCHAR
STARTCHAR AEEA
ENCODING 44778
SWIDTH 520 0
DWIDTH 15 0
BBX 15 14 0 -2
BITMAP
0000
0030
00d0
3f50
09d0
1250
1250
2450
4810
06c0
3240
1e40
12a0
1f18
ENDCHAR
STARTCHAR AEEB
ENCODING 44779
SWIDTH 520 0
DWIDTH 15 0
BBX 15 14 0 -2
BITMAP
0000
0030
00d0
3f50
09d0
1250
1250
2450
4810
0190
0080
0100
06c0
1830
ENDCHAR
STARTCHAR AEEC
ENCODING 44780
SWIDTH 520 0
DWIDTH 15 0
BBX 15 14 0 -2
BITMAP
0000
0030
00d0
3f50
09d0
1250
1250
2450
4810
0000
0cc0
0440
0aa0
3110
ENDCHAR
STARTCHAR AEED
ENCODING 44781
SWIDTH 520 0
DWIDTH 15 0
BBX 15 14 0 -2
BITMAP
0000
0030
00d0
3f50
09d0
1250
1250
2450
4810
0000
03e0
0410
0410
03e0
ENDCHAR
STARTCHAR AEEE
ENCODING 44782
SWIDTH 520 0
DWIDTH 15 0
BBX 15 14 0 -2
BITMAP
0000
0030
00d0
3f50
09d0
1250
1250
2450
4810
0000
0ff0
0080
0360
1c18
ENDCHAR
STARTCHAR AEEF
ENCODING 44783
SWIDTH 520 0
DWIDTH 15 0
BBX 15 14 0 -2
BITMAP
0000
0030
00d0
3f50
09d0
1250
1250
2450
4810
0100
1ff0
0100
06c0
1830
ENDCHAR
STARTCHAR AEF0
ENCODING 44784
SWIDTH 520 0
DWIDTH 15 0
BBX 15 14 0 -2
BITMAP
0000
0030
00d0
3f50
09d0
1250
1250
2450
4800
0ff0
0010
0ff0
0010
0010
ENDCHAR
STARTCHAR AEF1
ENCODING 44785
SWIDTH 520 0
DWIDTH 15 0
BBX 15 14 0 -2
BITMAP
0000
0030
00d0
3f50
09d0
1250
1250
2450
4800
0ff0
0400
07f0
0400
07f0
ENDCHAR
STARTCHAR AEF2
ENCODING 44786
SWIDTH 520 0
DWIDTH 15 0
BBX 15 14 0 -2
BITMAP
0000
0030
00d0
3f50
09d0
1250
1250
2450
4810
0000
0ff0
0440
0240
0ff0
ENDCHAR
STARTCHAR AEF3
ENCODING 44787
SWIDTH 520 0
DWIDTH 15 0
BBX 15 14 0 -2
BITMAP
0000
0030
00d0
3f50
09d0
1250
1250
2450
4810
0100
1ff0
0440
0820
07c0
ENDCHAR
STARTCHAR AEF4
ENCODING 44788
SWIDTH 520 0
DWIDTH 15 0
BBX 15 14 0 -2
BITMAP
0000
0060
0020
3f20
0920
09e0
0920
1120
12e0
2220
4420
0820
0020
0020
ENDCHAR
STARTCHAR AEF5
ENCODING 44789
SWIDTH 520 0
DWIDTH 15 0
BBX 15 14 0 -2
BITMAP
0000
0060
3f20
09e0
0920
1220
12e0
2420
4820
0000
1fe0
0020
0020
0020
ENDCHAR
STARTCHAR AEF6
ENCODING 44790
SWIDTH 520 0
DWIDTH 15 0
BBX 15 14 0 -2
BITMAP
0000
0060
3f20
09e0
0920
1220
12e0
2420
4820
0000
1fe0
0220
0220
0220
ENDCHAR
STARTCHAR AEF7
ENCODING 44791
SWIDTH 520 0
DWIDTH 15 0
BBX 15 14 0 -2
BITMAP
0000
0060
3f20
09e0
0920
1220
12e0
2420
4820
0000
3cc0
0440
04a0
0710
ENDCHAR
STARTCHAR AEF8
ENCODING 44792
SWIDTH 520 0
DWIDTH 15 0
BBX 15 14 0 -2
BITMAP
0000
0060
3f20
09e0
0920
1220
12e0
2420
4820
0020
1820
0800
0800
0fe0
ENDCHAR
STARTCHAR AEF9
ENCODING 44793
SWIDTH 520 0
DWIDTH 15 0
BBX 15 14 0 -2
BITMAP
0000
0060
3f20
09e0
0920
1220
12e0
2420
4820
0000
33e0
1080
1140
1e30
ENDCHAR
STARTCHAR AEFA
ENCODING 44794
SWIDTH 520 0
DWIDTH 15 0
BBX 15 14 0 -2
BITMAP
0000
0060
3f20
09e0
0920
1220
12e0
2420
4820
0080
33f0
10c0
1320
1cc0
ENDCHAR
STARTCHAR AEFB
ENCODING 44795
SWIDTH 520 0
DWIDTH 15 0
BBX 15 14 0 -2
BITMAP
0000
0060
3f20
09e0
0920
1220
12e0
2420
4820
0000
1fe0
0800
0800
0fe0
ENDCHAR
STARTCHAR AEFC
ENCODING 44796
SWIDTH 520 0
DWIDTH 15 0
BBX 15 14 0 -2
BITMAP
0000
0060
3f20
09e0
0920
1220
12e0
2420
4800
1fe0
0020
1fe0
0800
0fe0
ENDCHAR
STARTCHAR AEFD
ENCODING 44797
SWIDTH 520 0
DWIDTH 15 0
BBX 15 14 0 -2
BITMAP
0000
0060
3f20
09e0
0920
1220
12e0
2420
4800
3fe0
0220
3e20
1020
1f20
ENDCHAR
STARTCHAR AEFE
ENCODING 44798
SWIDTH 520 0
DWIDTH 15 0
BBX 15 14 0 -2
BITMAP
0000
0060
3f20
09e0
0920
1220
12e0
2420
4800
3fe0
0520
3d20
1120
1de0
ENDCHAR
STARTCHAR AEFF
ENCODING 44799
SWIDTH 520 0
DWIDTH 15 0
BBX 15 14 0 -2
BITMAP
0000
0060
3f20
09e0
0920
1220
12e0
2420
4800
3f60
0520
3de0
1120
1fe0
ENDCHAR
STARTCHAR AF00
ENCODING 44800
SWIDTH 520 0
DWIDTH 15 0
BBX 15 14 0 -2
BITMAP
0000
0060
3f20
09e0
0920
1220
12e0
2420
4800
3cc0
0440
3c40
10a0
1f10
ENDCHAR
STARTCHAR AF01
ENCODING 44801
SWIDTH 520 0
DWIDTH 15 0
BBX 15 14 0 -2
BITMAP
0000
0060
3f20
09e0
0920
1220
12e0
2420
4800
3fe0
0500
3de0
1100
1ee0
ENDCHAR
STARTCHAR AF02
ENCODING 44802
SWIDTH 520 0
DWIDTH 15 0
BBX 15 14 0 -2
BITMAP
0000
0060
3f20
09e0
0920
1220
12e0
2420
4800
1ff0
02a0
1ea0
08a0
0ff0
ENDCHAR
STARTCHAR AF03
ENCODING 44803
SWIDTH 520 0
DWIDTH 15 0
BBX 15 14 0 -2
BITMAP
0000
0060
3f20
09e0
0920
1220
12e0
2420
48c0
3c00
07f0
3cc0
1120
1cc0
ENDCHAR
STARTCHAR AF04
ENCODING 44804
SWIDTH 520 0
DWIDTH 15 0
BBX 15 14 0 -2
BITMAP
0000
0060
3f20
09e0
0920
1220
12e0
2420
4820
0000
1fe0
0820
0820
0fe0
ENDCHAR
STARTCHAR AF05
ENCODING 44805
SWIDTH 520 0
DWIDTH 15 0
BBX 15 14 0 -2
BITMAP
0000
0060
3f20
09e0
0920
1220
12e0
2420
4800
1860
0820
0fe0
0820
0fe0
ENDCHAR
STARTCHAR AF06
ENCODING 44806
SWIDTH 520 0
DWIDTH 15 0
BBX 15 14 0 -2
BITMAP
0000
0060
3f20
09e0
0920
1220
12e0
2420
4800
06c0
3240
1e40
12a0
1f10
ENDCHAR
STARTCHAR AF07
ENCODING 44807
SWIDTH 520 0
DWIDTH 15 0
BBX 15 14 0 -2
BITMAP
0000
0060
3f20
09e0
0920
1220
12e0
2420
4820
0180
0080
0100
06c0
1830
ENDCHAR
STARTCHAR AF08
ENCODING 44808
SWIDTH 520 0
DWIDTH 15 0
BBX 15 14 0 -2
BITMAP
0000
0060
3f20
09e0
0920
1220
12e0
2420
4820
0000
0cc0
0440
0aa0
3110
ENDCHAR
STARTCHAR AF09
ENCODING 44809
SWIDTH 520 0
DWIDTH 15 0
BBX 15 14 0 -2
BITMAP
0000
0060
3f20
09e0
0920
1220
12e0
2420
4820
0000
07c0
0820
0820
07c0
ENDCHAR
STARTCHAR AF0A
ENCODING 44810
SWIDTH 520 0
DWIDTH 15 0
BBX 15 14 0 -2
BITMAP
0000
0060
3f20
09e0
0920
1220
12e0
2420
4820
0000
0fe0
0100
06c0
1830
ENDCHAR
STARTCHAR AF0B
ENCODING 44811
SWIDTH 520 0
DWIDTH 15 0
BBX 15 14 0 -2
BITMAP
0000
0060
3f20
09e0
0920
1220
12e0
2420
4800
0100
1ff0
0100
06c0
1830
ENDCHAR
STARTCHAR AF0C
ENCODING 44812
SWIDTH 520 0
DWIDTH 15 0
BBX 15 14 0 -2
BITMAP
0000
0060
3f20
09e0
0920
1220
12e0
2420
4800
1fe0
0020
1fe0
0020
0020
ENDCHAR
STARTCHAR AF0D
ENCODING 44813
SWIDTH 520 0
DWIDTH 15 0
BBX 15 14 0 -2
BITMAP
0000
0060
3f20
09e0
0920
1220
12e0
2420
4800
1fe0
0800
0fe0
0800
0fe0
ENDCHAR
STARTCHAR AF0E
ENCODING 44814
SWIDTH 520 0
DWIDTH 15 0
BBX 15 14 0 -2
BITMAP
0000
0060
3f20
09e0
0920
1220
12e0
2420
4820
0000
1ff0
0440
0240
1ff0
ENDCHAR
STARTCHAR AF0F
ENCODING 44815
SWIDTH 520 0
DWIDTH 15 0
BBX 15 14 0 -2
BITMAP
0000
0060
3f20
09e0
0920
1220
12e0
2420
4820
0100
1ff0
0440
0820
07c0
ENDCHAR
STARTCHAR AF10
ENCODING 44816
SWIDTH 520 0
DWIDTH 15 0
BBX 15 14 0 -2
BITMAP
0000
0030
00d0
3f50
0950
09d0
1250
1250
25d0
4450
0850
1050
0050
0010
ENDCHAR
STARTCHAR AF11
ENCODING 44817
SWIDTH 520 0
DWIDTH 15 0
BBX 15 14 0 -2
BITMAP
0000
0030
00d0
3f50
09d0
1250
13d0
2450
4810
0000
0ff0
0010
0010
0010
ENDCHAR
STARTCHAR AF12
ENCODING 44818
SWIDTH 520 0
DWIDTH 15 0
BBX 15 14 0 -2
BITMAP
0000
0030
00d0
3f50
09d0
1250
13d0
2450
4810
0000
1ef0
0210
0210
0210
ENDCHAR
STARTCHAR AF13
ENCODING 44819
SWIDTH 520 0
DWIDTH 15 0
BBX 15 14 0 -2
BITMAP
0000
0030
00d0
3f50
09d0
1250
13d0
2450
4810
0000
1e60
0220
0250
0388
ENDCHAR
STARTCHAR AF14
ENCODING 44820
SWIDTH 520 0
DWIDTH 15 0
BBX 15 14 0 -2
BITMAP
0000
0030
00d0
3f50
09d0
1250
13d0
2450
4850
0050
1810
0800
0800
0ff0
ENDCHAR
STARTCHAR AF15
ENCODING 44821
SWIDTH 520 0
DWIDTH 15 0
BBX 15 14 0 -2
BITMAP
0000
0030
00d0
3f50
09d0
1250
13d0
2450
4810
0000
19f0
0840
08a0
0f18
ENDCHAR
STARTCHAR AF16
ENCODING 44822
SWIDTH 520 0
DWIDTH 15 0
BBX 15 14 0 -2
BITMAP
0000
0030
00d0
3f50
09d0
1250
13d0
2450
4810
0040
19f8
0860
0990
0e60
ENDCHAR
STARTCHAR AF17
ENCODING 44823
SWIDTH 520 0
DWIDTH 15 0
BBX 15 14 0 -2
BITMAP
0000
0030
00d0
3f50
09d0
1250
13d0
2450
4810
0000
1ff0
0800
0800
0ff0
ENDCHAR
STARTCHAR AF18
ENCODING 44824
SWIDTH 520 0
DWIDTH 15 0
BBX 15 14 0 -2
BITMAP
0000
0030
00d0
3f50
09d0
1250
13d0
2450
4800
0ff0
0010
0ff0
0400
07f0
ENDCHAR
STARTCHAR AF19
ENCODING 44825
SWIDTH 520 0
DWIDTH 15 0
BBX 15 14 0 -2
BITMAP
0000
0030
00d0
3f50
09d0
1250
13d0
2450
4800
1ff0
0110
1f10
0810
0f10
ENDCHAR
STARTCHAR AF1A
ENCODING 44826
SWIDTH 520 0
DWIDTH 15 0
BBX 15 14 0 -2
BITMAP
0000
0030
00d0
3f50
09d0
1250
13d0
2450
4800
1ff0
0290
1e90
0890
0ef0
ENDCHAR
STARTCHAR AF1B
ENCODING 44827
SWIDTH 520 0
DWIDTH 15 0
BBX 15 14 0 -2
BITMAP
0000
0030
00d0
3f50
09d0
1250
13d0
2450
4800
1fb0
0290
1ef0
0890
0ff0
ENDCHAR
STARTCHAR AF1C
ENCODING 44828
SWIDTH 520 0
DWIDTH 15 0
BBX 15 14 0 -2
BITMAP
0000
0030
00d0
3f50
09d0
1250
13d0
2450
4800
1e60
0220
1e20
0850
0f88
ENDCHAR
STARTCHAR AF1D
ENCODING 44829
SWIDTH 520 0
DWIDTH 15 0
BBX 15 14 0 -2
BITMAP
0000
0030
00d0
3f50
09d0
1250
13d0
2450
4800
1ff0
0280
1ef0
0880
0f70
ENDCHAR
STARTCHAR AF1E
ENCODING 44830
SWIDTH 520 0
DWIDTH 15 0
BBX 15 14 0 -2
BITMAP
0000
0030
00d0
3f50
09d0
1250
13d0
2450
4800
1ff0
02a0
1ea0
08a0
0ff0
ENDCHAR
STARTCHAR AF1F
ENCODING 44831
SWIDTH 520 0
DWIDTH 15 0
BBX 15 14 0 -2
BITMAP
0000
0030
00d0
3f50
09d0
1250
13d0
2450
4800
1e40
03f8
1e60
0890
0e60
ENDCHAR
STARTCHAR AF20
ENCODING 44832
SWIDTH 520 0
DWIDTH 15 0
BBX 15 14 0 -2
BITMAP
0000
0030
00d0
3f50
09d0
1250
13d0
2450
4810
0000
0ff0
0410
0410
07f0
ENDCHAR
ENDFONT
